<?xml version="1.0" standalone="no"?>
<!DOCTYPE svg PUBLIC "-//W3C//DTD SVG 20010904//EN"
 "http://www.w3.org/TR/2001/REC-SVG-20010904/DTD/svg10.dtd">
<svg version="1.0" xmlns="http://www.w3.org/2000/svg"
 width="1600.000000pt" height="1600.000000pt" viewBox="0 0 1600.000000 1600.000000"
 preserveAspectRatio="xMidYMid meet">

<g transform="translate(0.000000,1600.000000) scale(0.100000,-0.100000)"
fill="#000000" stroke="none">
<path d="M7908 15822 c-49 -1 -88 -7 -88 -12 0 -6 -12 -10 -27 -10 -55 0 -103
-13 -103 -26 0 -9 -11 -14 -30 -14 -16 0 -30 -4 -30 -10 0 -5 -18 -13 -40 -16
-22 -4 -40 -10 -40 -14 0 -4 -20 -11 -45 -14 -25 -4 -45 -11 -45 -17 0 -5 -7
-9 -15 -9 -8 0 -15 -6 -15 -14 0 -9 -18 -16 -55 -21 -30 -3 -55 -11 -55 -16 0
-5 -9 -9 -20 -9 -11 0 -20 -4 -20 -9 0 -5 -18 -11 -40 -15 -22 -3 -40 -11 -40
-16 0 -6 -10 -10 -22 -10 -39 0 -68 -12 -68 -26 0 -8 -10 -14 -25 -14 -14 0
-25 -4 -25 -9 0 -6 -20 -13 -45 -17 -25 -3 -45 -10 -45 -15 0 -4 -16 -11 -35
-15 -19 -3 -35 -10 -35 -15 0 -5 -11 -9 -25 -9 -14 0 -25 -4 -25 -10 0 -5 -10
-10 -22 -10 -38 0 -68 -12 -68 -25 0 -13 -30 -25 -67 -25 -13 0 -23 -4 -23
-10 0 -5 -11 -10 -24 -10 -13 0 -26 -5 -28 -11 -2 -5 -22 -13 -46 -16 -23 -3
-42 -10 -42 -14 0 -5 -7 -9 -15 -9 -8 0 -15 -6 -15 -14 0 -9 -17 -16 -45 -20
-25 -4 -45 -11 -45 -15 0 -5 -18 -11 -40 -15 -22 -3 -40 -11 -40 -16 0 -6 -13
-10 -30 -10 -16 0 -30 -4 -30 -9 0 -6 -20 -13 -45 -17 -27 -4 -45 -12 -45 -19
0 -8 -17 -16 -40 -20 -22 -4 -40 -11 -40 -16 0 -5 -11 -9 -25 -9 -14 0 -25 -4
-25 -10 0 -5 -18 -13 -40 -16 -22 -4 -40 -10 -40 -15 0 -5 -13 -9 -30 -9 -16
0 -30 -4 -30 -10 0 -5 -18 -13 -40 -16 -23 -4 -40 -12 -40 -20 0 -8 -18 -15
-45 -20 -25 -3 -45 -10 -45 -15 0 -5 -7 -9 -15 -9 -8 0 -15 -4 -15 -9 0 -4
-19 -11 -42 -14 -24 -3 -44 -11 -46 -16 -2 -6 -13 -11 -25 -11 -38 0 -67 -12
-67 -26 0 -8 -7 -14 -15 -14 -8 0 -15 -4 -15 -9 0 -4 -19 -11 -41 -14 -23 -3
-45 -10 -48 -15 -3 -5 -25 -13 -48 -17 -24 -4 -43 -11 -43 -16 0 -5 -11 -9
-25 -9 -15 0 -25 -6 -25 -14 0 -9 -17 -16 -45 -20 -25 -4 -45 -11 -45 -17 0
-5 -9 -9 -20 -9 -11 0 -20 -4 -20 -9 0 -6 -21 -13 -47 -17 -27 -4 -51 -11 -54
-16 -3 -5 -25 -12 -48 -15 -22 -3 -41 -10 -41 -14 0 -5 -7 -9 -15 -9 -8 0 -15
-6 -15 -14 0 -9 -17 -16 -50 -21 -27 -4 -50 -11 -50 -16 0 -5 -18 -12 -40 -15
-22 -4 -40 -10 -40 -15 0 -5 -9 -9 -20 -9 -11 0 -20 -4 -20 -9 0 -5 -18 -11
-40 -15 -24 -4 -40 -12 -40 -20 0 -9 -18 -16 -55 -21 -30 -3 -55 -11 -55 -16
0 -5 -7 -9 -15 -9 -8 0 -15 -4 -15 -9 0 -6 -20 -13 -45 -17 -25 -3 -45 -10
-45 -15 0 -5 -13 -9 -30 -9 -19 0 -30 -5 -30 -14 0 -8 -13 -17 -30 -21 -16 -4
-30 -10 -30 -15 0 -5 -13 -11 -30 -15 -16 -4 -30 -11 -30 -16 0 -5 -7 -9 -15
-9 -8 0 -15 -4 -15 -9 0 -5 -10 -13 -22 -17 -31 -9 -148 -132 -148 -155 0 -12
-9 -21 -25 -25 -16 -4 -25 -13 -25 -25 0 -11 -7 -22 -15 -25 -8 -4 -18 -24
-21 -45 -4 -21 -10 -39 -15 -39 -5 0 -9 -7 -9 -15 0 -8 -4 -15 -10 -15 -5 0
-12 -27 -16 -60 -4 -37 -11 -60 -19 -60 -17 0 -27 -153 -19 -285 5 -74 11
-105 20 -105 7 0 15 -20 19 -50 4 -27 11 -50 16 -50 5 0 9 -9 9 -20 0 -11 4
-20 9 -20 5 0 12 -16 15 -35 4 -19 11 -35 15 -35 5 0 12 -11 15 -25 4 -14 13
-25 21 -25 8 0 15 -7 15 -15 0 -17 223 -245 239 -245 6 0 11 -5 11 -11 0 -14
95 -109 109 -109 6 0 11 -5 11 -11 0 -13 236 -249 250 -249 5 0 10 -5 10 -10
0 -15 85 -100 99 -100 6 0 11 -5 11 -11 0 -14 95 -109 109 -109 6 0 11 -5 11
-11 0 -14 25 -39 39 -39 6 0 11 -9 11 -20 0 -11 -4 -20 -10 -20 -5 0 -10 -9
-10 -20 0 -11 -7 -23 -15 -26 -8 -4 -15 -17 -15 -30 0 -14 -6 -24 -14 -24 -8
0 -17 -13 -21 -30 -4 -16 -11 -30 -16 -30 -5 0 -9 -9 -9 -19 0 -11 -7 -26 -15
-35 -8 -8 -15 -23 -15 -34 0 -11 -7 -22 -15 -26 -8 -3 -15 -16 -15 -30 0 -15
-7 -25 -20 -29 -11 -3 -20 -12 -20 -21 0 -9 -4 -16 -10 -16 -5 0 -10 -9 -10
-20 0 -11 -4 -20 -9 -20 -5 0 -12 -15 -15 -33 -3 -18 -15 -39 -26 -47 -11 -8
-20 -20 -20 -27 0 -7 -4 -13 -10 -13 -5 0 -10 -9 -10 -19 0 -11 -5 -21 -12
-23 -16 -6 -17 -190 0 -196 7 -2 12 -15 12 -28 0 -13 5 -24 10 -24 6 0 10 -6
10 -14 0 -8 9 -18 20 -21 11 -3 20 -11 20 -16 0 -5 7 -9 15 -9 8 0 15 -4 15
-10 0 -5 16 -12 35 -16 20 -3 35 -12 35 -20 0 -11 33 -14 178 -14 l179 0 6
-227 c4 -125 11 -229 15 -232 5 -3 12 -55 16 -116 4 -60 12 -111 17 -113 5 -2
9 -24 9 -48 0 -24 4 -44 9 -44 5 0 12 -36 16 -80 5 -58 11 -80 21 -80 9 0 14
-12 14 -35 0 -19 4 -35 9 -35 5 0 12 -29 16 -65 3 -36 10 -65 15 -65 4 0 11
-27 15 -60 4 -33 11 -60 16 -60 5 0 9 -11 9 -25 0 -14 5 -25 10 -25 6 0 10
-13 10 -30 0 -16 5 -30 10 -30 6 0 10 -11 10 -25 0 -14 4 -25 9 -25 5 0 12
-20 15 -45 4 -25 11 -45 17 -45 5 0 9 -9 9 -20 0 -11 4 -20 9 -20 4 0 11 -19
14 -42 3 -24 11 -44 16 -46 6 -2 11 -15 11 -28 0 -14 6 -24 14 -24 8 0 16 -16
20 -40 3 -22 10 -40 16 -40 5 0 12 -16 16 -35 3 -19 10 -35 15 -35 5 0 9 -7 9
-15 0 -8 4 -15 9 -15 5 0 12 -22 16 -50 4 -31 12 -50 20 -50 7 0 16 -13 20
-30 4 -16 11 -30 16 -30 5 0 9 -7 9 -15 0 -8 4 -15 9 -15 5 0 12 -13 16 -30 4
-16 10 -30 15 -30 5 0 11 -13 15 -30 4 -16 13 -30 21 -30 8 0 14 -7 14 -15 0
-8 4 -15 10 -15 5 0 12 -16 16 -35 3 -19 10 -35 15 -35 5 0 9 -6 9 -14 0 -8 7
-16 15 -20 8 -3 15 -16 15 -30 0 -16 7 -27 20 -31 11 -3 20 -12 20 -18 0 -7 9
-19 20 -27 11 -8 20 -22 20 -31 0 -10 6 -24 14 -31 7 -8 17 -24 20 -36 4 -12
12 -22 17 -22 5 0 9 -9 9 -20 0 -11 5 -20 10 -20 11 0 50 -36 50 -46 0 -3 6
-12 13 -19 31 -35 37 -45 37 -60 0 -9 8 -19 18 -22 22 -9 52 -42 52 -60 0 -7
5 -13 10 -13 6 0 10 -6 10 -14 0 -7 12 -22 26 -32 75 -55 69 -33 66 -267 -2
-117 -8 -213 -13 -215 -5 -2 -9 -60 -9 -128 0 -76 -4 -124 -10 -124 -6 0 -10
-47 -10 -120 0 -73 -4 -120 -10 -120 -6 0 -10 -28 -10 -65 0 -63 -1 -65 -25
-65 -16 0 -25 6 -25 15 0 11 -12 15 -50 15 -36 0 -50 -4 -50 -14 0 -9 -17 -16
-50 -21 -36 -5 -51 -12 -55 -26 -4 -10 -13 -19 -21 -19 -8 0 -14 -6 -14 -14 0
-8 -9 -18 -20 -21 -13 -4 -20 -15 -20 -31 0 -13 -4 -24 -10 -24 -5 0 -10 -9
-10 -20 0 -11 -4 -20 -9 -20 -5 0 -13 -29 -16 -65 -4 -36 -11 -65 -16 -65 -5
0 -9 -13 -9 -30 0 -16 -4 -30 -9 -30 -5 0 -12 -27 -16 -60 -4 -33 -11 -60 -16
-60 -5 0 -9 -13 -9 -30 0 -19 -5 -30 -14 -30 -10 0 -16 -19 -21 -65 -4 -36
-11 -65 -16 -65 -4 0 -11 -27 -15 -60 -4 -33 -11 -60 -15 -60 -5 0 -9 -13 -9
-30 0 -16 -4 -30 -9 -30 -6 0 -13 -31 -17 -70 -5 -49 -11 -70 -20 -70 -8 0
-14 -8 -14 -18 0 -22 -32 -62 -49 -62 -6 0 -11 -4 -11 -10 0 -5 -13 -10 -30
-10 -16 0 -30 -4 -30 -10 0 -5 -7 -10 -15 -10 -8 0 -15 -4 -15 -9 0 -5 -20
-12 -45 -15 -25 -4 -45 -11 -45 -15 0 -5 -18 -11 -40 -15 -22 -3 -40 -11 -40
-16 0 -6 -11 -10 -25 -10 -15 0 -25 -6 -25 -14 0 -8 -16 -16 -40 -20 -22 -3
-40 -10 -40 -16 0 -5 -20 -12 -45 -16 -25 -3 -45 -10 -45 -15 0 -5 -7 -9 -15
-9 -8 0 -15 -4 -15 -10 0 -5 -10 -10 -22 -10 -38 0 -68 -12 -68 -25 0 -7 -19
-16 -45 -19 -25 -4 -45 -11 -45 -17 0 -5 -7 -9 -15 -9 -8 0 -15 -4 -15 -9 0
-5 -20 -12 -45 -15 -25 -4 -45 -11 -45 -17 0 -5 -11 -9 -25 -9 -14 0 -25 -4
-25 -10 0 -5 -9 -10 -20 -10 -11 0 -20 -4 -20 -10 0 -5 -9 -10 -20 -10 -11 0
-20 -4 -20 -9 0 -5 -18 -11 -40 -15 -22 -3 -40 -11 -40 -16 0 -6 -13 -10 -29
-10 -16 0 -31 -5 -33 -11 -2 -5 -22 -13 -46 -16 -23 -3 -42 -9 -42 -14 0 -4
-13 -10 -30 -14 -16 -4 -30 -13 -30 -21 0 -9 -11 -14 -30 -14 -16 0 -30 -4
-30 -9 0 -5 -13 -12 -30 -16 -16 -4 -30 -10 -30 -14 0 -5 -19 -11 -42 -14 -24
-3 -44 -11 -46 -16 -2 -6 -15 -11 -28 -11 -14 0 -24 -6 -24 -14 0 -8 -16 -16
-40 -20 -22 -3 -40 -11 -40 -16 0 -6 -11 -10 -25 -10 -14 0 -25 -4 -25 -9 0
-6 -20 -13 -45 -17 -25 -3 -45 -10 -45 -15 0 -4 -16 -11 -35 -15 -20 -3 -35
-12 -35 -20 0 -8 -10 -14 -24 -14 -13 0 -26 -5 -28 -11 -2 -5 -22 -13 -46 -16
-23 -3 -42 -9 -42 -14 0 -4 -13 -10 -30 -14 -16 -4 -30 -11 -30 -16 0 -5 -13
-9 -30 -9 -16 0 -30 -4 -30 -9 0 -5 -16 -12 -35 -15 -21 -4 -35 -13 -35 -21 0
-10 -10 -15 -30 -15 -16 0 -30 -4 -30 -10 0 -5 -18 -13 -40 -16 -22 -4 -40
-10 -40 -15 0 -4 -20 -11 -45 -15 -25 -3 -45 -10 -45 -15 0 -5 -7 -9 -15 -9
-8 0 -15 -6 -15 -14 0 -10 -16 -17 -45 -22 -25 -3 -45 -10 -45 -15 0 -4 -16
-11 -35 -15 -19 -3 -35 -10 -35 -15 0 -5 -11 -9 -25 -9 -14 0 -25 -4 -25 -9 0
-6 -20 -13 -45 -17 -25 -3 -45 -10 -45 -15 0 -5 -9 -9 -20 -9 -11 0 -20 -4
-20 -10 0 -5 -11 -10 -25 -10 -14 0 -25 -4 -25 -10 0 -5 -9 -10 -19 -10 -11 0
-21 -5 -23 -11 -2 -5 -22 -13 -46 -16 -23 -3 -42 -10 -42 -14 0 -5 -7 -9 -15
-9 -8 0 -15 -4 -15 -9 0 -5 -13 -12 -30 -16 -16 -4 -30 -12 -30 -20 0 -8 -20
-15 -55 -20 -30 -3 -55 -11 -55 -16 0 -5 -9 -9 -20 -9 -11 0 -20 -4 -20 -9 0
-5 -18 -12 -40 -16 -22 -4 -40 -10 -40 -15 0 -4 -20 -11 -45 -14 -29 -5 -45
-12 -45 -22 0 -8 -9 -14 -20 -14 -11 0 -20 -4 -20 -9 0 -6 -20 -13 -45 -17
-25 -3 -45 -10 -45 -15 0 -5 -7 -9 -15 -9 -8 0 -15 -4 -15 -9 0 -4 -19 -11
-42 -14 -24 -3 -44 -11 -46 -16 -2 -6 -10 -11 -18 -11 -8 0 -14 -4 -14 -10 0
-5 -13 -10 -30 -10 -16 0 -30 -4 -30 -10 0 -5 -7 -10 -15 -10 -8 0 -15 -4 -15
-9 0 -5 -20 -12 -45 -15 -25 -4 -45 -11 -45 -16 0 -4 -18 -11 -40 -15 -22 -4
-40 -11 -40 -16 0 -5 -11 -9 -25 -9 -15 0 -25 -6 -25 -14 0 -8 -12 -17 -26
-20 -15 -4 -32 -12 -39 -19 -7 -7 -22 -19 -34 -27 -11 -8 -21 -20 -21 -27 0
-7 -4 -13 -10 -13 -5 0 -13 -18 -16 -40 -4 -22 -10 -40 -14 -40 -5 0 -11 -31
-15 -70 -4 -38 -11 -70 -16 -70 -5 0 -9 -16 -9 -35 0 -24 -5 -35 -14 -35 -10
0 -17 -17 -21 -55 -4 -30 -11 -55 -15 -55 -4 0 -11 -27 -15 -60 -4 -33 -11
-60 -16 -60 -5 0 -9 -16 -9 -35 0 -19 -4 -35 -9 -35 -4 0 -11 -27 -15 -60 -5
-43 -11 -60 -21 -60 -10 0 -15 -10 -15 -30 0 -16 -4 -30 -9 -30 -5 0 -13 -30
-17 -67 -3 -38 -11 -71 -16 -74 -5 -3 -12 -31 -15 -62 -3 -32 -10 -57 -14 -57
-5 0 -9 -11 -9 -25 0 -14 -4 -25 -10 -25 -5 0 -10 -16 -10 -35 0 -19 -4 -35
-10 -35 -5 0 -10 -11 -10 -25 0 -14 -4 -25 -9 -25 -4 0 -11 -27 -15 -60 -4
-33 -11 -60 -16 -60 -6 0 -10 -13 -10 -30 0 -16 -4 -30 -9 -30 -4 0 -11 -27
-15 -60 -4 -33 -11 -60 -16 -60 -6 0 -10 -16 -10 -35 0 -19 -4 -35 -10 -35 -5
0 -10 -16 -10 -35 0 -19 -4 -35 -10 -35 -5 0 -10 -11 -10 -25 0 -14 -4 -25 -9
-25 -4 0 -12 -31 -15 -70 -4 -38 -11 -70 -17 -70 -5 0 -9 -13 -9 -30 0 -16 -4
-30 -10 -30 -5 0 -12 -27 -16 -60 -4 -40 -11 -60 -20 -60 -9 0 -15 -20 -20
-60 -4 -33 -11 -60 -15 -60 -5 0 -9 -16 -9 -35 0 -19 -4 -35 -9 -35 -5 0 -12
-27 -16 -60 -4 -33 -11 -60 -15 -60 -4 0 -11 -25 -15 -55 -4 -38 -11 -55 -21
-55 -9 0 -14 -11 -14 -35 0 -19 -4 -35 -9 -35 -5 0 -12 -29 -16 -65 -3 -36
-11 -65 -16 -65 -5 0 -9 -13 -9 -30 0 -16 -4 -30 -9 -30 -5 0 -12 -27 -16 -60
-4 -33 -11 -60 -16 -60 -5 0 -9 -13 -9 -30 0 -16 -4 -30 -10 -30 -5 0 -10 -16
-10 -35 0 -19 -4 -35 -10 -35 -5 0 -10 -11 -10 -25 0 -14 -4 -25 -9 -25 -5 0
-12 -29 -16 -65 -3 -36 -10 -65 -15 -65 -4 0 -11 -27 -15 -60 -4 -33 -11 -60
-16 -60 -5 0 -9 -13 -9 -30 0 -19 -5 -30 -14 -30 -9 0 -15 -20 -20 -62 -3 -34
-10 -64 -15 -67 -5 -3 -12 -32 -16 -63 -4 -32 -11 -58 -16 -58 -5 0 -9 -15 -9
-34 0 -19 -4 -36 -10 -38 -5 -2 -13 -31 -16 -65 -5 -43 -11 -63 -20 -63 -8 0
-14 -11 -14 -25 0 -14 -4 -25 -9 -25 -4 0 -11 -27 -15 -60 -4 -33 -11 -60 -15
-60 -5 0 -11 -27 -15 -60 -4 -33 -11 -60 -16 -60 -6 0 -10 -18 -10 -40 0 -22
-4 -40 -10 -40 -5 0 -10 -9 -10 -20 0 -11 -4 -20 -10 -20 -5 0 -10 -18 -10
-39 0 -23 -5 -41 -12 -44 -17 -5 -16 -219 1 -225 6 -2 11 -9 11 -16 0 -6 10
-18 22 -26 11 -8 28 -23 37 -32 15 -17 393 -18 7686 -18 7293 0 7671 1 7686
18 9 9 26 24 37 32 12 8 22 20 22 26 0 7 5 14 11 16 17 6 18 220 2 225 -8 3
-13 21 -13 44 0 21 -4 39 -10 39 -5 0 -10 9 -10 20 0 11 -4 20 -10 20 -5 0
-10 18 -10 40 0 22 -4 40 -10 40 -5 0 -12 27 -16 60 -4 33 -11 60 -15 60 -5 0
-9 11 -9 25 0 14 -4 25 -9 25 -4 0 -11 27 -15 60 -5 39 -12 60 -20 60 -9 0
-15 21 -20 63 -3 34 -11 63 -16 65 -6 2 -10 19 -10 38 0 19 -4 34 -9 34 -5 0
-12 26 -16 58 -4 31 -11 60 -16 63 -5 3 -12 33 -15 67 -5 42 -11 62 -20 62 -9
0 -14 11 -14 30 0 17 -4 30 -9 30 -5 0 -12 27 -16 60 -4 33 -11 60 -16 60 -5
0 -9 14 -9 30 0 17 -4 30 -9 30 -4 0 -11 27 -15 60 -4 33 -11 60 -16 60 -6 0
-10 16 -10 35 0 19 -4 35 -10 35 -5 0 -10 14 -10 30 0 17 -4 30 -10 30 -5 0
-10 14 -10 30 0 17 -4 30 -9 30 -5 0 -12 27 -16 60 -4 33 -11 60 -15 60 -5 0
-12 29 -15 65 -4 36 -11 65 -16 65 -5 0 -9 16 -9 35 0 24 -5 35 -14 35 -10 0
-17 17 -21 55 -4 30 -11 55 -15 55 -4 0 -11 27 -15 60 -4 33 -11 60 -16 60 -5
0 -9 16 -9 35 0 19 -4 35 -9 35 -4 0 -11 27 -15 60 -5 43 -11 60 -21 60 -10 0
-15 11 -15 35 0 19 -4 35 -9 35 -5 0 -13 25 -16 55 -4 30 -11 55 -16 55 -4 0
-11 32 -15 70 -3 39 -11 70 -15 70 -5 0 -9 11 -9 25 0 15 -6 25 -14 25 -10 0
-16 20 -21 70 -4 38 -11 70 -16 70 -4 0 -11 27 -15 60 -4 33 -11 60 -15 60 -5
0 -9 14 -9 30 0 17 -4 30 -10 30 -5 0 -12 27 -16 60 -4 33 -11 60 -15 60 -5 0
-9 11 -9 25 0 15 -6 25 -14 25 -9 0 -16 19 -20 60 -4 33 -11 60 -15 60 -5 0
-11 26 -14 57 -3 32 -11 59 -17 61 -5 2 -10 21 -10 43 0 21 -4 39 -9 39 -5 0
-12 27 -16 60 -5 40 -11 60 -20 60 -10 0 -16 20 -21 60 -4 33 -11 60 -15 60
-5 0 -9 16 -9 35 0 19 -4 35 -9 35 -5 0 -12 27 -16 60 -4 33 -11 60 -15 60 -4
0 -11 25 -15 55 -4 38 -11 55 -21 55 -9 0 -14 11 -14 35 0 19 -4 35 -9 35 -5
0 -12 31 -16 70 -4 38 -11 70 -16 70 -5 0 -9 11 -9 25 0 14 -4 25 -9 25 -5 0
-12 13 -16 28 -3 15 -15 35 -27 43 -11 8 -26 19 -33 26 -7 7 -24 15 -39 19
-14 3 -26 12 -26 20 0 8 -10 14 -25 14 -14 0 -25 4 -25 9 0 5 -18 11 -40 15
-22 3 -40 10 -40 16 0 5 -20 12 -45 16 -25 3 -45 10 -45 15 0 5 -7 9 -15 9 -8
0 -15 5 -15 10 0 6 -13 10 -30 10 -16 0 -30 5 -30 10 0 6 -6 10 -14 10 -8 0
-16 5 -18 11 -2 5 -22 13 -46 16 -23 3 -42 10 -42 14 0 5 -7 9 -15 9 -8 0 -15
4 -15 9 0 5 -20 12 -45 15 -25 4 -45 11 -45 17 0 5 -9 9 -20 9 -11 0 -20 6
-20 14 0 10 -16 17 -45 22 -25 3 -45 10 -45 14 0 4 -20 11 -45 14 -25 4 -45
11 -45 17 0 5 -7 9 -15 9 -8 0 -15 4 -15 9 0 5 -18 11 -40 15 -24 4 -40 12
-40 20 0 8 -16 16 -42 19 -24 3 -44 11 -46 16 -2 6 -10 11 -18 11 -8 0 -14 4
-14 9 0 4 -19 11 -42 14 -24 3 -44 11 -46 16 -2 6 -15 11 -28 11 -13 0 -24 5
-24 10 0 6 -9 10 -20 10 -11 0 -20 5 -20 10 0 6 -9 10 -20 10 -11 0 -20 4 -20
9 0 4 -19 11 -42 14 -24 3 -44 11 -46 16 -2 6 -15 11 -28 11 -13 0 -24 4 -24
9 0 5 -16 12 -35 15 -19 4 -35 11 -35 15 0 5 -20 12 -45 15 -29 5 -45 12 -45
22 0 8 -7 14 -15 14 -8 0 -15 4 -15 9 0 5 -20 12 -45 15 -25 4 -45 11 -45 15
0 5 -18 11 -40 15 -22 3 -40 11 -40 16 0 6 -13 10 -30 10 -19 0 -30 5 -30 14
0 8 -15 17 -35 20 -19 4 -35 11 -35 16 0 6 -13 10 -30 10 -16 0 -30 4 -30 9 0
5 -13 12 -30 16 -16 4 -30 10 -30 14 0 5 -19 11 -42 14 -24 3 -44 11 -46 16
-2 6 -15 11 -28 11 -14 0 -24 6 -24 14 0 8 -15 17 -35 20 -19 4 -35 11 -35 15
0 5 -20 12 -45 15 -25 4 -45 11 -45 17 0 5 -11 9 -25 9 -14 0 -25 4 -25 9 0 5
-18 11 -40 15 -26 4 -40 11 -40 21 0 9 -10 15 -25 15 -14 0 -25 4 -25 9 0 6
-20 13 -45 17 -25 3 -45 10 -45 14 0 5 -13 11 -30 15 -16 4 -30 11 -30 16 0 5
-13 9 -30 9 -19 0 -30 5 -30 14 0 8 -13 17 -30 21 -16 4 -30 10 -30 14 0 5
-19 11 -42 14 -24 3 -44 11 -46 16 -2 6 -17 11 -33 11 -16 0 -29 4 -29 9 0 5
-18 12 -40 16 -22 4 -40 11 -40 16 0 5 -11 9 -25 9 -14 0 -25 5 -25 10 0 6 -7
10 -15 10 -8 0 -15 5 -15 10 0 6 -11 10 -25 10 -14 0 -25 4 -25 9 0 6 -20 13
-45 17 -25 3 -45 10 -45 15 0 5 -7 9 -15 9 -8 0 -15 4 -15 9 0 6 -20 13 -45
17 -26 3 -45 12 -45 19 0 13 -30 25 -67 25 -13 0 -23 5 -23 10 0 6 -7 10 -15
10 -8 0 -15 4 -15 9 0 5 -20 12 -45 15 -25 4 -45 11 -45 15 0 5 -16 12 -35 15
-21 4 -35 13 -35 21 0 10 -10 15 -29 15 -16 0 -31 5 -33 11 -2 5 -22 13 -46
16 -23 3 -42 9 -42 14 0 5 -18 12 -40 15 -22 4 -40 10 -40 15 0 5 -9 9 -20 9
-11 0 -20 5 -20 10 0 6 -7 10 -15 10 -8 0 -15 5 -15 10 0 6 -9 10 -21 10 -32
0 -48 24 -55 84 -5 37 -11 56 -20 56 -9 0 -14 12 -14 35 0 19 -4 35 -9 35 -5
0 -12 32 -16 70 -4 39 -11 70 -15 70 -4 0 -11 32 -15 70 -4 39 -11 70 -16 70
-5 0 -9 16 -9 35 0 23 -5 35 -14 35 -9 0 -15 21 -20 72 -4 40 -10 75 -15 78
-5 3 -12 38 -16 78 -4 39 -11 72 -16 72 -5 0 -9 16 -9 35 0 19 -4 35 -10 35
-5 0 -12 16 -16 35 -3 19 -10 35 -16 35 -5 0 -19 11 -32 25 -13 14 -26 25 -30
25 -4 0 -14 7 -22 15 -9 8 -31 15 -50 15 -24 0 -34 5 -34 15 0 12 -13 15 -55
15 -42 0 -55 -3 -55 -15 0 -10 -10 -15 -30 -15 -28 0 -30 2 -30 40 0 22 -4 40
-10 40 -6 0 -10 55 -10 145 0 116 -3 145 -14 145 -11 0 -15 53 -21 285 -4 157
-11 285 -16 285 -17 0 -10 109 8 130 10 11 21 20 25 20 14 0 48 34 48 47 0 7
5 13 10 13 6 0 10 6 10 13 0 18 30 51 53 60 9 3 17 16 17 27 0 11 4 20 9 20 5
0 13 10 17 22 3 12 22 36 40 54 19 17 34 37 34 44 0 14 38 50 52 50 4 0 8 9 8
20 0 11 7 23 15 26 8 4 15 17 15 30 0 13 4 24 9 24 5 0 11 9 14 20 3 11 12 20
21 20 10 0 16 9 16 25 0 14 7 28 15 31 8 4 15 12 15 20 0 8 4 14 9 14 5 0 12
16 15 35 4 19 11 35 16 35 4 0 11 14 15 30 4 16 13 30 21 30 8 0 14 7 14 15 0
8 4 15 9 15 5 0 12 14 16 30 4 17 10 30 15 30 5 0 11 14 15 30 4 17 11 30 16
30 5 0 9 7 9 15 0 8 6 15 14 15 8 0 16 16 20 40 3 22 11 40 16 40 6 0 10 7 10
15 0 8 4 15 9 15 4 0 11 19 14 42 3 24 11 44 16 46 6 2 14 21 17 43 4 21 10
39 15 39 5 0 9 11 9 25 0 15 6 25 14 25 14 0 26 29 26 68 0 12 4 22 9 22 5 0
12 18 16 40 4 22 11 40 16 40 5 0 9 11 9 25 0 14 4 25 9 25 5 0 13 25 16 55 5
37 12 55 21 55 8 0 14 10 14 25 0 14 4 25 9 25 5 0 12 27 16 60 4 33 11 60 15
60 5 0 12 29 15 65 4 36 11 65 16 65 5 0 9 16 9 35 0 23 5 35 14 35 14 0 26
60 26 126 0 19 4 34 9 34 5 0 12 43 16 95 4 52 11 95 16 95 5 0 9 29 9 64 0
35 5 66 10 68 6 2 13 91 17 231 l6 227 199 0 c162 0 198 2 198 14 0 8 12 17
26 20 14 4 40 22 58 40 17 18 39 35 49 39 11 4 17 17 17 37 0 16 5 30 10 30 6
0 10 35 10 85 0 47 -4 85 -9 85 -5 0 -11 18 -15 40 -4 26 -11 40 -21 40 -8 0
-15 5 -15 11 0 6 -7 17 -15 25 -8 9 -15 24 -15 35 0 10 -4 19 -9 19 -5 0 -12
11 -15 25 -4 14 -11 25 -16 25 -6 0 -10 7 -10 15 0 8 -4 15 -9 15 -5 0 -12 14
-16 30 -4 17 -12 30 -20 30 -7 0 -16 12 -20 27 -3 15 -14 34 -24 42 -10 9 -21
29 -25 45 -7 30 -28 56 -44 56 -6 0 -13 14 -17 30 -4 17 -10 30 -15 30 -4 0
-11 11 -14 25 -4 14 -11 25 -16 25 -6 0 -10 9 -10 20 0 11 5 20 11 20 16 0 35
23 42 51 4 17 16 29 31 33 14 3 28 15 31 26 3 11 11 20 16 20 5 0 9 9 9 20 0
15 9 22 30 26 16 4 32 15 35 25 3 10 15 21 25 24 10 3 22 15 26 27 8 26 52 68
70 68 8 0 14 8 14 18 0 10 8 25 18 34 9 9 30 32 47 52 16 20 34 36 38 36 11 0
67 56 67 67 0 11 37 43 50 43 5 0 12 11 16 24 3 14 12 27 20 30 8 3 14 12 14
21 0 8 5 15 10 15 6 0 10 7 10 15 0 8 7 15 15 15 8 0 15 5 15 10 0 6 6 10 14
10 16 0 33 15 56 50 23 35 74 86 93 93 10 4 17 17 17 31 0 16 7 27 19 31 11 3
23 16 27 28 4 11 13 27 20 35 8 7 14 22 14 33 0 10 7 19 15 19 8 0 15 6 15 14
0 8 5 16 11 18 5 2 13 22 16 46 3 23 10 42 14 42 5 0 9 11 9 24 0 13 6 26 13
28 9 4 12 54 12 208 0 154 -3 204 -12 207 -7 3 -13 18 -13 34 0 16 -4 29 -9
29 -6 0 -13 20 -17 45 -3 25 -10 45 -15 45 -5 0 -9 7 -9 15 0 8 -6 15 -14 15
-8 0 -17 14 -21 30 -4 17 -10 30 -15 30 -4 0 -11 12 -14 26 -7 26 -59 84 -76
84 -6 0 -10 4 -10 9 0 13 -67 81 -80 81 -5 0 -10 4 -10 10 0 5 -11 12 -25 16
-14 3 -25 10 -25 14 0 5 -13 11 -30 15 -16 4 -30 13 -30 21 0 8 -7 14 -15 14
-8 0 -15 4 -15 9 0 5 -25 12 -55 16 -30 3 -55 11 -55 16 0 5 -9 9 -20 9 -11 0
-20 4 -20 9 0 5 -18 12 -40 16 -23 4 -40 12 -40 20 0 7 -18 15 -45 19 -25 4
-45 11 -45 17 0 5 -9 9 -20 9 -11 0 -20 4 -20 9 0 5 -20 12 -45 15 -25 4 -45
11 -45 17 0 5 -10 9 -22 9 -39 0 -68 12 -68 26 0 8 -10 14 -25 14 -14 0 -25 4
-25 9 0 5 -19 12 -42 16 -24 4 -46 12 -49 17 -3 5 -25 12 -48 15 -22 3 -41 10
-41 14 0 5 -11 9 -24 9 -13 0 -26 5 -28 11 -2 5 -22 13 -46 16 -26 3 -42 11
-42 19 0 8 -7 14 -15 14 -8 0 -15 4 -15 9 0 4 -19 11 -41 14 -23 3 -45 10 -48
16 -4 5 -30 13 -59 17 -28 3 -52 10 -52 15 0 5 -7 9 -15 9 -8 0 -15 6 -15 14
0 10 -17 17 -55 21 -30 4 -55 11 -55 15 0 5 -13 11 -30 15 -16 4 -30 11 -30
16 0 5 -13 9 -29 9 -16 0 -31 5 -33 11 -2 5 -22 13 -46 16 -26 3 -42 11 -42
19 0 8 -16 16 -40 20 -22 4 -40 10 -40 15 0 5 -9 9 -20 9 -11 0 -20 4 -20 9 0
5 -18 11 -40 15 -22 3 -40 11 -40 16 0 6 -13 10 -30 10 -16 0 -30 4 -30 9 0 5
-18 11 -40 15 -24 4 -40 12 -40 20 0 8 -16 16 -42 19 -24 3 -44 11 -46 16 -2
6 -17 11 -33 11 -16 0 -29 4 -29 10 0 5 -18 13 -40 16 -22 4 -40 10 -40 15 0
5 -10 9 -22 9 -39 0 -68 12 -68 26 0 8 -10 14 -25 14 -14 0 -25 4 -25 9 0 6
-20 13 -45 17 -25 3 -45 10 -45 15 0 5 -7 9 -15 9 -8 0 -15 4 -15 9 0 6 -20
13 -45 17 -26 3 -45 12 -45 19 0 7 -18 15 -42 18 -24 3 -44 11 -46 16 -2 6
-14 11 -27 11 -13 0 -25 5 -27 11 -2 5 -22 13 -46 16 -23 3 -42 9 -42 14 0 4
-20 11 -45 15 -25 3 -45 10 -45 15 0 5 -9 9 -20 9 -11 0 -20 7 -20 15 0 10
-16 16 -50 21 -27 4 -50 10 -50 15 0 5 -18 12 -40 15 -22 4 -40 10 -40 15 0 5
-11 9 -25 9 -14 0 -25 4 -25 10 0 5 -22 12 -50 16 -32 4 -50 11 -50 20 0 8 -7
14 -15 14 -8 0 -15 4 -15 10 0 5 -22 12 -50 16 -27 4 -50 10 -50 15 0 5 -18
12 -40 15 -22 4 -40 10 -40 15 0 5 -11 9 -25 9 -14 0 -25 6 -25 14 0 13 -48
26 -102 26 -14 0 -28 4 -30 8 -4 10 -195 19 -320 14z m312 -562 c4 -6 26 -14
49 -17 22 -3 41 -10 41 -14 0 -5 7 -9 15 -9 8 0 15 -4 15 -9 0 -5 20 -12 45
-15 27 -5 45 -12 45 -20 0 -8 17 -16 40 -20 22 -3 40 -11 40 -16 0 -6 13 -10
29 -10 16 0 31 -5 33 -11 2 -5 22 -13 46 -16 23 -3 42 -10 42 -14 0 -5 11 -9
24 -9 13 0 26 -5 28 -11 2 -5 22 -13 46 -16 26 -3 42 -11 42 -19 0 -8 16 -16
40 -20 22 -4 40 -10 40 -15 0 -5 9 -9 20 -9 11 0 20 -4 20 -9 0 -5 18 -11 40
-15 22 -3 40 -10 40 -15 0 -5 25 -12 55 -16 38 -4 55 -11 55 -21 0 -8 9 -14
20 -14 11 0 20 -4 20 -10 0 -5 18 -13 40 -16 22 -4 40 -10 40 -14 0 -4 19 -10
42 -13 24 -3 44 -11 46 -16 2 -6 15 -11 28 -11 14 0 24 -6 24 -14 0 -10 16
-17 45 -22 25 -3 45 -10 45 -15 0 -5 7 -9 15 -9 8 0 15 -4 15 -9 0 -4 19 -11
41 -14 23 -3 45 -10 48 -15 3 -5 27 -12 54 -16 26 -4 47 -11 47 -17 0 -5 9 -9
20 -9 11 0 20 -6 20 -14 0 -9 17 -16 45 -20 25 -4 45 -11 45 -16 0 -4 23 -11
50 -15 28 -4 50 -11 50 -16 0 -5 9 -9 20 -9 11 0 20 -4 20 -9 0 -5 20 -12 45
-15 28 -5 45 -12 45 -21 0 -9 17 -16 45 -21 25 -3 45 -10 45 -15 0 -5 9 -9 20
-9 11 0 20 -4 20 -9 0 -5 20 -12 45 -15 25 -4 45 -11 45 -17 0 -5 11 -9 25 -9
15 0 25 -6 25 -14 0 -14 29 -26 67 -26 12 0 23 -5 25 -11 2 -5 22 -13 46 -16
23 -3 42 -10 42 -14 0 -5 11 -9 24 -9 13 0 26 -5 28 -11 2 -5 22 -13 46 -16
23 -3 42 -10 42 -14 0 -5 7 -9 15 -9 8 0 15 -4 15 -10 0 -5 11 -10 25 -10 14
0 25 -4 25 -10 0 -5 9 -10 20 -10 11 0 20 -4 20 -9 0 -5 18 -11 40 -15 22 -3
40 -11 40 -16 0 -6 14 -10 30 -10 17 0 30 -4 30 -9 0 -5 20 -12 45 -15 27 -5
45 -12 45 -20 0 -8 17 -16 40 -20 22 -3 40 -11 40 -16 0 -6 14 -10 30 -10 17
0 30 -4 30 -10 0 -5 18 -13 40 -16 22 -4 40 -10 40 -15 0 -4 20 -11 45 -15 28
-4 45 -11 45 -20 0 -8 7 -14 15 -14 8 0 15 -4 15 -9 0 -4 19 -11 41 -14 23 -3
45 -10 48 -15 3 -5 25 -13 49 -17 23 -4 42 -11 42 -16 0 -5 5 -9 11 -9 13 0
69 -58 69 -71 0 -5 7 -9 15 -9 8 0 15 -6 15 -14 0 -8 7 -16 15 -20 10 -3 15
-19 15 -46 0 -22 5 -40 10 -40 6 0 10 -22 10 -50 0 -27 -4 -50 -9 -50 -5 0
-11 -18 -15 -41 -7 -41 -25 -69 -45 -69 -6 0 -11 -6 -11 -14 0 -8 -20 -35 -45
-60 -25 -26 -45 -51 -45 -56 0 -6 -5 -10 -11 -10 -13 0 -99 -87 -99 -99 0 -5
-7 -11 -15 -15 -8 -3 -15 -15 -15 -26 0 -11 -7 -20 -15 -20 -9 0 -18 -7 -21
-15 -3 -8 -14 -17 -24 -20 -10 -3 -21 -17 -24 -30 -3 -13 -16 -27 -28 -31 -12
-3 -31 -17 -42 -31 -12 -13 -33 -38 -48 -55 -16 -16 -28 -34 -28 -39 0 -5 -7
-9 -15 -9 -8 0 -15 -6 -15 -14 0 -7 -11 -22 -25 -32 -14 -10 -25 -23 -25 -28
0 -8 -67 -76 -76 -76 -6 0 -44 -39 -44 -45 0 -9 -66 -75 -74 -75 -13 0 -36
-28 -36 -43 0 -17 -64 -87 -80 -87 -6 0 -13 -7 -16 -15 -5 -13 -306 -15 -2625
-15 -1485 0 -2619 4 -2619 9 0 5 -23 11 -52 13 -29 3 -54 11 -56 17 -2 6 -12
11 -23 11 -10 0 -19 4 -19 9 0 5 -16 12 -35 15 -19 4 -35 11 -35 15 0 10 -35
51 -43 51 -11 0 -97 88 -97 99 0 7 -8 15 -17 18 -19 7 -103 90 -103 101 0 4
-10 14 -21 22 -28 20 -90 82 -109 109 -8 11 -18 21 -22 21 -11 0 -98 89 -98
100 0 6 -7 13 -16 17 -21 8 -104 90 -104 103 0 6 -4 10 -10 10 -5 0 -31 23
-58 51 -69 72 -82 85 -124 123 -32 30 -38 42 -44 95 -3 34 -11 61 -15 61 -5 0
-9 11 -9 25 0 14 4 25 9 25 4 0 11 23 14 52 4 28 10 54 15 57 5 3 12 16 16 29
4 12 11 22 16 22 5 0 20 11 34 25 14 14 30 25 36 25 5 0 10 5 10 10 0 6 9 10
20 10 11 0 20 5 20 10 0 6 11 10 25 10 14 0 25 4 25 9 0 6 20 13 45 17 25 3
45 10 45 15 0 4 20 11 45 15 25 3 45 10 45 15 0 5 7 9 15 9 8 0 15 6 15 14 0
8 16 15 41 19 23 3 45 10 48 15 3 5 25 13 49 17 23 4 42 11 42 16 0 5 11 9 25
9 14 0 25 4 25 10 0 5 16 12 35 16 19 3 35 12 35 19 0 9 20 16 55 20 30 4 55
11 55 16 0 5 7 9 15 9 8 0 15 4 15 9 0 5 20 12 45 15 25 4 45 11 45 17 0 5 11
9 25 9 14 0 25 5 25 10 0 6 7 10 15 10 8 0 15 5 15 10 0 6 14 10 30 10 17 0
30 4 30 10 0 5 18 13 40 16 22 4 40 10 40 15 0 5 9 9 20 9 11 0 20 4 20 9 0 5
18 12 40 16 22 4 40 10 40 15 0 4 23 10 50 14 34 5 50 11 50 21 0 8 7 15 15
15 8 0 15 4 15 9 0 5 23 11 50 15 28 4 50 11 50 16 0 6 11 10 25 10 14 0 25 4
25 9 0 5 18 11 40 15 24 4 40 12 40 20 0 8 16 16 42 19 24 3 44 11 46 16 2 6
10 11 18 11 8 0 14 4 14 9 0 4 19 11 41 14 23 3 45 10 48 16 4 5 30 13 59 17
34 4 52 11 52 20 0 8 6 14 14 14 8 0 16 5 18 10 2 6 21 13 43 17 22 3 43 10
46 15 3 5 25 12 48 15 22 3 41 10 41 14 0 5 7 9 15 9 8 0 15 4 15 9 0 5 20 12
45 15 29 5 45 12 45 22 0 8 10 14 24 14 13 0 26 5 28 11 2 5 22 13 46 16 23 3
42 9 42 13 0 5 18 11 40 15 22 4 40 11 40 16 0 5 11 9 25 9 15 0 25 6 25 15 0
10 16 16 50 21 28 4 50 10 50 15 0 4 16 11 35 15 19 3 35 10 35 15 0 5 14 9
30 9 17 0 30 4 30 10 0 5 18 13 40 16 23 4 40 12 40 20 0 8 18 15 45 20 25 3
45 10 45 15 0 5 7 9 15 9 8 0 15 4 15 9 0 4 19 11 42 14 24 3 44 11 46 16 2 6
15 11 28 11 13 0 24 4 24 9 0 6 20 13 45 17 26 3 45 12 45 19 0 13 30 25 68
25 12 0 22 5 22 10 0 6 7 10 15 10 8 0 15 4 15 9 0 4 19 11 41 14 23 3 45 10
48 15 10 16 65 20 230 17 105 -2 156 -6 161 -15z m2460 -3239 c6 -16 18 -32
26 -35 8 -3 14 -15 14 -27 0 -13 14 -34 32 -49 21 -18 29 -32 25 -43 -6 -16
-193 -17 -2740 -17 -2953 0 -2790 -3 -2738 49 12 12 31 42 43 68 12 27 28 56
36 66 14 16 153 17 2652 17 l2638 0 12 -29z m-250 -841 c0 -77 -4 -140 -9
-140 -5 0 -12 -58 -16 -130 -4 -71 -11 -130 -16 -130 -5 0 -9 -20 -9 -45 0
-31 -4 -45 -14 -45 -9 0 -15 -23 -19 -82 -4 -45 -11 -84 -15 -87 -5 -3 -13
-36 -16 -73 -4 -38 -12 -68 -17 -68 -5 0 -9 -16 -9 -35 0 -19 -4 -35 -9 -35
-5 0 -13 -25 -16 -55 -5 -35 -12 -55 -20 -55 -9 0 -16 -20 -20 -55 -4 -30 -11
-55 -16 -55 -5 0 -9 -11 -9 -25 0 -14 -4 -25 -9 -25 -6 0 -13 -20 -17 -45 -3
-25 -10 -45 -15 -45 -5 0 -9 -11 -9 -25 0 -14 -4 -25 -10 -25 -5 0 -10 -7 -10
-15 0 -8 -4 -15 -10 -15 -5 0 -10 -13 -10 -30 0 -16 -4 -30 -9 -30 -5 0 -12
-13 -16 -30 -4 -16 -11 -30 -16 -30 -5 0 -9 -13 -9 -30 0 -16 -4 -30 -9 -30
-5 0 -12 -13 -16 -30 -4 -16 -10 -30 -15 -30 -4 0 -10 -18 -14 -40 -4 -26 -11
-40 -21 -40 -8 0 -15 -5 -15 -11 0 -6 -7 -17 -15 -25 -8 -9 -15 -24 -15 -35 0
-10 -4 -19 -9 -19 -5 0 -12 -13 -16 -30 -4 -16 -11 -30 -16 -30 -5 0 -9 -11
-9 -25 0 -16 -6 -25 -15 -25 -8 0 -15 -7 -15 -15 0 -9 -7 -18 -15 -21 -8 -4
-15 -14 -15 -24 0 -10 -7 -20 -15 -24 -8 -3 -15 -15 -15 -26 0 -11 -4 -20 -10
-20 -5 0 -10 -9 -10 -21 0 -12 -8 -23 -20 -26 -11 -3 -20 -12 -20 -19 0 -8 -4
-14 -10 -14 -5 0 -10 -6 -10 -14 0 -8 -6 -21 -14 -28 -7 -8 -17 -24 -20 -36
-4 -12 -12 -22 -17 -22 -5 0 -9 -6 -9 -14 0 -8 -7 -16 -15 -20 -8 -3 -15 -17
-15 -31 0 -15 -6 -25 -14 -25 -19 0 -76 -57 -76 -76 0 -15 -23 -44 -34 -44 -9
0 -76 -70 -76 -79 0 -5 -6 -12 -12 -14 -10 -4 -9 -8 2 -16 13 -9 13 -11 -2
-11 -10 0 -18 -4 -18 -10 0 -5 -5 -10 -11 -10 -14 0 -79 -65 -79 -79 0 -6 -4
-11 -10 -11 -5 0 -20 -11 -34 -25 -14 -14 -29 -25 -34 -25 -11 0 -52 -35 -52
-45 0 -16 -46 -55 -67 -55 -13 0 -24 -8 -28 -20 -3 -11 -17 -23 -31 -26 -13
-3 -24 -12 -24 -20 0 -8 -7 -14 -15 -14 -9 0 -18 -7 -21 -15 -4 -8 -14 -15
-24 -15 -10 0 -20 -7 -24 -15 -3 -8 -12 -15 -21 -15 -8 0 -15 -4 -15 -10 0 -5
-11 -10 -25 -10 -14 0 -28 -7 -31 -15 -4 -8 -12 -15 -20 -15 -8 0 -14 -6 -14
-14 0 -9 -15 -17 -40 -21 -22 -4 -40 -11 -40 -16 0 -5 -7 -9 -15 -9 -8 0 -15
-4 -15 -10 0 -5 -18 -13 -40 -16 -22 -4 -40 -10 -40 -15 0 -5 -18 -12 -40 -15
-24 -4 -40 -12 -40 -20 0 -9 -11 -14 -29 -14 -16 0 -31 -5 -33 -10 -2 -6 -28
-13 -58 -17 -30 -3 -57 -10 -60 -14 -3 -5 -49 -11 -103 -15 -53 -4 -97 -11
-97 -15 0 -5 -65 -9 -145 -9 -80 0 -145 4 -145 9 0 4 -44 11 -97 15 -54 4
-100 10 -103 15 -3 4 -32 11 -65 15 -33 4 -61 11 -63 16 -2 6 -15 10 -28 10
-14 0 -24 6 -24 14 0 8 -16 16 -40 20 -22 3 -40 10 -40 15 0 5 -18 11 -40 15
-22 3 -40 11 -40 16 0 6 -7 10 -15 10 -8 0 -15 4 -15 9 0 5 -18 12 -40 16 -25
4 -40 12 -40 21 0 8 -7 14 -15 14 -8 0 -15 5 -15 10 0 6 -9 10 -19 10 -11 0
-26 6 -33 14 -8 7 -24 17 -36 20 -12 4 -22 12 -22 17 0 5 -7 9 -15 9 -8 0 -15
4 -15 9 0 5 -9 13 -20 16 -11 3 -20 12 -20 20 0 7 -11 16 -24 19 -14 3 -28 15
-31 26 -4 12 -15 20 -28 20 -21 0 -67 39 -67 55 0 12 -42 45 -57 45 -14 0 -73
55 -73 68 0 4 -16 21 -36 37 -19 17 -41 36 -49 43 -7 6 -20 12 -27 12 -10 0
-9 3 2 11 11 8 12 12 3 16 -7 2 -13 9 -13 14 0 14 -50 59 -66 59 -7 0 -16 9
-19 20 -3 11 -10 20 -14 20 -5 0 -11 13 -14 29 -4 17 -14 32 -26 36 -10 3 -22
12 -25 20 -3 8 -12 15 -21 15 -9 0 -15 9 -15 25 0 14 -7 28 -15 31 -8 4 -15
12 -15 20 0 8 -4 14 -9 14 -5 0 -13 10 -17 22 -3 12 -13 28 -20 36 -8 7 -14
20 -14 28 0 8 -7 14 -15 14 -8 0 -15 6 -15 14 0 8 -7 16 -15 20 -8 3 -15 15
-15 26 0 11 -4 20 -10 20 -5 0 -10 9 -10 19 0 10 -7 21 -15 25 -8 3 -15 15
-15 26 0 11 -4 20 -10 20 -5 0 -10 6 -10 14 0 8 -9 18 -20 21 -13 4 -20 15
-20 31 0 13 -4 24 -9 24 -5 0 -12 12 -15 26 -4 15 -14 33 -21 41 -8 8 -15 23
-15 34 0 10 -4 19 -10 19 -5 0 -10 7 -10 15 0 8 -7 15 -15 15 -10 0 -17 14
-21 40 -4 22 -10 40 -15 40 -5 0 -12 18 -15 40 -4 22 -10 40 -15 40 -5 0 -9 9
-9 20 0 11 -4 20 -10 20 -5 0 -13 18 -16 40 -4 24 -12 40 -20 40 -8 0 -14 9
-14 20 0 11 -4 20 -10 20 -5 0 -13 18 -16 40 -4 22 -10 40 -14 40 -4 0 -11 20
-14 45 -4 25 -11 45 -17 45 -5 0 -9 11 -9 25 0 14 -4 25 -10 25 -5 0 -10 14
-10 30 0 17 -4 30 -10 30 -5 0 -10 11 -10 25 0 14 -4 25 -9 25 -5 0 -12 25
-16 55 -3 30 -11 55 -16 55 -5 0 -9 16 -9 35 0 19 -4 35 -9 35 -6 0 -13 32
-17 70 -3 39 -11 70 -15 70 -5 0 -9 14 -9 30 0 19 -5 30 -14 30 -11 0 -16 24
-21 100 -4 55 -11 100 -15 100 -5 0 -11 59 -15 130 -4 72 -11 130 -16 130 -5
0 -9 63 -9 140 l0 140 2405 0 2405 0 0 -140z m-3656 -3265 c13 -14 31 -25 40
-25 9 0 16 -7 16 -15 0 -8 9 -15 20 -15 11 0 23 -6 26 -14 3 -8 19 -18 35 -21
16 -4 29 -11 29 -16 0 -5 7 -9 15 -9 8 0 15 -4 15 -10 0 -5 16 -12 35 -16 19
-3 35 -12 35 -19 0 -7 16 -16 35 -19 19 -4 35 -11 35 -16 0 -6 7 -10 15 -10 8
0 15 -4 15 -9 0 -5 18 -11 40 -15 22 -3 40 -11 40 -16 0 -6 11 -10 25 -10 14
0 25 -4 25 -10 0 -5 9 -10 20 -10 11 0 20 -4 20 -10 0 -5 11 -10 25 -10 14 0
25 -4 25 -9 0 -5 23 -11 50 -15 28 -4 50 -11 50 -16 0 -6 15 -10 34 -10 19 0
36 -4 38 -10 2 -5 42 -13 91 -16 48 -4 87 -11 87 -15 0 -5 27 -9 60 -9 33 0
60 -4 60 -10 0 -6 72 -10 195 -10 123 0 195 4 195 10 0 6 27 10 60 10 33 0 60
4 60 9 0 4 37 11 82 14 46 4 84 11 86 17 2 5 21 10 43 10 21 0 39 4 39 10 0 5
23 12 50 16 28 4 50 10 50 15 0 5 11 9 25 9 14 0 25 5 25 10 0 6 9 10 20 10
11 0 20 5 20 10 0 6 11 10 25 10 14 0 25 4 25 10 0 5 18 13 40 16 22 4 40 10
40 15 0 5 7 9 15 9 8 0 15 4 15 9 0 5 14 12 30 16 17 4 30 13 30 20 0 8 17 16
40 20 22 4 40 11 40 16 0 5 7 9 15 9 8 0 15 4 15 9 0 5 13 12 29 16 16 3 32
13 35 21 3 8 15 14 26 14 11 0 20 7 20 15 0 8 5 15 10 15 10 0 22 8 55 38 7 6
23 12 34 12 20 0 21 -5 21 -115 0 -63 4 -115 8 -115 10 0 26 -439 17 -462 -5
-12 -27 -18 -76 -23 -38 -4 -69 -11 -69 -15 0 -4 -36 -11 -80 -15 -44 -4 -80
-11 -80 -16 0 -5 -16 -9 -35 -9 -19 0 -35 -4 -35 -10 0 -5 -16 -10 -35 -10
-19 0 -35 -4 -35 -10 0 -5 -20 -10 -45 -10 -25 0 -45 -4 -45 -10 0 -5 -13 -10
-30 -10 -16 0 -30 -4 -30 -9 0 -5 -38 -12 -85 -16 -47 -4 -85 -11 -85 -16 0
-4 -31 -11 -70 -15 -38 -3 -70 -11 -70 -15 0 -5 -20 -9 -45 -9 -32 0 -45 -4
-45 -14 0 -10 -19 -16 -67 -22 -38 -3 -70 -10 -73 -15 -3 -5 -38 -11 -78 -15
-40 -4 -72 -11 -72 -15 0 -5 -25 -9 -55 -9 -30 0 -55 4 -55 9 0 5 -34 12 -75
16 -41 4 -75 11 -75 15 0 4 -31 11 -70 14 -51 5 -70 11 -70 22 0 10 -12 14
-40 14 -22 0 -40 4 -40 9 0 5 -34 12 -75 16 -41 4 -75 11 -75 15 0 4 -31 11
-70 14 -38 4 -70 11 -70 17 0 5 -18 9 -40 9 -22 0 -40 5 -40 10 0 6 -16 10
-35 10 -19 0 -35 5 -35 10 0 6 -18 10 -40 10 -22 0 -40 5 -40 10 0 6 -18 10
-40 10 -22 0 -40 4 -40 9 0 5 -29 13 -65 16 -36 4 -65 11 -65 15 0 4 -34 10
-76 13 -44 4 -81 13 -90 21 -17 17 -21 206 -4 206 6 0 10 47 10 120 0 73 4
120 10 120 6 0 10 48 10 125 0 80 4 125 10 125 6 0 21 -11 34 -25z m-504
-1105 c0 -5 16 -10 35 -10 19 0 35 -4 35 -10 0 -5 16 -10 35 -10 19 0 35 -4
35 -10 0 -5 16 -10 35 -10 19 0 35 -4 35 -9 0 -4 36 -12 80 -15 44 -4 80 -12
80 -17 0 -5 20 -9 45 -9 25 0 45 -4 45 -9 0 -6 32 -13 70 -17 39 -3 70 -11 70
-15 0 -5 16 -9 35 -9 19 0 35 -4 35 -10 0 -5 14 -10 30 -10 17 0 30 -4 30 -10
0 -5 18 -10 39 -10 22 0 41 -4 43 -10 2 -5 36 -12 76 -16 39 -4 72 -10 72 -14
0 -4 32 -11 70 -14 39 -4 70 -11 70 -17 0 -5 18 -9 40 -9 27 0 40 -4 40 -14 0
-10 21 -16 75 -21 41 -4 75 -11 75 -16 0 -5 11 -9 25 -9 20 0 25 -5 25 -25 0
-14 -4 -25 -9 -25 -5 0 -12 -16 -15 -35 -4 -19 -11 -35 -15 -35 -5 0 -12 -20
-15 -45 -4 -25 -11 -45 -17 -45 -5 0 -9 -9 -9 -20 0 -11 -4 -20 -10 -20 -5 0
-10 -9 -10 -20 0 -11 -4 -20 -10 -20 -5 0 -10 -11 -10 -25 0 -14 -4 -25 -9
-25 -5 0 -12 -18 -16 -40 -4 -22 -11 -40 -16 -40 -5 0 -9 -11 -9 -25 0 -14 -4
-25 -9 -25 -6 0 -13 -20 -17 -45 -3 -25 -10 -45 -14 -45 -4 0 -11 -16 -14 -35
-4 -21 -13 -35 -21 -35 -9 0 -15 -10 -15 -25 0 -14 -4 -25 -9 -25 -6 0 -13
-20 -17 -45 -3 -25 -10 -45 -15 -45 -5 0 -9 -7 -9 -15 0 -8 -4 -15 -10 -15 -5
0 -10 -10 -10 -22 0 -38 -12 -68 -25 -68 -13 0 -25 -30 -25 -67 0 -13 -4 -23
-10 -23 -5 0 -10 -7 -10 -15 0 -8 -4 -15 -9 -15 -5 0 -12 -22 -16 -50 -4 -27
-11 -50 -15 -50 -5 0 -12 -20 -16 -45 -4 -28 -11 -45 -20 -45 -8 0 -14 -7 -14
-15 0 -8 -4 -15 -9 -15 -5 0 -11 -18 -15 -40 -3 -22 -11 -40 -16 -40 -6 0 -10
-13 -10 -29 0 -26 -14 -41 -40 -41 -10 0 -55 45 -105 104 -16 19 -34 35 -39
36 -18 1 -56 46 -56 67 0 12 -8 24 -19 28 -11 3 -22 12 -25 20 -3 8 -10 15
-16 15 -14 0 -34 20 -43 43 -3 9 -11 17 -16 17 -5 0 -12 9 -16 19 -3 11 -15
23 -26 26 -10 4 -19 12 -19 18 0 7 -9 19 -20 27 -11 8 -20 18 -20 23 0 12 -84
92 -104 100 -9 4 -16 16 -16 27 0 20 -44 70 -61 70 -5 0 -11 11 -15 25 -3 14
-11 25 -18 25 -6 0 -19 8 -28 18 -9 9 -23 22 -30 29 -23 21 -35 39 -42 61 -4
12 -12 22 -17 22 -12 0 -119 108 -119 120 0 6 -4 10 -8 10 -15 0 -49 34 -56
57 -4 11 -13 24 -21 27 -8 3 -15 12 -15 21 0 8 -4 15 -10 15 -5 0 -10 18 -10
40 0 22 4 40 9 40 5 0 12 25 16 55 3 30 10 55 15 55 4 0 11 32 15 70 4 39 11
70 16 70 5 0 9 14 9 30 0 17 5 30 10 30 6 0 10 9 10 20 0 11 5 20 10 20 6 0
10 18 10 40 0 22 4 40 9 40 5 0 13 26 17 57 6 53 19 82 37 83 4 0 7 -4 7 -10z
m3584 -90 c6 -59 11 -80 22 -80 9 0 14 -11 14 -35 0 -19 4 -35 9 -35 5 0 12
-31 16 -70 4 -38 11 -70 15 -70 4 0 11 -31 15 -70 4 -38 11 -70 16 -70 5 0 9
-16 9 -35 0 -24 5 -35 15 -35 9 0 15 -9 15 -25 0 -16 -6 -25 -15 -25 -8 0 -15
-7 -15 -15 0 -8 -4 -15 -10 -15 -5 0 -10 -7 -10 -15 0 -8 -5 -15 -12 -15 -7 0
-22 -10 -33 -23 -11 -13 -28 -26 -37 -30 -10 -3 -18 -15 -18 -24 0 -10 -9 -25
-20 -33 -11 -8 -20 -20 -20 -27 0 -7 -6 -13 -14 -13 -8 0 -18 -9 -21 -20 -3
-11 -11 -20 -16 -20 -14 0 -39 -26 -39 -39 0 -6 -17 -28 -39 -50 -21 -21 -41
-50 -45 -65 -3 -14 -13 -26 -20 -26 -19 0 -76 -57 -76 -76 0 -8 -4 -14 -10
-14 -5 0 -10 -7 -10 -15 0 -8 -4 -15 -10 -15 -12 0 -80 -68 -80 -80 0 -6 -4
-10 -9 -10 -5 0 -12 -11 -15 -25 -4 -14 -11 -25 -17 -25 -19 0 -79 -67 -79
-88 0 -12 -9 -23 -20 -27 -11 -3 -20 -10 -20 -15 0 -5 -9 -12 -20 -15 -11 -3
-23 -17 -26 -30 -3 -13 -15 -27 -25 -30 -10 -4 -19 -12 -19 -19 0 -16 -42 -66
-56 -66 -5 0 -16 -10 -24 -21 -8 -12 -21 -27 -27 -35 -7 -7 -13 -15 -13 -19 0
-12 -28 -35 -43 -35 -10 0 -17 15 -21 45 -4 25 -11 45 -17 45 -5 0 -9 11 -9
25 0 14 -4 25 -9 25 -5 0 -12 14 -16 30 -4 17 -10 30 -15 30 -4 0 -10 18 -14
40 -4 26 -11 40 -21 40 -10 0 -15 10 -15 30 0 17 -4 30 -9 30 -5 0 -12 12 -16
27 -3 15 -11 31 -17 34 -5 3 -12 25 -15 48 -3 22 -10 41 -14 41 -5 0 -9 7 -9
15 0 8 -4 15 -9 15 -5 0 -12 18 -16 40 -4 25 -12 40 -21 40 -8 0 -14 10 -14
25 0 14 -4 25 -10 25 -5 0 -12 16 -16 35 -3 19 -10 35 -15 35 -5 0 -9 11 -9
24 0 14 -7 31 -15 40 -8 8 -15 24 -15 35 0 12 -6 21 -14 21 -8 0 -17 15 -20
35 -4 19 -11 35 -15 35 -5 0 -11 19 -14 42 -3 24 -11 44 -16 46 -6 2 -11 10
-11 18 0 8 -4 14 -10 14 -5 0 -13 18 -16 40 -4 24 -12 40 -20 40 -8 0 -14 9
-14 20 0 11 -4 20 -9 20 -5 0 -12 18 -16 40 -4 22 -11 40 -15 40 -5 0 -11 14
-15 30 -4 17 -11 30 -16 30 -5 0 -9 14 -9 30 0 17 -4 30 -10 30 -5 0 -10 11
-10 25 0 20 5 25 25 25 14 0 25 4 25 9 0 5 36 12 80 16 58 5 80 11 80 21 0 9
12 14 35 14 19 0 35 4 35 9 0 4 32 12 70 15 39 4 70 11 70 16 0 4 36 11 80 15
44 4 80 11 80 16 0 5 16 9 35 9 19 0 35 5 35 10 0 6 20 10 45 10 25 0 45 5 45
10 0 6 16 10 35 10 19 0 35 4 35 9 0 5 32 12 70 16 39 4 70 11 70 16 0 5 20 9
45 9 25 0 45 4 45 9 0 5 29 12 65 16 36 3 65 11 65 16 0 5 23 9 50 9 28 0 50
5 50 10 0 6 14 10 30 10 17 0 30 5 30 10 0 6 24 10 54 10 l53 0 7 -80z m-1794
-790 c0 -16 4 -30 10 -30 5 0 12 -16 16 -35 3 -19 10 -35 15 -35 5 0 9 -9 9
-20 0 -11 4 -20 9 -20 5 0 11 -18 15 -40 4 -24 12 -40 20 -40 14 0 26 -29 26
-67 0 -13 5 -23 10 -23 6 0 10 -7 10 -15 0 -8 4 -15 10 -15 5 0 13 -18 16 -40
4 -22 10 -40 15 -40 5 0 9 -9 9 -20 0 -11 6 -20 14 -20 9 0 17 -15 21 -40 4
-22 11 -40 15 -40 5 0 11 -13 15 -30 4 -16 11 -30 16 -30 5 0 9 -13 9 -30 0
-16 4 -30 10 -30 5 0 12 -16 16 -35 3 -19 10 -35 15 -35 5 0 9 -11 9 -25 0
-14 5 -25 10 -25 6 0 10 -9 10 -20 0 -11 5 -20 10 -20 6 0 10 -7 10 -15 0 -8
4 -15 10 -15 5 0 12 -16 16 -35 3 -19 10 -35 14 -35 4 0 10 -18 14 -40 3 -22
11 -40 16 -40 6 0 10 -11 10 -25 0 -15 6 -25 15 -25 10 0 17 -14 21 -40 4 -22
10 -40 15 -40 5 0 9 -9 9 -20 0 -11 4 -20 9 -20 5 0 12 -13 16 -30 4 -16 11
-30 16 -30 5 0 9 -10 9 -22 0 -39 12 -68 26 -68 8 0 14 -9 14 -20 0 -11 4 -20
9 -20 6 0 13 -20 17 -45 3 -25 10 -45 14 -45 4 0 11 -11 14 -25 4 -14 11 -25
16 -25 6 0 10 -9 10 -19 0 -12 10 -21 27 -26 15 -3 35 -16 45 -27 13 -15 34
-23 73 -26 30 -2 55 -8 55 -13 0 -5 7 -9 15 -9 8 0 15 4 15 9 0 4 26 11 58 15
41 5 62 12 72 26 8 11 20 20 26 20 6 0 20 12 30 26 10 15 36 44 57 65 20 20
37 42 37 48 0 6 5 11 10 11 6 0 10 6 10 14 0 8 9 17 19 21 11 3 23 15 26 25 3
10 14 22 25 25 10 3 22 19 25 35 4 17 11 30 15 30 18 0 97 86 103 111 4 17 16
29 31 33 14 3 27 15 31 25 3 11 12 22 20 25 8 3 15 17 15 31 0 21 5 25 30 25
20 0 30 -5 30 -15 0 -8 9 -15 20 -15 11 0 20 -4 20 -9 0 -6 20 -13 45 -17 25
-3 45 -10 45 -15 0 -5 7 -9 15 -9 8 0 15 -4 15 -9 0 -5 20 -12 45 -15 25 -4
45 -11 45 -17 0 -5 7 -9 15 -9 8 0 15 -4 15 -10 0 -5 11 -10 25 -10 14 0 25
-4 25 -10 0 -5 9 -10 20 -10 11 0 20 -4 20 -10 0 -5 18 -13 40 -16 22 -4 40
-10 40 -14 0 -5 18 -11 40 -15 22 -4 40 -11 40 -16 0 -5 11 -9 25 -9 15 0 25
-6 25 -14 0 -8 15 -17 35 -20 19 -4 35 -11 35 -15 0 -5 20 -12 45 -15 25 -4
45 -11 45 -17 0 -5 7 -9 15 -9 8 0 15 -4 15 -9 0 -5 20 -12 45 -15 29 -5 45
-12 45 -22 0 -8 9 -14 20 -14 11 0 20 -4 20 -9 0 -6 20 -13 45 -17 25 -3 45
-10 45 -15 0 -5 18 -12 40 -15 22 -4 40 -10 40 -15 0 -5 9 -9 20 -9 11 0 20
-4 20 -10 0 -5 7 -10 15 -10 8 0 15 -4 15 -10 0 -5 11 -10 25 -10 14 0 25 -4
25 -9 0 -5 16 -12 35 -15 19 -4 35 -11 35 -16 0 -6 11 -10 25 -10 14 0 25 -4
25 -9 0 -5 18 -12 40 -16 22 -4 40 -11 40 -16 0 -5 11 -9 25 -9 14 0 25 -4 25
-10 0 -5 9 -10 20 -10 11 0 20 -4 20 -10 0 -5 7 -10 15 -10 8 0 15 -4 15 -9 0
-5 20 -12 45 -15 25 -4 45 -11 45 -17 0 -5 7 -9 15 -9 8 0 15 -4 15 -9 0 -5
20 -12 45 -15 28 -5 45 -12 45 -21 0 -8 16 -16 40 -20 22 -4 40 -11 40 -16 0
-5 11 -9 25 -9 14 0 25 -4 25 -10 0 -5 18 -13 40 -16 22 -4 40 -10 40 -14 0
-4 16 -11 35 -14 21 -4 35 -13 35 -21 0 -9 10 -15 25 -15 14 0 25 -4 25 -9 0
-5 16 -12 35 -15 19 -4 35 -11 35 -16 0 -6 11 -10 25 -10 14 0 25 -4 25 -9 0
-5 18 -11 40 -15 22 -3 40 -11 40 -16 0 -6 11 -10 25 -10 14 0 25 -4 25 -10 0
-5 9 -10 20 -10 11 0 20 -4 20 -10 0 -5 7 -10 15 -10 8 0 15 -4 15 -9 0 -5 20
-12 45 -15 25 -4 45 -11 45 -16 0 -6 18 -13 40 -16 22 -4 40 -10 40 -15 0 -5
9 -9 20 -9 11 0 20 -6 20 -14 0 -9 15 -17 40 -21 22 -4 40 -10 40 -15 0 -4 20
-11 45 -14 25 -4 45 -11 45 -17 0 -5 9 -9 20 -9 11 0 20 -4 20 -9 0 -6 20 -13
45 -17 28 -4 45 -11 45 -20 0 -11 18 -14 75 -14 60 0 75 3 75 15 0 10 10 15
29 15 29 0 61 22 61 41 0 5 8 9 19 9 10 0 21 9 24 20 3 11 12 20 20 20 8 0 18
11 21 25 4 14 11 25 16 25 6 0 10 4 10 10 0 5 14 23 30 40 17 17 30 39 30 49
0 12 9 21 24 25 14 3 28 16 32 29 4 12 14 29 24 37 9 8 19 23 23 33 3 9 13 17
22 17 8 0 15 7 15 15 0 8 14 28 30 43 17 16 30 37 30 46 0 9 4 16 9 16 5 0 12
9 16 19 3 10 17 22 30 25 16 4 25 14 25 26 0 10 11 30 25 44 14 14 25 29 25
34 0 13 47 62 60 62 5 0 10 7 10 15 0 9 16 32 35 52 31 31 38 35 70 29 19 -4
35 -11 35 -15 0 -5 20 -12 45 -15 25 -4 45 -11 45 -17 0 -5 11 -9 25 -9 14 0
25 -4 25 -10 0 -5 7 -10 15 -10 8 0 15 -4 15 -10 0 -5 7 -10 15 -10 8 0 15 -4
15 -9 0 -4 19 -11 42 -14 24 -3 44 -11 46 -16 2 -6 15 -11 28 -11 13 0 24 -4
24 -9 0 -5 18 -12 40 -16 22 -4 40 -11 40 -16 0 -5 11 -9 25 -9 14 0 25 -4 25
-10 0 -5 9 -10 20 -10 11 0 20 -4 20 -10 0 -5 9 -10 20 -10 11 0 20 -4 20 -9
0 -4 16 -11 36 -14 45 -8 74 -40 74 -84 0 -18 4 -33 9 -33 5 0 12 -27 16 -60
5 -41 11 -60 21 -60 9 0 14 -12 14 -35 0 -19 4 -35 9 -35 5 0 12 -27 16 -60 4
-33 11 -60 15 -60 4 0 11 -27 15 -60 4 -33 11 -60 16 -60 5 0 9 -13 9 -30 0
-19 5 -30 14 -30 9 0 16 -19 20 -60 4 -33 11 -60 15 -60 5 0 12 -29 16 -65 3
-36 11 -65 16 -65 5 0 9 -13 9 -30 0 -16 4 -30 9 -30 5 0 12 -27 16 -60 5 -41
11 -60 21 -60 10 0 14 -12 14 -40 0 -22 4 -40 9 -40 5 0 13 -25 16 -55 4 -30
11 -55 15 -55 5 0 12 -29 15 -65 4 -36 11 -65 16 -65 5 0 9 -11 9 -25 0 -14 5
-25 10 -25 6 0 10 -18 10 -40 0 -22 5 -40 10 -40 6 0 10 -11 10 -25 0 -14 4
-25 9 -25 4 0 11 -27 15 -60 4 -33 11 -60 16 -60 6 0 10 -15 10 -34 0 -19 4
-36 10 -38 5 -1 13 -31 16 -65 4 -35 11 -63 15 -63 5 0 9 -9 9 -20 0 -11 6
-20 14 -20 9 0 15 -20 20 -62 3 -34 10 -64 15 -67 4 -3 11 -32 15 -63 4 -32
12 -58 17 -58 5 0 9 -15 9 -34 0 -19 4 -36 10 -38 5 -1 13 -31 16 -65 5 -42
11 -63 20 -63 8 0 15 -21 20 -60 4 -33 11 -60 15 -60 5 0 9 -13 9 -30 0 -16 4
-30 9 -30 5 0 13 -29 16 -65 4 -36 11 -65 15 -65 5 0 11 -27 15 -60 5 -41 11
-60 21 -60 9 0 14 -11 14 -30 0 -16 4 -30 9 -30 5 0 12 -27 16 -60 4 -33 11
-60 16 -60 5 0 9 -16 9 -35 0 -19 4 -35 10 -35 5 0 12 -27 16 -60 4 -33 10
-60 14 -60 5 0 11 -27 15 -60 5 -41 11 -60 21 -60 9 0 14 -11 14 -30 0 -16 4
-30 9 -30 4 0 11 -27 15 -60 4 -33 11 -60 15 -60 5 0 12 -31 16 -70 4 -38 11
-70 16 -70 5 0 9 -11 9 -25 0 -16 6 -25 15 -25 8 0 15 -6 15 -14 0 -7 3 -34 6
-60 l7 -46 -1047 0 -1046 0 0 808 c0 444 -3 824 -6 844 -4 23 -12 38 -20 38
-8 0 -14 9 -14 19 0 11 -7 26 -15 35 -8 8 -15 19 -15 25 0 6 -5 11 -11 11 -6
0 -17 7 -25 15 -9 8 -24 15 -35 15 -10 0 -19 7 -19 15 0 8 -7 15 -15 15 -8 0
-15 5 -15 10 0 6 -33 10 -80 10 -47 0 -80 -4 -80 -10 0 -5 -7 -10 -15 -10 -8
0 -15 -7 -15 -15 0 -8 -9 -15 -20 -15 -25 0 -100 -76 -100 -101 0 -10 -7 -19
-15 -19 -9 0 -15 -9 -15 -25 0 -14 -4 -25 -10 -25 -7 0 -10 -280 -10 -820 l0
-820 -320 0 -320 0 0 630 c0 377 -4 630 -9 630 -5 0 -12 14 -16 30 -4 17 -11
30 -16 30 -5 0 -9 7 -9 15 0 8 -5 15 -11 15 -7 0 -25 14 -41 30 -15 17 -35 30
-42 30 -8 0 -16 6 -18 13 -7 18 -2319 18 -2325 0 -3 -7 -13 -13 -23 -13 -19 0
-90 -63 -90 -80 0 -5 -4 -10 -10 -10 -5 0 -10 -7 -10 -15 0 -8 -4 -15 -10 -15
-5 0 -10 -7 -10 -15 0 -8 -4 -15 -10 -15 -7 0 -10 -217 -10 -630 l0 -630 -470
0 -470 0 0 1753 c0 963 -3 1769 -6 1790 -4 22 -12 37 -20 37 -8 0 -14 5 -14
10 0 18 -71 80 -91 80 -10 0 -19 6 -19 14 0 18 -31 26 -111 26 -85 0 -129 -9
-129 -26 0 -8 -7 -14 -16 -14 -17 0 -84 -64 -84 -81 0 -5 -6 -9 -14 -9 -8 0
-16 -15 -20 -37 -3 -21 -6 -827 -6 -1790 l0 -1753 -2120 0 -2120 0 0 820 c0
540 -3 820 -10 820 -5 0 -10 11 -10 25 0 15 -6 25 -14 25 -7 0 -16 13 -19 29
-4 17 -14 32 -26 36 -11 3 -23 15 -26 26 -4 12 -19 22 -36 26 -16 3 -29 12
-29 19 0 8 -7 14 -15 14 -8 0 -15 5 -15 10 0 6 -33 10 -80 10 -47 0 -80 -4
-80 -10 0 -5 -7 -10 -15 -10 -8 0 -15 -7 -15 -15 0 -8 -9 -15 -19 -15 -11 0
-26 -7 -35 -15 -8 -8 -19 -15 -25 -15 -6 0 -11 -5 -11 -11 0 -6 -7 -17 -15
-25 -8 -9 -15 -24 -15 -35 0 -10 -6 -19 -14 -19 -8 0 -16 -15 -20 -37 -3 -21
-6 -401 -6 -845 l0 -808 -1045 0 c-875 0 -1045 2 -1045 14 0 47 14 106 26 106
9 0 15 21 20 60 4 33 11 60 15 60 5 0 9 16 9 35 0 19 4 35 10 35 5 0 12 27 16
60 4 33 11 60 15 60 5 0 9 14 9 30 0 17 5 30 10 30 6 0 10 14 10 30 0 17 5 30
10 30 6 0 10 14 10 30 0 17 4 30 9 30 4 0 11 27 15 60 4 33 11 60 16 60 6 0
10 16 10 35 0 19 4 35 9 35 5 0 12 27 16 60 4 33 11 60 16 60 5 0 9 14 9 30 0
17 5 30 10 30 6 0 10 14 10 30 0 17 5 30 10 30 6 0 10 14 10 30 0 17 4 30 9
30 5 0 12 29 16 65 3 36 10 65 15 65 5 0 12 29 15 65 4 36 11 65 16 65 5 0 9
11 9 25 0 14 6 25 14 25 9 0 15 20 20 63 3 34 11 63 16 65 6 2 10 19 10 38 0
19 4 34 9 34 5 0 13 26 17 58 4 31 11 60 15 63 5 3 12 33 15 67 5 42 11 62 20
62 8 0 14 9 14 20 0 11 4 20 9 20 4 0 11 28 15 62 3 34 10 64 15 67 4 3 11 32
15 64 4 31 12 57 17 57 5 0 9 16 9 35 0 19 5 35 10 35 6 0 10 11 10 25 0 14 5
25 10 25 6 0 10 18 10 40 0 22 5 40 10 40 6 0 10 11 10 25 0 14 4 25 9 25 5 0
12 29 16 65 3 36 10 65 15 65 4 0 11 25 15 55 3 30 11 55 16 55 5 0 9 18 9 40
0 28 4 40 14 40 10 0 16 19 21 60 4 33 11 60 15 60 4 0 11 27 15 60 4 33 11
60 16 60 5 0 9 16 9 35 0 19 4 35 10 35 5 0 12 27 16 60 4 38 11 60 19 60 8 0
16 22 20 60 4 33 11 60 16 60 5 0 9 14 9 30 0 17 4 30 9 30 5 0 12 27 16 60 4
33 11 60 16 60 5 0 9 16 9 35 0 19 5 35 10 35 6 0 10 14 10 30 0 17 5 30 10
30 6 0 10 14 10 30 0 17 5 30 10 30 6 0 10 15 10 33 0 42 27 75 69 83 17 4 31
10 31 15 0 5 11 9 25 9 14 0 25 5 25 10 0 6 9 10 20 10 11 0 20 5 20 10 0 6
11 10 25 10 14 0 25 4 25 9 0 5 18 12 40 16 22 4 40 11 40 16 0 5 11 9 25 9
14 0 25 4 25 10 0 5 18 13 40 16 22 4 40 10 40 15 0 5 9 9 20 9 11 0 20 5 20
10 0 6 7 10 15 10 8 0 15 5 15 10 0 6 11 10 25 10 14 0 25 4 25 9 0 5 19 12
43 16 23 4 45 12 48 17 10 15 89 23 89 9 0 -7 11 -22 25 -35 14 -13 25 -29 25
-36 0 -13 37 -50 51 -50 4 0 11 -10 15 -22 3 -12 16 -32 28 -44 33 -36 46 -53
46 -60 0 -3 14 -19 30 -34 17 -15 30 -34 30 -40 0 -7 13 -26 30 -42 16 -15 30
-35 30 -43 0 -8 7 -15 15 -15 9 0 19 -8 22 -17 4 -10 15 -25 25 -34 10 -9 18
-21 18 -26 0 -14 47 -63 60 -63 5 0 10 -7 10 -16 0 -8 14 -29 30 -46 17 -16
30 -36 30 -44 0 -8 5 -14 10 -14 6 0 10 -6 10 -14 0 -8 9 -18 20 -21 11 -3 20
-10 20 -15 0 -5 9 -11 19 -15 11 -3 23 -15 26 -26 4 -13 19 -21 46 -25 23 -4
39 -12 39 -20 0 -11 18 -14 75 -14 57 0 75 3 75 14 0 9 17 16 45 20 25 4 45
11 45 17 0 5 11 9 25 9 14 0 25 4 25 10 0 5 16 12 35 16 19 3 35 10 35 14 0 4
20 11 45 14 29 5 45 12 45 22 0 8 9 14 20 14 11 0 20 4 20 9 0 5 18 11 40 15
22 3 40 10 40 16 0 5 20 12 45 16 25 3 45 10 45 15 0 5 7 9 15 9 8 0 15 5 15
10 0 6 9 10 20 10 11 0 20 5 20 10 0 6 11 10 25 10 14 0 25 4 25 10 0 5 18 13
40 16 22 4 40 10 40 15 0 5 9 9 20 9 11 0 20 4 20 9 0 5 18 12 40 16 22 4 40
11 40 16 0 5 11 9 25 9 15 0 25 6 25 15 0 8 14 17 35 21 19 3 35 10 35 14 0 4
18 10 40 14 22 3 40 11 40 16 0 6 9 10 20 10 11 0 20 4 20 9 0 5 20 12 45 15
28 5 45 12 45 21 0 9 17 16 45 21 25 3 45 10 45 15 0 5 7 9 15 9 8 0 15 4 15
9 0 6 20 13 45 17 25 3 45 10 45 15 0 5 7 9 15 9 8 0 15 5 15 10 0 6 9 10 20
10 11 0 20 5 20 10 0 6 11 10 25 10 14 0 25 4 25 10 0 5 18 13 40 16 22 4 40
10 40 15 0 5 9 9 20 9 11 0 20 4 20 9 0 5 18 12 40 16 22 4 40 11 40 16 0 5
11 9 25 9 14 0 25 5 25 10 0 6 7 10 15 10 8 0 15 5 15 10 0 6 9 10 20 10 11 0
20 4 20 9 0 5 18 11 40 15 22 3 40 10 40 15 0 5 19 11 42 14 24 3 44 11 46 16
2 6 12 11 23 11 10 0 19 6 19 14 0 10 16 17 45 22 25 3 45 10 45 15 0 5 7 9
15 9 8 0 15 4 15 9 0 6 20 13 45 17 25 3 45 10 45 15 0 4 16 11 35 15 20 3 35
12 35 20 0 8 10 14 25 14 14 0 25 4 25 10 0 5 18 13 40 16 22 4 40 10 40 14 0
4 18 10 40 14 22 3 40 11 40 16 0 6 14 10 30 10 17 0 30 5 30 10 0 6 7 10 15
10 8 0 15 5 15 10 0 6 7 10 15 10 8 0 15 4 15 9 0 4 19 11 42 14 24 3 44 11
46 16 2 6 10 11 18 11 8 0 14 4 14 9 0 4 19 11 42 14 24 3 44 11 46 16 2 6 12
11 23 11 10 0 19 6 19 14 0 15 51 29 75 20 8 -4 15 -12 15 -19 0 -13 44 -65
56 -65 10 0 94 -90 94 -102 0 -11 20 -30 59 -58 12 -8 21 -19 21 -24 0 -9 65
-76 75 -76 11 0 45 -41 45 -55 0 -15 64 -85 78 -85 4 0 14 -9 22 -21 47 -66
76 -87 133 -94 32 -4 57 -11 57 -16 0 -5 14 -9 30 -9 17 0 30 4 30 9 0 4 24
11 52 14 29 4 54 11 56 17 2 5 8 10 13 10 15 0 49 33 49 48 0 16 24 42 39 42
6 0 14 18 17 40 4 22 10 40 14 40 5 0 11 18 15 40 4 22 11 40 16 40 5 0 9 9 9
20 0 11 4 20 9 20 5 0 12 20 15 45 4 25 11 45 17 45 5 0 9 9 9 20 0 11 5 20
10 20 6 0 10 9 10 20 0 11 5 20 10 20 6 0 10 11 10 24 0 13 5 26 10 28 6 2 13
21 17 43 3 22 10 43 15 46 5 3 12 25 15 48 3 22 10 41 14 41 5 0 9 7 9 15 0 8
6 15 14 15 9 0 16 17 20 45 4 25 11 45 17 45 5 0 9 7 9 15 0 8 4 15 9 15 5 0
11 18 15 40 3 22 11 40 16 40 6 0 10 10 10 23 0 38 12 67 26 67 9 0 14 11 14
30 0 17 4 30 9 30 5 0 12 16 15 35 4 19 11 35 15 35 5 0 11 23 15 50 4 28 11
50 16 50 6 0 10 9 10 20 0 11 5 20 10 20 6 0 10 9 10 20 0 11 5 20 10 20 6 0
10 11 10 25 0 14 5 25 10 25 6 0 10 7 10 15 0 8 4 15 9 15 4 0 11 19 14 41 3
23 10 45 17 49 6 4 14 24 17 46 7 44 21 63 46 64 12 0 17 -8 17 -30z m-2344
-138 c6 -4 14 -17 18 -29 4 -12 15 -25 26 -28 10 -3 21 -17 24 -30 4 -14 11
-25 16 -25 6 0 10 -7 10 -15 0 -8 4 -15 9 -15 13 0 111 -98 111 -110 0 -6 5
-10 10 -10 10 0 50 -36 50 -45 0 -7 19 -31 43 -53 9 -9 17 -22 17 -29 0 -7 5
-13 11 -13 13 0 39 -25 39 -38 0 -5 -19 -12 -42 -15 -24 -3 -44 -11 -46 -16
-2 -6 -15 -11 -28 -11 -14 0 -24 -6 -24 -14 0 -8 -16 -16 -40 -20 -22 -3 -40
-10 -40 -15 0 -5 -20 -12 -45 -15 -25 -4 -45 -11 -45 -17 0 -5 -7 -9 -15 -9
-8 0 -15 -4 -15 -9 0 -5 -20 -12 -45 -15 -25 -4 -45 -11 -45 -17 0 -5 -7 -9
-15 -9 -8 0 -15 -4 -15 -10 0 -5 -9 -10 -20 -10 -11 0 -20 -4 -20 -10 0 -5
-11 -10 -25 -10 -14 0 -25 -4 -25 -9 0 -5 -18 -12 -40 -16 -22 -4 -40 -11 -40
-16 0 -5 -11 -9 -25 -9 -14 0 -25 -4 -25 -10 0 -5 -18 -13 -40 -16 -22 -4 -40
-12 -40 -19 0 -7 -16 -16 -35 -19 -19 -4 -35 -11 -35 -16 0 -6 -11 -10 -25
-10 -14 0 -25 -4 -25 -9 0 -5 -18 -12 -40 -16 -22 -4 -40 -11 -40 -15 0 -5
-20 -12 -45 -16 -28 -4 -45 -11 -45 -20 0 -8 -7 -14 -15 -14 -8 0 -15 -4 -15
-9 0 -5 -20 -12 -45 -15 -25 -4 -45 -11 -45 -17 0 -5 -7 -9 -15 -9 -8 0 -15
-4 -15 -9 0 -5 -20 -12 -45 -15 -25 -4 -45 -11 -45 -17 0 -5 -11 -9 -25 -9
-14 0 -25 -4 -25 -10 0 -5 -7 -10 -15 -10 -8 0 -15 -4 -15 -10 0 -5 -9 -10
-20 -10 -11 0 -20 -4 -20 -9 0 -5 -16 -12 -35 -15 -19 -4 -35 -11 -35 -15 0
-5 -19 -11 -42 -14 -24 -3 -44 -11 -46 -16 -2 -6 -15 -11 -28 -11 -15 0 -24
-6 -24 -15 0 -8 -6 -15 -14 -15 -8 0 -21 -3 -30 -6 -10 -4 -18 1 -23 12 -8 22
-58 74 -70 74 -4 0 -22 16 -38 35 -54 64 -74 85 -80 85 -10 0 -65 57 -65 68 0
5 -12 18 -26 28 -39 29 -94 82 -94 93 0 5 -7 11 -15 15 -27 10 -18 44 15 51
17 4 30 11 30 16 0 5 14 9 30 9 17 0 30 5 30 10 0 6 7 10 15 10 8 0 15 5 15
10 0 6 11 10 25 10 14 0 25 4 25 9 0 5 16 12 35 15 19 4 35 11 35 16 0 6 11
10 25 10 14 0 25 4 25 9 0 5 18 11 40 15 22 3 40 10 40 15 0 5 20 12 45 15 29
5 45 12 45 22 0 8 10 14 24 14 13 0 26 5 28 11 2 5 22 13 46 16 23 3 42 9 42
14 0 4 14 10 30 14 17 4 30 11 30 16 0 5 14 9 30 9 19 0 30 5 30 14 0 8 14 17
30 21 17 4 30 11 30 16 0 5 14 9 30 9 17 0 30 4 30 9 0 6 20 13 45 17 25 3 45
10 45 14 0 5 18 11 40 15 22 4 40 11 40 16 0 5 11 9 25 9 15 0 25 6 25 15 0
10 14 17 40 21 22 4 40 10 40 14 0 4 16 11 35 14 19 4 35 11 35 16 0 6 11 10
25 10 14 0 25 4 25 9 0 6 20 13 45 17 28 4 45 11 45 20 0 8 7 14 15 14 8 0 15
4 15 9 0 5 20 12 45 15 25 4 45 11 45 16 0 5 20 12 45 16 25 3 45 10 45 15 0
5 9 9 20 9 11 0 20 6 20 14 0 20 54 33 76 18z m4672 2 c12 -4 22 -13 22 -20 0
-8 7 -14 15 -14 8 0 15 -4 15 -9 0 -5 23 -11 50 -15 28 -4 50 -11 50 -16 0 -5
20 -12 45 -16 25 -3 45 -10 45 -15 0 -5 7 -9 15 -9 8 0 15 -6 15 -14 0 -9 17
-16 45 -20 25 -4 45 -11 45 -17 0 -5 11 -9 25 -9 14 0 25 -4 25 -10 0 -5 16
-12 35 -16 19 -3 35 -10 35 -14 0 -4 18 -10 40 -14 26 -4 40 -11 40 -21 0 -8
9 -15 20 -15 11 0 20 -4 20 -9 0 -5 20 -12 45 -15 25 -4 45 -11 45 -15 0 -5
20 -12 45 -15 25 -4 45 -11 45 -17 0 -5 9 -9 20 -9 11 0 20 -4 20 -9 0 -5 18
-11 40 -15 26 -4 40 -11 40 -21 0 -10 10 -15 30 -15 17 0 30 -4 30 -9 0 -5 14
-12 30 -16 17 -4 30 -10 30 -15 0 -4 20 -11 45 -14 25 -4 45 -11 45 -17 0 -5
11 -9 25 -9 15 0 25 -6 25 -14 0 -14 29 -26 68 -26 12 0 22 -4 22 -10 0 -5 18
-13 40 -16 22 -4 40 -10 40 -15 0 -5 9 -9 20 -9 11 0 20 -4 20 -9 0 -5 18 -12
40 -16 22 -4 40 -11 40 -16 0 -5 11 -9 25 -9 14 0 25 -4 25 -10 0 -5 7 -10 15
-10 8 0 15 -4 15 -10 0 -5 16 -10 35 -10 31 0 35 -3 35 -25 0 -18 -5 -25 -20
-25 -15 0 -22 -9 -26 -30 -4 -18 -13 -30 -23 -30 -9 0 -32 -18 -51 -40 -19
-22 -41 -40 -48 -40 -7 0 -15 -7 -19 -16 -8 -20 -88 -104 -100 -104 -5 0 -15
-10 -23 -21 -27 -39 -77 -89 -89 -89 -6 0 -14 -7 -17 -15 -7 -17 -51 -20 -56
-4 -2 5 -22 13 -46 16 -23 3 -42 9 -42 14 0 4 -16 11 -35 15 -19 3 -35 10 -35
15 0 5 -11 9 -25 9 -14 0 -25 5 -25 10 0 6 -9 10 -20 10 -11 0 -20 5 -20 10 0
6 -7 10 -15 10 -8 0 -15 4 -15 9 0 6 -20 13 -45 17 -25 3 -45 10 -45 15 0 5
-7 9 -15 9 -8 0 -15 4 -15 9 0 6 -20 13 -45 17 -25 3 -45 10 -45 15 0 5 -9 9
-20 9 -11 0 -20 6 -20 14 0 10 -16 17 -45 22 -25 3 -45 10 -45 15 0 4 -16 11
-35 15 -19 3 -35 10 -35 15 0 5 -11 9 -24 9 -13 0 -26 5 -28 11 -2 5 -22 13
-46 16 -25 3 -42 11 -42 19 0 7 -13 15 -30 19 -16 4 -30 11 -30 16 0 5 -11 9
-25 9 -14 0 -25 4 -25 9 0 5 -18 12 -40 16 -22 4 -40 11 -40 16 0 5 -13 9 -30
9 -16 0 -30 5 -30 10 0 6 -7 10 -15 10 -8 0 -15 5 -15 10 0 6 -7 10 -15 10 -8
0 -15 4 -15 9 0 6 -20 13 -45 17 -25 3 -45 10 -45 15 0 5 -7 9 -15 9 -8 0 -15
4 -15 9 0 6 -20 13 -45 17 -25 3 -45 10 -45 14 0 5 -18 11 -40 15 -25 4 -40
12 -40 21 0 8 -10 14 -25 14 -14 0 -25 4 -25 9 0 5 -9 11 -21 14 -18 5 -19 10
-13 44 4 21 10 40 14 43 4 3 10 15 14 28 4 12 15 22 24 22 18 0 52 33 52 50 0
6 5 10 10 10 6 0 10 6 10 14 0 8 9 18 20 21 11 3 20 13 20 21 0 8 6 14 13 14
7 0 21 11 31 25 10 14 25 25 32 25 8 0 14 10 14 23 0 13 16 36 40 57 22 19 40
43 40 53 0 18 11 21 48 11z m2220 -935 c2 -5 10 -9 18 -9 8 0 14 -4 14 -9 0
-4 19 -11 42 -14 24 -3 44 -11 46 -16 2 -6 10 -11 18 -11 8 0 14 -4 14 -10 0
-5 11 -10 25 -10 14 0 25 -4 25 -10 0 -5 7 -10 16 -10 8 0 22 -6 30 -14 16
-17 19 -46 4 -46 -5 0 -10 -11 -10 -25 0 -18 -5 -25 -20 -25 -11 0 -20 -7 -20
-15 0 -9 -7 -18 -15 -21 -8 -4 -15 -14 -15 -24 0 -10 -7 -20 -15 -24 -8 -3
-15 -12 -15 -21 0 -8 -4 -15 -10 -15 -5 0 -12 -11 -16 -24 -4 -17 -14 -26 -32
-28 -19 -2 -28 -10 -30 -25 -2 -13 -8 -23 -13 -23 -5 0 -9 -9 -9 -20 0 -11 -7
-20 -15 -20 -8 0 -15 -7 -15 -15 0 -8 -4 -15 -10 -15 -5 0 -10 -7 -10 -15 0
-8 -7 -15 -16 -15 -20 0 -44 -24 -44 -44 0 -11 -9 -16 -30 -16 -16 0 -30 5
-30 10 0 6 -13 10 -30 10 -16 0 -30 5 -30 10 0 6 -6 10 -14 10 -8 0 -16 5 -18
11 -2 5 -22 13 -46 16 -23 3 -42 10 -42 14 0 5 -7 9 -15 9 -8 0 -15 4 -15 9 0
5 -18 12 -40 16 -22 4 -40 11 -40 16 0 5 -11 9 -25 9 -14 0 -25 5 -25 10 0 6
-7 10 -15 10 -18 0 -20 37 -2 54 7 8 23 17 35 20 12 4 25 18 28 32 3 13 12 24
20 24 8 0 14 7 14 15 0 8 7 15 15 15 8 0 15 5 15 11 0 13 20 33 43 42 9 3 17
13 17 22 0 8 7 15 15 15 8 0 15 5 15 11 0 13 25 39 38 39 5 0 13 11 16 25 4
16 13 25 26 25 13 0 22 9 26 25 4 18 13 25 30 25 17 0 24 6 24 18 0 10 3 22 7
26 10 10 107 -4 111 -15z m-9138 -19 c0 -5 11 -10 24 -10 17 0 26 -7 30 -25 4
-14 13 -25 21 -25 8 0 15 -9 15 -20 0 -11 4 -20 8 -20 5 0 19 -9 32 -20 13
-11 29 -20 37 -20 7 0 13 -11 13 -25 0 -18 7 -26 25 -31 14 -3 25 -11 25 -16
0 -15 60 -68 76 -68 8 0 14 -10 14 -25 0 -18 7 -26 25 -31 14 -3 25 -12 25
-20 0 -8 6 -14 14 -14 16 0 26 -21 26 -55 0 -19 -7 -24 -47 -30 -26 -4 -54
-15 -63 -24 -8 -10 -33 -21 -55 -24 -22 -4 -41 -11 -43 -17 -2 -5 -10 -10 -18
-10 -8 0 -14 -4 -14 -10 0 -5 -9 -10 -20 -10 -11 0 -20 -4 -20 -10 0 -5 -18
-10 -40 -10 -33 0 -40 3 -40 20 0 15 -7 20 -25 20 -20 0 -25 6 -31 35 -4 21
-13 37 -25 40 -10 3 -21 15 -24 26 -4 10 -10 19 -15 19 -5 0 -10 10 -12 23 -2
16 -11 23 -30 25 -24 3 -29 9 -34 43 -4 23 -12 39 -20 39 -8 0 -14 5 -14 11 0
13 -38 49 -52 49 -4 0 -8 7 -8 15 0 8 -4 15 -10 15 -5 0 -10 7 -10 15 0 8 -4
15 -9 15 -14 0 -23 37 -16 60 3 11 15 20 26 20 10 0 19 5 19 10 0 6 14 10 30
10 17 0 30 5 30 10 0 6 6 10 14 10 8 0 16 5 18 11 2 5 22 13 46 16 23 3 42 10
42 14 0 5 14 9 30 9 17 0 30 -4 30 -10z m7888 -3902 l2 -448 -790 0 -790 0 0
450 0 450 788 -2 787 -3 3 -447z"/>
<path d="M6760 14460 c0 -5 -7 -10 -15 -10 -8 0 -15 -7 -15 -15 0 -8 -9 -15
-19 -15 -21 0 -91 -60 -91 -78 0 -6 -6 -12 -12 -14 -10 -4 -13 -37 -13 -123 0
-86 3 -119 13 -122 6 -3 12 -12 12 -20 0 -22 67 -83 91 -83 10 0 19 -4 19 -10
0 -5 7 -10 15 -10 8 0 15 -4 15 -10 0 -6 80 -10 220 -10 213 0 220 -1 220 -20
0 -11 4 -20 9 -20 5 0 12 -12 16 -27 3 -15 14 -34 24 -42 10 -9 22 -31 25 -49
4 -17 14 -32 21 -32 12 0 25 -21 25 -41 0 -5 -115 -9 -275 -9 -228 0 -275 -2
-275 -14 0 -8 -15 -17 -36 -21 -39 -7 -114 -72 -114 -98 0 -9 -6 -17 -12 -20
-10 -3 -13 -36 -13 -122 0 -86 3 -119 13 -123 6 -2 12 -8 12 -14 0 -18 70 -78
91 -78 10 0 19 -7 19 -15 0 -8 7 -15 15 -15 8 0 15 -4 15 -10 0 -7 150 -10
429 -10 236 0 436 -3 445 -6 9 -3 16 -12 16 -20 0 -8 7 -14 15 -14 8 0 15 -9
15 -19 0 -11 7 -26 15 -35 8 -8 15 -22 15 -30 0 -9 4 -16 9 -16 5 0 12 -13 16
-30 4 -16 10 -30 15 -30 5 0 11 -13 15 -30 4 -16 13 -30 21 -30 8 0 14 -7 14
-15 0 -8 4 -15 10 -15 5 0 13 -12 16 -27 8 -32 34 -63 52 -63 7 0 20 -7 28
-15 9 -8 31 -15 50 -15 19 0 34 -4 34 -10 0 -6 27 -10 60 -10 33 0 60 4 60 9
0 4 18 11 40 14 39 5 100 52 100 76 0 6 6 11 14 11 8 0 17 14 21 30 4 17 10
30 15 30 5 0 11 14 15 30 4 17 11 30 16 30 5 0 9 7 9 15 0 8 4 15 10 15 5 0
12 16 16 35 3 19 10 35 15 35 5 0 9 8 9 18 0 10 9 24 20 32 11 8 20 20 20 26
0 7 7 15 16 18 9 3 202 6 430 6 269 0 414 3 414 10 0 6 7 10 15 10 8 0 15 7
15 15 0 8 9 15 20 15 11 0 23 7 26 15 4 8 11 15 18 15 13 0 46 35 46 49 0 5 6
11 13 13 9 4 12 37 12 123 0 86 -3 119 -12 122 -7 3 -13 11 -13 19 0 18 -31
54 -47 54 -6 0 -14 9 -18 19 -4 14 -19 22 -51 27 -28 4 -44 11 -44 20 0 12
-46 14 -265 14 -229 0 -265 2 -265 15 0 8 6 15 14 15 8 0 17 14 21 30 4 17 11
30 16 30 5 0 9 11 9 24 0 13 7 26 15 30 8 3 15 12 15 21 0 8 4 15 9 15 5 0 11
14 15 30 l6 30 215 0 c137 0 215 4 215 10 0 6 7 10 15 10 8 0 15 5 15 10 0 6
9 10 20 10 11 0 23 7 26 15 4 8 11 15 18 15 15 0 46 36 46 54 0 8 6 16 13 19
9 3 12 36 12 122 0 86 -3 119 -12 123 -7 2 -13 8 -13 13 0 14 -33 49 -46 49
-7 0 -14 7 -18 15 -3 8 -15 15 -26 15 -11 0 -20 7 -20 15 0 8 -7 15 -15 15 -8
0 -15 5 -15 10 0 7 -428 10 -1265 10 -837 0 -1265 -3 -1265 -10z m1490 -540
c0 -11 -4 -20 -10 -20 -5 0 -12 -11 -16 -25 -3 -14 -10 -25 -15 -25 -5 0 -9
-7 -9 -15 0 -8 -4 -15 -9 -15 -5 0 -12 -16 -15 -35 -4 -21 -13 -35 -21 -35 -8
0 -17 -11 -21 -25 -3 -14 -10 -25 -15 -25 -5 0 -9 -9 -9 -20 0 -11 -4 -20 -9
-20 -5 0 -12 -16 -15 -35 -4 -19 -11 -35 -16 -35 -6 0 -10 -9 -10 -20 0 -44
-51 -17 -64 34 -4 16 -14 35 -21 43 -8 8 -15 23 -15 34 0 10 -4 19 -10 19 -5
0 -10 7 -10 15 0 8 -4 15 -10 15 -5 0 -10 6 -10 13 0 7 -9 19 -20 27 -11 8
-20 22 -20 32 0 10 -4 18 -10 18 -5 0 -10 6 -10 14 0 8 -7 21 -15 30 -8 8 -18
29 -21 45 l-6 31 216 0 c209 0 216 -1 216 -20z"/>
<path d="M9430 3120 c0 -5 -16 -12 -35 -16 -19 -3 -35 -10 -35 -15 0 -5 -9 -9
-19 -9 -11 0 -23 -9 -26 -20 -3 -11 -11 -20 -16 -20 -5 0 -9 -6 -9 -13 0 -7
-9 -19 -20 -27 -12 -8 -20 -26 -20 -42 0 -15 -4 -28 -10 -28 -6 0 -10 -32 -10
-75 0 -43 4 -75 10 -75 6 0 10 -7 10 -15 0 -8 5 -15 10 -15 6 0 10 -7 10 -15
0 -9 23 -39 50 -66 45 -45 56 -51 105 -56 30 -3 55 -10 55 -14 0 -5 484 -9
1080 -9 596 0 1080 4 1080 9 0 4 25 11 55 14 46 5 61 11 90 41 19 20 37 36 41
36 13 0 32 28 39 58 3 18 11 32 16 32 5 0 9 34 9 75 0 43 -4 75 -10 75 -5 0
-10 13 -10 29 0 16 -7 36 -15 45 -8 8 -15 19 -15 25 0 6 -6 11 -14 11 -8 0
-18 9 -21 20 -3 11 -15 20 -25 20 -10 0 -20 7 -24 15 -3 9 -18 15 -36 15 -16
0 -30 5 -30 10 0 7 -383 10 -1130 10 -711 0 -1130 -4 -1130 -10z"/>
</g>
</svg>
