<?xml version="1.0" standalone="no"?>
<!DOCTYPE svg PUBLIC "-//W3C//DTD SVG 20010904//EN"
 "http://www.w3.org/TR/2001/REC-SVG-20010904/DTD/svg10.dtd">
<svg version="1.0" xmlns="http://www.w3.org/2000/svg"
 width="1600.000000pt" height="1600.000000pt" viewBox="0 0 1600.000000 1600.000000"
 preserveAspectRatio="xMidYMid meet">

<g transform="translate(0.000000,1600.000000) scale(0.100000,-0.100000)"
fill="#000000" stroke="none">
<path d="M7740 13694 c-296 -53 -388 -75 -478 -116 -114 -52 -130 -58 -140
-58 -5 0 -58 -29 -117 -65 -60 -36 -112 -65 -115 -65 -4 0 -27 -17 -51 -38
-24 -21 -60 -48 -80 -60 -47 -28 -263 -253 -304 -317 -18 -27 -41 -59 -52 -70
-10 -11 -39 -56 -65 -100 -25 -44 -57 -98 -71 -120 -13 -22 -39 -83 -58 -135
-18 -52 -38 -104 -45 -115 -39 -64 -89 -309 -105 -524 -21 -266 22 -603 102
-793 17 -40 37 -93 45 -117 19 -61 58 -140 88 -180 14 -19 26 -40 26 -47 0
-13 71 -121 134 -202 87 -113 279 -298 391 -378 150 -106 308 -192 405 -220
63 -18 132 -42 152 -54 28 -16 184 -48 290 -59 220 -25 517 -7 678 40 150 43
320 107 385 144 39 22 87 47 107 56 20 10 59 35 87 56 27 21 71 54 98 73 51
37 108 87 183 160 55 55 194 220 211 252 7 13 24 39 39 58 43 54 155 286 185
380 15 47 31 90 35 95 35 47 89 392 89 575 1 114 -22 354 -43 464 -9 43 -30
115 -47 160 -17 44 -40 108 -50 141 -11 33 -32 85 -48 115 -16 30 -39 75 -52
100 -34 68 -165 258 -221 320 -112 122 -196 203 -248 240 -31 21 -62 45 -70
55 -7 9 -51 39 -98 66 -46 27 -96 58 -110 69 -15 11 -67 36 -117 55 -49 20
-101 42 -115 49 -40 21 -154 53 -295 82 -109 22 -161 27 -320 29 -104 2 -201
1 -215 -1z"/>
<path d="M3070 13429 c-176 -15 -354 -59 -404 -97 -6 -5 -33 -17 -61 -26 -48
-16 -89 -37 -190 -101 -43 -27 -101 -75 -196 -161 -54 -50 -146 -158 -170
-201 -13 -21 -30 -47 -39 -58 -23 -27 -67 -107 -90 -164 -10 -25 -32 -80 -50
-121 -35 -83 -41 -107 -71 -290 -26 -154 -22 -345 10 -525 23 -130 46 -204 93
-305 93 -200 173 -315 317 -457 64 -63 134 -124 156 -135 22 -11 51 -31 65
-44 14 -12 66 -41 115 -64 50 -23 101 -47 115 -55 37 -20 134 -50 230 -71 120
-26 446 -27 575 -1 106 22 182 46 252 81 28 15 56 26 62 26 15 0 121 58 146
79 11 10 38 28 60 41 45 27 168 129 203 169 122 139 178 218 233 331 110 228
113 234 145 420 34 199 39 272 25 386 -29 242 -62 380 -111 474 -10 19 -33 69
-52 110 -18 41 -46 93 -63 115 -16 22 -42 58 -58 80 -77 112 -243 277 -318
315 -20 11 -49 30 -65 43 -41 33 -114 72 -173 92 -28 9 -53 20 -56 25 -15 25
-224 74 -360 84 -163 13 -182 13 -275 5z"/>
<path d="M12723 13414 c-137 -22 -391 -117 -463 -173 -19 -15 -46 -34 -60 -41
-81 -42 -255 -208 -346 -331 -83 -111 -179 -298 -210 -408 -13 -47 -30 -108
-38 -136 -72 -243 -60 -495 39 -840 25 -84 135 -295 199 -379 103 -137 265
-294 346 -336 14 -7 41 -25 60 -40 39 -31 263 -133 325 -149 162 -41 202 -45
405 -45 231 1 348 19 483 76 39 16 97 40 128 53 177 71 454 318 563 503 21 37
51 85 66 107 15 22 42 83 60 135 18 52 44 127 58 165 67 191 69 585 3 805 -35
118 -98 274 -132 327 -19 29 -54 85 -79 124 -67 107 -256 290 -392 382 -62 41
-126 79 -143 82 -16 4 -39 13 -50 19 -53 32 -179 76 -265 91 -132 24 -435 29
-557 9z"/>
<path d="M3093 10195 c-43 -30 -108 -75 -145 -100 -86 -57 -104 -82 -86 -123
11 -26 185 -219 296 -329 50 -50 69 -46 120 27 17 25 77 92 132 150 124 128
130 136 130 176 0 36 -7 43 -149 144 -50 36 -105 75 -122 88 -52 36 -87 29
-176 -33z"/>
<path d="M12853 10172 c-56 -42 -123 -92 -148 -110 -35 -25 -45 -39 -44 -60 1
-44 8 -54 129 -182 63 -68 128 -143 145 -168 16 -25 36 -48 43 -50 11 -3 290
270 343 337 26 33 25 83 -3 108 -13 11 -48 37 -78 57 -30 20 -90 61 -134 91
-110 77 -123 76 -253 -23z"/>
<path d="M2116 10225 c-22 -8 -91 -24 -155 -35 -64 -12 -138 -25 -166 -30 -52
-9 -147 -40 -181 -58 -10 -6 -62 -25 -114 -42 -52 -18 -102 -38 -110 -45 -8
-7 -60 -36 -115 -64 -183 -94 -366 -237 -512 -400 -47 -53 -97 -114 -110 -136
-14 -22 -37 -58 -52 -80 -16 -22 -45 -78 -65 -125 -20 -47 -43 -96 -51 -110
-13 -26 -36 -111 -57 -215 -8 -44 -12 -483 -15 -1669 -3 -1445 -2 -1614 12
-1663 13 -44 29 -67 83 -121 37 -37 85 -76 107 -87 22 -11 58 -32 80 -46 22
-14 56 -32 75 -39 19 -6 71 -25 115 -41 166 -61 196 -69 440 -118 388 -77 545
-93 1295 -132 118 -6 433 -11 700 -10 542 1 515 -3 553 73 15 30 16 47 8 129
-5 53 -8 579 -7 1214 3 986 5 1132 20 1224 9 57 18 106 20 110 2 3 22 76 45
162 22 86 58 194 79 240 22 46 51 110 65 141 14 31 44 84 66 117 23 33 45 70
50 83 5 13 27 45 50 73 22 27 41 53 41 57 0 15 199 244 276 319 103 98 266
236 329 278 28 19 64 45 80 58 38 31 222 146 284 177 25 12 78 39 116 58 39
19 81 39 95 43 66 20 77 65 28 121 -38 43 -201 175 -243 197 -17 8 -39 25 -50
37 -11 13 -64 44 -118 71 -53 26 -113 57 -132 69 -20 12 -79 38 -133 57 -53
20 -126 46 -161 59 -35 12 -102 30 -150 39 -126 24 -176 34 -270 57 -78 18
-116 19 -174 2 -23 -7 -67 -98 -67 -137 0 -38 -36 -242 -60 -342 -10 -44 -32
-161 -49 -260 -16 -99 -43 -247 -60 -330 -16 -82 -42 -224 -56 -315 -15 -91
-39 -214 -55 -275 -15 -60 -35 -159 -45 -220 -38 -248 -57 -356 -84 -470 -16
-66 -36 -172 -46 -235 -21 -148 -32 -206 -55 -305 -32 -135 -57 -265 -74 -385
-9 -63 -33 -189 -52 -280 -42 -203 -59 -304 -79 -485 -19 -170 -29 -210 -60
-241 -26 -26 -70 -31 -95 -11 -43 35 -55 78 -90 322 -24 162 -52 316 -80 430
-11 45 -29 135 -41 200 -11 66 -24 143 -29 170 -12 67 -37 171 -43 182 -6 10
-15 58 -47 258 -11 66 -33 174 -50 240 -17 65 -44 200 -60 299 -17 99 -48 255
-70 346 -21 91 -48 224 -60 295 -12 72 -33 174 -46 228 -13 54 -31 140 -39
190 -33 193 -57 315 -81 407 -13 52 -31 136 -39 185 -8 50 -22 124 -30 165 -8
41 -22 117 -31 169 -18 102 -42 167 -72 195 -27 24 -80 28 -126 11z"/>
<path d="M11895 10219 c-44 -10 -107 -23 -140 -28 -148 -25 -264 -55 -353 -91
-54 -22 -102 -40 -109 -40 -21 0 -283 -138 -355 -188 -38 -26 -80 -54 -92 -62
-37 -25 -146 -120 -228 -201 -75 -73 -78 -77 -78 -122 l0 -47 68 -34 c62 -32
180 -110 298 -196 154 -113 413 -381 523 -544 93 -136 121 -181 121 -191 0 -5
17 -35 38 -66 21 -30 53 -93 71 -140 18 -46 37 -89 41 -94 26 -32 72 -195 137
-481 l27 -119 3 -1259 c1 -692 5 -1267 8 -1277 13 -40 42 -46 285 -58 636 -32
1040 -32 1635 -2 352 18 724 55 885 86 41 8 132 26 201 40 189 37 235 49 338
89 51 20 98 36 105 36 17 0 161 73 231 118 68 43 160 149 176 202 7 24 9 538
6 1655 -4 1708 -2 1641 -45 1776 -6 19 -23 73 -37 121 -14 47 -34 97 -44 110
-10 12 -37 60 -60 105 -22 45 -60 105 -83 133 -87 102 -232 260 -240 260 -5 0
-27 17 -51 39 -59 54 -260 189 -305 205 -21 8 -54 25 -75 39 -21 14 -70 38
-110 53 -39 15 -117 44 -172 65 -55 20 -152 47 -215 59 -63 12 -154 30 -202
41 -49 11 -114 22 -146 25 -56 6 -59 5 -85 -25 -15 -18 -33 -56 -41 -84 -18
-68 -71 -348 -96 -512 -26 -169 -23 -153 -53 -281 -15 -61 -36 -176 -47 -255
-23 -166 -43 -268 -75 -394 -13 -49 -37 -182 -54 -295 -17 -113 -40 -239 -50
-280 -23 -91 -34 -149 -67 -345 -27 -164 -52 -294 -59 -306 -3 -4 -23 -112
-46 -241 -52 -302 -56 -321 -73 -398 -9 -36 -29 -146 -46 -245 -16 -99 -39
-225 -50 -280 -11 -55 -25 -125 -30 -155 -21 -132 -31 -166 -59 -200 -31 -39
-55 -48 -77 -29 -30 25 -44 70 -59 196 -17 136 -37 246 -60 328 -13 47 -20 84
-60 310 -19 109 -43 227 -55 275 -16 60 -38 170 -60 295 -32 175 -49 259 -71
355 -28 120 -27 114 -60 309 -16 97 -38 210 -50 251 -23 85 -32 126 -60 290
-11 63 -24 138 -29 165 -4 28 -18 84 -29 125 -11 41 -32 147 -46 235 -14 88
-41 223 -59 300 -19 77 -39 170 -45 208 -6 37 -16 97 -22 135 -6 37 -24 121
-40 187 -16 66 -34 153 -39 192 -11 86 -41 150 -76 163 -31 12 -30 12 -129
-11z"/>
<path d="M3170 9516 c-14 -8 -68 -61 -121 -118 -54 -56 -120 -127 -148 -157
-67 -71 -84 -131 -61 -211 5 -19 17 -77 26 -130 8 -52 27 -140 41 -195 35
-140 49 -208 63 -300 16 -104 56 -307 74 -380 9 -31 27 -127 41 -213 45 -279
73 -388 106 -418 50 -45 76 23 100 258 10 105 25 182 64 333 8 33 24 119 35
190 31 198 38 234 65 337 13 52 38 174 54 270 17 97 40 199 51 227 11 29 20
64 20 79 -1 39 -32 101 -76 149 -22 23 -90 98 -153 167 -119 131 -131 139
-181 112z"/>
<path d="M12899 9458 c-35 -40 -102 -113 -150 -163 -126 -132 -145 -178 -111
-280 11 -33 27 -100 37 -150 26 -143 61 -319 93 -470 16 -77 35 -174 42 -215
7 -41 27 -147 46 -235 45 -218 52 -260 59 -335 7 -76 22 -162 36 -207 18 -56
45 -44 80 35 33 73 40 102 69 302 23 149 29 181 70 355 16 66 38 179 49 250
24 153 35 207 68 334 13 51 33 143 43 205 11 61 25 136 31 166 20 97 7 122
-152 291 -140 148 -189 189 -226 189 -12 0 -45 -28 -84 -72z"/>
<path d="M7912 9270 c-27 -6 -102 -57 -167 -112 -12 -10 -108 -75 -178 -119
-53 -35 -67 -66 -46 -109 8 -16 95 -113 194 -215 99 -103 189 -202 200 -220
20 -34 20 -35 1 -69 -10 -20 -49 -66 -85 -103 -91 -92 -302 -321 -329 -357
-12 -16 -22 -43 -22 -62 0 -29 33 -193 77 -384 18 -78 26 -119 52 -270 25
-142 38 -212 50 -259 33 -125 43 -174 70 -338 17 -99 41 -221 55 -270 13 -48
34 -149 46 -223 37 -242 42 -264 62 -330 25 -77 47 -105 77 -95 26 8 36 43 61
231 21 157 21 160 68 379 16 77 35 174 41 215 19 112 51 271 63 308 16 53 36
154 63 322 14 85 34 191 46 235 11 44 27 116 35 160 8 44 26 133 40 197 l26
118 -22 44 c-20 42 -217 266 -332 378 -26 26 -53 59 -59 75 -16 42 -13 100 8
133 10 16 93 106 183 201 91 94 172 185 180 201 22 45 1 72 -127 158 -62 41
-127 89 -145 107 -34 32 -123 84 -142 82 -6 -1 -26 -5 -44 -9z"/>
<path d="M6620 9245 c-36 -7 -105 -20 -155 -29 -49 -9 -112 -22 -140 -30 -27
-8 -102 -28 -167 -45 -117 -31 -202 -60 -248 -85 -14 -7 -43 -19 -65 -26 -42
-13 -64 -23 -130 -58 -22 -11 -71 -37 -109 -56 -99 -52 -225 -134 -349 -228
-84 -64 -267 -241 -312 -303 -16 -22 -41 -53 -56 -70 -15 -16 -43 -55 -61 -87
-18 -31 -49 -82 -69 -115 -19 -32 -47 -87 -61 -123 -15 -36 -39 -96 -56 -135
-33 -78 -67 -241 -82 -385 -14 -137 -14 -3804 0 -3866 13 -58 73 -158 112
-185 15 -11 51 -40 80 -64 59 -51 306 -177 388 -199 101 -26 175 -48 185 -56
10 -8 114 -37 165 -47 117 -23 277 -55 335 -68 145 -32 458 -66 915 -100 107
-9 245 -20 305 -25 307 -29 1618 -22 1935 10 52 5 151 14 220 20 523 41 628
54 950 116 273 53 306 61 449 109 58 20 122 41 141 46 56 17 260 119 320 160
83 57 152 128 189 191 l32 57 -1 1943 c0 1273 -4 1976 -11 2038 -12 109 -42
237 -68 289 -10 20 -30 70 -45 112 -26 77 -147 293 -190 339 -13 14 -35 43
-48 65 -32 51 -246 265 -318 319 -30 22 -61 46 -69 54 -8 8 -33 25 -55 39 -23
14 -72 46 -110 72 -39 25 -97 60 -130 77 -146 75 -207 104 -219 104 -7 0 -31
9 -52 20 -70 36 -158 68 -245 90 -97 24 -184 48 -220 60 -53 19 -161 39 -308
55 -128 15 -157 16 -177 5 -36 -19 -56 -55 -65 -119 -5 -31 -21 -110 -35 -176
-28 -127 -49 -244 -60 -335 -4 -30 -16 -93 -26 -140 -27 -121 -63 -311 -94
-490 -14 -85 -32 -184 -41 -220 -13 -60 -44 -225 -63 -345 -5 -27 -20 -102
-34 -165 -14 -64 -35 -174 -46 -245 -34 -210 -51 -308 -61 -340 -18 -59 -38
-162 -60 -300 -22 -144 -59 -340 -85 -455 -25 -108 -32 -149 -54 -300 -12 -80
-35 -199 -50 -265 -33 -138 -42 -184 -76 -390 -13 -82 -31 -181 -40 -220 -23
-101 -52 -277 -75 -460 -31 -245 -52 -295 -120 -295 -66 0 -89 51 -120 270
-47 325 -40 286 -84 470 -14 58 -37 175 -52 260 -14 85 -39 211 -56 280 -16
69 -34 150 -38 180 -27 172 -43 255 -66 340 -31 120 -49 206 -69 345 -15 106
-44 247 -64 310 -10 31 -21 87 -46 245 -8 52 -27 145 -41 205 -30 131 -58 266
-73 355 -22 128 -62 326 -71 355 -5 17 -26 116 -45 220 -20 105 -49 249 -65
320 -16 72 -41 198 -55 280 -30 175 -47 261 -75 368 -21 83 -60 307 -60 345 0
44 -30 90 -63 101 -58 17 -101 19 -167 6z m3685 -2509 c20 -9 41 -28 51 -48
24 -46 24 -144 -1 -181 -38 -59 -18 -57 -702 -57 -610 0 -629 1 -661 20 -40
25 -52 54 -52 131 0 73 20 116 63 134 48 21 1252 22 1302 1z"/>
</g>
</svg>
