<?xml version="1.0" standalone="no"?>
<!DOCTYPE svg PUBLIC "-//W3C//DTD SVG 20010904//EN"
 "http://www.w3.org/TR/2001/REC-SVG-20010904/DTD/svg10.dtd">
<svg version="1.0" xmlns="http://www.w3.org/2000/svg"
 width="1600.000000pt" height="1600.000000pt" viewBox="0 0 1600.000000 1600.000000"
 preserveAspectRatio="xMidYMid meet">

<g transform="translate(0.000000,1600.000000) scale(0.100000,-0.100000)"
fill="#000000" stroke="none">
<path d="M2664 13477 l-81 -22 -53 -70 c-51 -66 -65 -96 -111 -225 -11 -30
-35 -86 -54 -125 -19 -38 -38 -86 -41 -105 -9 -46 -40 -107 -75 -148 -16 -18
-31 -45 -35 -60 -12 -58 -44 -133 -78 -183 -20 -28 -36 -59 -36 -68 0 -23 -45
-115 -75 -156 -15 -18 -32 -55 -40 -82 -19 -70 -39 -113 -73 -156 -17 -21 -34
-52 -38 -70 -6 -28 -25 -69 -94 -197 -11 -19 -31 -66 -45 -105 -15 -38 -35
-79 -45 -90 -10 -11 -36 -62 -58 -112 -22 -51 -49 -105 -60 -120 -11 -16 -34
-64 -51 -108 -18 -44 -44 -100 -59 -125 -15 -25 -43 -81 -62 -125 -19 -44 -44
-93 -56 -110 -11 -16 -35 -64 -53 -105 -17 -41 -39 -86 -47 -100 -19 -32 -91
-184 -99 -210 -3 -11 -25 -55 -49 -98 -23 -42 -49 -93 -56 -112 -8 -19 -29
-59 -46 -88 -18 -29 -45 -83 -60 -120 -16 -37 -41 -87 -56 -111 -15 -24 -41
-76 -57 -115 -16 -39 -37 -84 -45 -101 -9 -16 -16 -34 -16 -38 0 -5 -8 -21
-19 -35 -10 -15 -24 -52 -30 -84 -8 -37 -25 -74 -51 -110 -48 -64 -57 -83 -64
-129 -6 -33 -29 -73 -91 -158 -14 -19 -25 -47 -25 -63 0 -36 -21 -79 -71 -141
-23 -30 -40 -63 -44 -90 -7 -44 -30 -88 -76 -147 -27 -34 -32 -52 -65 -229
-14 -76 -14 -90 1 -156 17 -78 33 -99 100 -133 22 -11 51 -32 64 -46 14 -14
32 -26 40 -26 37 0 116 -37 163 -77 27 -24 58 -43 69 -43 34 0 142 -49 174
-79 16 -16 45 -32 64 -36 54 -11 134 -51 160 -79 14 -14 43 -31 65 -37 56 -14
146 -57 173 -81 16 -15 42 -22 105 -27 100 -9 139 -1 189 36 117 87 148 115
154 135 15 46 58 134 82 167 14 18 31 52 38 75 21 68 54 137 80 168 14 16 25
36 25 44 0 25 41 115 82 178 21 33 38 64 38 70 0 20 54 142 75 171 13 16 40
71 60 120 20 50 43 97 51 106 8 8 32 60 55 115 23 54 47 106 54 114 13 14 85
171 85 184 0 3 22 45 49 93 26 49 52 99 56 113 4 14 30 71 56 126 27 56 49
111 49 123 0 30 31 89 74 140 20 24 36 52 36 62 0 38 37 126 74 173 20 26 36
57 36 69 0 32 45 124 80 163 16 19 32 51 36 71 10 54 39 118 73 161 16 20 33
51 37 67 12 52 54 145 84 187 17 23 30 47 30 53 0 22 49 123 80 166 16 23 30
49 30 58 1 25 55 145 82 182 14 19 38 68 54 109 15 41 36 87 46 102 10 15 39
73 64 130 25 57 51 110 58 118 7 8 27 49 45 90 30 69 59 130 195 410 25 53 46
102 46 111 0 9 14 58 31 110 46 142 36 231 -41 357 -16 25 -44 44 -114 78 -51
24 -104 53 -118 63 -13 11 -38 23 -54 27 -47 11 -131 51 -166 78 -19 14 -71
39 -117 56 -46 17 -99 44 -117 59 -18 16 -43 32 -56 36 -55 16 -154 59 -187
81 -48 31 -156 71 -211 77 -30 4 -73 -2 -126 -16z"/>
<path d="M13195 13483 c-36 -9 -119 -47 -158 -72 -21 -13 -74 -39 -119 -57
-45 -19 -98 -45 -117 -58 -20 -14 -74 -39 -121 -56 -47 -17 -94 -40 -105 -50
-25 -22 -106 -63 -160 -80 -22 -7 -55 -24 -73 -37 -18 -14 -70 -37 -115 -53
-70 -24 -90 -36 -140 -86 -67 -67 -82 -96 -91 -174 -5 -42 -2 -69 14 -115 35
-99 101 -227 146 -283 44 -54 48 -62 58 -123 4 -20 15 -44 26 -54 37 -34 78
-110 85 -159 5 -30 18 -60 34 -80 54 -62 75 -100 82 -148 5 -33 19 -64 41 -91
52 -65 65 -89 73 -137 4 -28 21 -64 45 -95 47 -63 66 -100 73 -148 3 -21 21
-56 40 -80 44 -54 67 -99 67 -133 0 -14 70 -168 156 -341 85 -173 172 -354
193 -402 21 -48 53 -109 70 -136 17 -27 31 -53 31 -58 0 -16 67 -154 78 -161
6 -3 27 -50 48 -104 21 -53 48 -111 61 -129 12 -17 40 -72 62 -122 22 -50 48
-103 58 -118 19 -28 55 -115 68 -163 4 -14 20 -42 36 -62 16 -20 45 -76 64
-124 20 -49 42 -95 50 -104 20 -22 75 -142 75 -163 0 -23 16 -54 42 -81 27
-28 42 -60 66 -133 12 -35 32 -78 45 -95 37 -49 64 -108 72 -157 5 -28 19 -56
41 -81 41 -45 73 -114 74 -156 0 -19 11 -46 30 -69 52 -66 73 -106 81 -158 6
-36 17 -59 39 -81 16 -17 40 -47 52 -66 14 -21 43 -45 73 -60 28 -14 68 -36
88 -49 33 -20 46 -22 89 -17 28 4 67 14 87 23 117 51 197 83 207 83 6 0 29 13
50 28 40 29 97 54 170 77 23 7 59 26 80 43 41 31 140 72 176 72 12 0 29 7 39
16 21 19 168 84 191 84 9 0 36 16 60 35 23 20 60 50 82 67 21 17 48 52 59 77
11 25 28 57 38 70 14 17 19 40 19 85 -1 62 -5 77 -58 202 -16 38 -33 89 -37
112 -3 22 -14 47 -22 54 -31 25 -83 117 -93 164 -6 26 -24 63 -39 83 -38 48
-68 109 -76 155 -4 21 -20 52 -35 70 -36 40 -80 129 -80 159 0 13 -18 48 -41
78 -45 60 -63 96 -73 150 -3 20 -20 54 -37 75 -39 49 -79 127 -79 154 0 26
-23 72 -45 90 -23 19 -62 99 -70 143 -4 20 -21 54 -37 75 -43 53 -67 105 -74
156 -5 31 -18 59 -46 92 -50 61 -56 71 -69 134 -6 28 -25 70 -43 93 -53 71
-65 94 -72 137 -4 24 -21 61 -40 86 -43 57 -74 117 -74 147 0 13 -11 39 -25
58 -53 74 -77 121 -89 173 -9 38 -25 68 -53 100 -36 41 -53 79 -67 146 -3 14
-26 52 -51 84 -41 53 -54 83 -70 158 -3 15 -18 42 -34 60 -36 42 -66 102 -75
150 -4 21 -17 50 -30 65 -53 63 -76 107 -76 142 0 27 -57 151 -230 497 -126
254 -230 466 -230 471 0 16 -95 137 -151 192 -85 84 -174 116 -264 94z"/>
<path d="M8199 12474 c-69 -7 -150 -19 -180 -27 -30 -8 -77 -18 -106 -22 -28
-4 -84 -20 -122 -35 -39 -16 -88 -32 -108 -36 -76 -13 -148 -37 -247 -84 -56
-26 -134 -60 -174 -74 -41 -14 -88 -36 -105 -49 -18 -13 -59 -33 -92 -46 -61
-23 -90 -36 -160 -74 l-40 -22 -1166 -5 c-1149 -5 -1167 -5 -1189 -25 -13 -11
-31 -38 -40 -60 -10 -22 -30 -55 -44 -74 -14 -19 -26 -43 -26 -53 0 -33 -51
-142 -81 -174 -35 -36 -62 -117 -53 -157 7 -31 30 -47 59 -39 11 3 318 7 682
9 l661 4 22 -28 c48 -61 2 -202 -110 -337 -26 -32 -39 -58 -44 -91 -4 -33 -20
-67 -52 -113 -33 -47 -48 -81 -54 -117 -4 -27 -20 -90 -34 -140 -15 -49 -36
-120 -47 -156 -11 -36 -24 -106 -29 -155 -5 -49 -14 -107 -19 -129 -6 -22 -11
-125 -12 -230 -3 -243 -17 -366 -58 -474 -17 -47 -31 -93 -31 -103 0 -26 -47
-138 -67 -160 -17 -19 -50 -93 -89 -202 -22 -61 -24 -78 -18 -149 4 -51 17
-105 34 -146 23 -57 33 -69 76 -94 27 -16 60 -40 75 -53 24 -23 186 -84 274
-104 22 -5 67 -19 100 -30 85 -31 220 -32 295 -3 73 29 245 80 295 89 22 3 50
12 62 20 12 7 68 34 125 59 57 25 119 61 138 79 19 18 55 47 80 64 98 68 319
299 371 388 15 25 41 60 58 78 20 21 34 47 38 72 6 41 44 124 74 162 10 13 21
37 24 55 4 18 20 74 36 125 16 51 29 109 29 130 0 41 26 150 39 166 5 6 15 30
22 54 11 37 68 107 181 220 106 108 174 162 207 168 20 3 59 19 86 34 67 37
122 49 273 60 129 10 210 8 385 -12 85 -9 111 -17 185 -54 60 -30 104 -61 143
-101 31 -32 85 -83 119 -113 35 -30 85 -76 111 -102 27 -26 66 -59 88 -72 21
-14 48 -38 60 -55 12 -16 38 -35 59 -41 21 -7 59 -34 88 -64 28 -28 79 -76
115 -108 35 -31 129 -115 209 -187 80 -72 171 -155 203 -184 32 -28 79 -73
105 -98 26 -26 65 -58 88 -73 22 -14 50 -39 62 -55 12 -16 35 -32 52 -36 17
-4 54 -30 84 -58 51 -50 122 -114 286 -263 91 -82 158 -144 219 -204 26 -25
63 -57 82 -70 18 -13 51 -43 71 -66 21 -23 50 -47 66 -53 16 -7 39 -26 51 -42
13 -17 40 -38 61 -47 21 -9 128 -99 237 -199 109 -100 223 -205 253 -233 30
-27 83 -76 116 -109 34 -32 71 -62 81 -65 11 -4 34 -24 52 -46 21 -27 44 -43
72 -50 29 -8 46 -20 59 -43 11 -18 34 -41 52 -52 18 -10 56 -42 84 -69 28 -28
84 -81 125 -117 41 -36 108 -96 149 -134 103 -93 184 -166 258 -233 35 -31 86
-78 113 -104 31 -30 62 -50 84 -54 25 -4 41 -16 56 -40 11 -18 35 -44 52 -56
56 -39 167 -141 172 -160 4 -9 23 -37 43 -62 20 -25 60 -96 87 -158 50 -112
50 -114 50 -218 0 -97 -3 -110 -33 -174 -17 -37 -32 -73 -32 -80 0 -39 -28
-93 -73 -143 -29 -32 -64 -74 -79 -93 -18 -24 -59 -52 -132 -89 l-106 -55
-141 -4 c-201 -7 -228 1 -406 115 -29 18 -53 38 -53 43 0 5 -26 27 -57 47 -32
21 -77 54 -100 75 -22 20 -57 40 -76 43 -23 5 -50 22 -78 52 -24 24 -60 53
-80 63 -20 11 -53 37 -74 59 -21 22 -63 53 -94 70 -31 16 -67 41 -80 55 -13
14 -40 31 -60 37 -20 6 -61 35 -92 64 -30 29 -77 64 -105 78 -27 14 -59 38
-71 55 -14 19 -36 33 -65 40 -26 7 -56 24 -73 43 -17 17 -62 53 -102 80 -40
27 -77 57 -82 67 -5 10 -34 31 -63 46 -29 16 -66 41 -83 56 -16 16 -52 38 -80
51 -27 13 -67 41 -88 62 -21 21 -65 54 -96 72 -32 19 -66 46 -75 60 -10 16
-32 29 -61 36 -29 7 -61 27 -92 56 -27 24 -68 57 -93 73 -25 16 -61 45 -80 65
-19 20 -51 43 -70 51 -19 8 -51 30 -70 48 -19 19 -46 37 -60 41 -33 10 -74 39
-131 91 -25 23 -64 51 -86 62 -22 12 -47 32 -57 46 -10 17 -34 31 -69 41 -40
11 -65 27 -98 63 -45 47 -61 57 -174 108 -57 26 -63 26 -120 15 -84 -17 -116
-38 -144 -94 -22 -46 -23 -53 -13 -125 10 -69 14 -80 45 -107 96 -84 132 -111
166 -126 20 -9 51 -33 69 -53 19 -20 41 -36 50 -36 24 0 72 -31 107 -69 17
-18 46 -42 65 -53 19 -12 61 -46 93 -75 32 -29 65 -53 73 -53 8 0 33 -17 57
-39 23 -21 63 -47 88 -58 25 -11 65 -40 90 -63 24 -24 68 -58 97 -76 29 -17
62 -44 73 -58 11 -14 38 -30 62 -37 26 -6 60 -27 87 -53 25 -24 65 -57 90 -74
25 -16 59 -44 75 -62 17 -17 47 -41 68 -51 21 -11 55 -35 75 -53 20 -18 58
-42 84 -54 25 -11 58 -34 73 -51 16 -17 56 -49 91 -72 34 -22 70 -51 79 -65 8
-13 39 -36 68 -50 28 -14 62 -39 75 -55 13 -16 42 -34 64 -41 26 -7 66 -34
102 -68 34 -31 78 -66 98 -79 21 -12 46 -33 56 -46 11 -13 46 -40 79 -59 33
-19 66 -42 73 -51 8 -9 39 -29 69 -45 31 -16 74 -47 96 -70 22 -23 60 -52 85
-65 25 -13 60 -39 79 -58 19 -20 47 -38 66 -41 45 -9 151 -107 160 -149 4 -17
22 -59 39 -92 30 -57 31 -65 30 -175 -1 -109 -2 -119 -35 -190 -59 -127 -76
-154 -107 -173 -17 -9 -40 -33 -52 -52 -30 -49 -64 -70 -170 -106 -106 -35
-150 -35 -275 3 -137 40 -152 48 -190 94 -20 24 -55 54 -78 66 -23 11 -61 38
-84 59 -24 22 -53 39 -65 39 -14 0 -49 22 -83 53 -34 29 -83 67 -110 84 -28
18 -56 41 -62 52 -7 12 -36 32 -63 46 -28 14 -67 40 -88 58 -20 18 -59 43 -85
56 -27 14 -68 44 -91 67 -24 23 -66 54 -93 68 -27 13 -57 36 -66 49 -9 14 -33
29 -60 37 -30 8 -68 32 -112 71 -36 32 -80 66 -98 75 -18 9 -48 34 -68 55 -27
30 -44 39 -68 39 -25 0 -43 10 -74 41 -23 23 -62 55 -87 72 -25 17 -68 52 -97
79 -28 26 -59 48 -68 48 -8 0 -34 17 -58 39 -23 21 -63 48 -90 59 -26 12 -71
43 -100 70 -28 27 -70 59 -92 70 -22 11 -53 34 -70 51 -16 17 -47 36 -70 42
-24 7 -60 29 -90 58 -27 26 -70 59 -95 74 -25 15 -61 43 -80 63 -104 108 -292
124 -375 33 -33 -37 -35 -43 -35 -108 0 -39 4 -81 10 -96 15 -39 97 -122 159
-160 31 -18 72 -50 91 -70 19 -20 53 -46 75 -57 22 -11 54 -33 70 -49 17 -15
47 -35 69 -44 21 -9 59 -36 85 -59 25 -24 69 -57 97 -74 27 -17 64 -47 82 -66
21 -23 44 -37 69 -42 25 -4 53 -21 83 -49 25 -23 65 -56 90 -73 25 -16 59 -44
75 -62 17 -17 50 -42 75 -55 25 -13 60 -39 79 -58 19 -21 47 -38 67 -42 21 -3
52 -23 81 -52 27 -25 72 -61 100 -79 29 -19 60 -46 70 -60 9 -14 41 -38 72
-54 31 -15 65 -38 76 -50 11 -13 39 -31 62 -41 22 -9 66 -40 97 -68 30 -28 72
-59 93 -70 21 -10 54 -35 73 -55 20 -21 51 -41 75 -47 23 -7 61 -30 90 -58 28
-25 77 -68 109 -95 38 -32 67 -67 83 -100 13 -28 36 -71 51 -96 26 -44 27 -49
27 -205 0 -174 4 -159 -70 -294 -49 -90 -145 -181 -190 -181 -9 0 -42 -12 -73
-27 -51 -24 -69 -27 -162 -27 -94 -1 -111 2 -160 26 -30 15 -67 30 -83 33 -15
4 -49 29 -75 55 -26 26 -73 64 -104 84 -32 20 -62 45 -68 56 -6 11 -30 30 -53
41 -23 12 -68 41 -100 65 -33 24 -63 44 -67 44 -14 0 -93 56 -120 85 -14 15
-43 36 -65 47 -22 11 -58 38 -81 58 -23 21 -55 41 -72 45 -18 3 -62 35 -103
71 -39 35 -78 64 -86 64 -7 0 -35 20 -61 44 -27 25 -62 47 -81 51 -20 4 -56
27 -85 54 -28 26 -75 62 -104 81 -30 18 -61 44 -69 57 -9 13 -41 37 -72 53
-31 15 -65 38 -76 50 -11 12 -43 33 -72 46 -29 14 -77 47 -105 73 -29 27 -71
58 -93 69 -22 11 -53 34 -68 51 -17 18 -43 33 -65 37 -24 5 -54 23 -87 55 -28
26 -63 53 -79 59 -34 12 -184 3 -205 -14 -28 -21 -91 -129 -91 -155 0 -32 46
-125 81 -163 18 -18 37 -28 56 -28 21 0 40 -12 68 -41 22 -22 63 -56 90 -74
28 -19 70 -55 94 -80 24 -25 48 -45 53 -45 5 0 33 -22 61 -49 29 -26 66 -55
82 -64 17 -8 46 -30 65 -47 19 -18 54 -41 77 -51 24 -10 72 -45 108 -79 35
-33 69 -60 73 -60 5 0 29 -21 53 -46 24 -25 62 -55 84 -66 22 -11 50 -33 63
-49 13 -16 41 -34 63 -40 23 -7 66 -36 102 -69 34 -31 83 -69 110 -85 61 -38
77 -74 77 -167 0 -108 -22 -171 -80 -232 -27 -28 -60 -65 -74 -82 -17 -21 -58
-46 -120 -73 -87 -38 -100 -41 -185 -41 -86 0 -100 3 -203 45 -80 32 -123 55
-152 83 -23 22 -58 45 -78 51 -20 7 -55 31 -78 53 -23 23 -65 59 -93 80 -54
40 -97 105 -97 146 0 24 -11 36 -101 113 -43 37 -74 52 -154 77 -55 18 -105
32 -111 32 -7 0 -36 16 -65 36 -30 20 -65 42 -79 49 -14 7 -44 32 -67 54 -23
23 -51 41 -61 41 -27 0 -120 70 -163 122 -62 75 -71 96 -80 176 -12 112 -24
145 -79 215 -28 34 -61 83 -75 109 -14 26 -37 54 -53 62 -15 8 -47 35 -72 61
-84 87 -116 96 -370 104 l-205 6 -93 68 c-90 66 -165 137 -189 181 -7 11 -13
50 -13 86 -1 36 -10 97 -21 135 -11 39 -24 88 -30 109 -5 21 -21 52 -35 69
-14 16 -31 43 -38 61 -19 45 -144 169 -196 196 -25 12 -56 32 -70 45 -15 13
-65 33 -126 48 -85 23 -122 27 -235 27 -154 0 -180 6 -254 55 -58 38 -108 115
-121 184 -4 20 -8 124 -8 231 -1 171 -4 202 -23 255 -11 33 -24 77 -27 98 -4
22 -21 54 -40 75 -18 20 -40 51 -49 67 -17 33 -115 123 -168 154 -75 43 -264
65 -481 56 l-177 -7 -58 31 c-33 18 -67 45 -76 61 -10 16 -31 41 -47 57 -17
15 -37 49 -46 75 -10 30 -27 56 -45 69 -16 11 -37 35 -45 52 -9 17 -38 54 -64
81 -25 28 -63 73 -84 100 -47 64 -109 136 -168 195 -29 30 -50 62 -57 89 -8
26 -22 49 -41 62 -17 12 -38 36 -46 53 -9 18 -40 57 -69 87 -28 30 -78 95
-110 143 -51 77 -61 88 -84 85 -22 -2 -34 -18 -73 -93 -25 -49 -47 -101 -47
-115 -1 -31 -42 -118 -68 -145 -40 -42 -53 -70 -53 -114 0 -41 4 -49 54 -95
30 -28 62 -69 71 -91 9 -22 30 -53 46 -69 17 -16 37 -44 46 -60 9 -17 39 -57
67 -88 111 -125 142 -162 174 -207 18 -25 50 -62 71 -82 25 -22 43 -50 50 -76
7 -26 22 -50 39 -62 15 -10 40 -41 55 -68 16 -26 46 -61 68 -76 49 -36 101
-132 101 -191 1 -56 -32 -118 -108 -199 -35 -37 -64 -72 -64 -77 0 -5 -22 -35
-50 -65 -35 -39 -50 -64 -50 -83 0 -21 -11 -39 -40 -66 -22 -20 -57 -62 -79
-94 -21 -31 -53 -70 -71 -87 -17 -16 -41 -48 -52 -70 -11 -22 -33 -51 -49 -65
-28 -25 -57 -97 -85 -210 -8 -33 -13 -115 -14 -205 0 -132 3 -159 25 -230 14
-44 25 -92 25 -108 0 -18 14 -43 38 -70 21 -23 50 -59 65 -80 16 -20 50 -48
77 -62 27 -14 54 -34 60 -44 6 -11 37 -28 77 -41 38 -12 97 -34 133 -49 154
-66 258 -66 396 -1 45 22 103 45 130 51 28 7 63 26 87 48 34 31 45 35 94 35
47 1 58 -3 75 -24 22 -27 22 -66 2 -348 -10 -144 32 -328 90 -392 13 -14 34
-45 47 -69 15 -27 38 -50 62 -62 20 -11 49 -32 63 -48 14 -16 55 -41 92 -56
37 -16 100 -44 140 -63 66 -32 82 -35 185 -39 106 -5 117 -4 202 26 50 18 122
39 160 48 39 8 87 24 107 34 46 24 101 25 119 2 17 -19 16 -153 0 -223 -16
-67 -13 -214 5 -283 21 -81 58 -152 93 -178 16 -12 44 -41 62 -66 19 -25 48
-52 64 -61 17 -8 58 -39 93 -68 45 -39 81 -59 130 -75 121 -38 312 -36 447 6
35 10 86 44 168 109 156 125 235 153 294 102 l28 -24 -3 -132 c-3 -184 18
-262 95 -352 21 -24 46 -62 57 -85 14 -33 28 -45 60 -58 22 -9 59 -34 81 -55
76 -72 163 -100 315 -100 154 0 234 26 324 106 26 24 54 44 61 44 21 0 67 42
80 73 6 16 29 39 50 50 29 17 51 44 90 112 68 117 86 130 178 130 85 -1 161
-27 231 -81 31 -23 64 -38 99 -44 28 -5 68 -14 87 -20 19 -6 97 -11 174 -11
120 0 150 4 230 27 50 14 107 36 126 48 46 28 140 66 163 66 11 0 35 16 55 36
20 20 54 48 75 61 21 13 53 47 71 76 19 29 43 60 54 71 12 10 24 32 28 50 9
45 44 104 73 122 31 21 143 22 192 1 18 -8 53 -30 75 -49 31 -26 64 -40 130
-57 49 -13 105 -29 124 -37 153 -62 306 -80 420 -49 30 8 67 15 82 15 15 0 47
9 70 19 24 11 75 29 113 41 39 12 86 32 105 45 62 40 250 227 272 269 11 23
34 56 49 74 16 18 29 41 29 51 0 10 13 62 30 117 16 54 30 116 30 138 0 50 34
104 76 122 21 9 72 14 136 14 57 0 123 5 148 11 25 6 68 15 95 19 83 14 136
29 225 65 47 18 102 38 122 45 21 6 46 22 56 35 10 12 42 37 70 55 29 17 52
36 52 42 0 5 27 35 59 66 46 44 72 82 115 167 36 70 56 123 56 145 0 19 7 58
16 85 9 28 16 86 16 130 0 152 27 223 94 251 19 8 85 18 147 23 125 11 175 26
350 110 64 30 129 71 160 99 30 26 68 55 85 64 17 9 40 34 51 55 10 21 36 54
57 73 21 19 53 68 73 110 19 41 43 86 52 100 22 30 56 132 75 220 20 97 18
307 -5 405 -10 44 -22 100 -25 125 -4 27 -18 59 -35 81 -45 55 -71 110 -71
149 0 29 -8 44 -46 80 -52 51 -114 165 -114 210 0 34 28 105 102 260 28 58 53
123 56 145 6 48 35 109 72 151 19 22 33 56 45 108 14 67 15 86 4 148 -8 43
-21 81 -35 97 -39 47 -81 125 -88 163 -4 20 -22 58 -40 85 -47 68 -63 102 -71
150 -4 24 -21 60 -40 85 -42 55 -75 117 -75 143 0 11 -20 60 -45 109 -24 49
-50 105 -56 125 -6 20 -27 65 -47 101 -63 118 -122 242 -122 257 0 6 -9 22
-20 36 -11 14 -27 43 -34 64 -7 21 -28 67 -46 103 -71 140 -108 216 -115 240
-4 14 -18 39 -30 56 -13 16 -38 68 -56 115 -18 46 -42 98 -54 114 -29 39 -69
120 -85 170 -7 22 -22 53 -34 70 -23 33 -76 152 -76 171 0 7 -11 25 -24 41
-32 38 -70 117 -90 184 -9 31 -23 62 -32 70 -22 18 -58 93 -77 160 -9 30 -26
64 -38 75 -28 25 -79 127 -79 157 0 13 -14 43 -31 67 -39 54 -79 138 -79 167
0 12 -16 42 -35 68 -43 56 -72 116 -80 168 -3 20 -18 52 -34 70 -46 54 -71
102 -78 152 -4 30 -16 59 -33 79 -51 60 -70 95 -80 145 -11 61 -61 152 -102
186 -29 24 -33 25 -186 25 -263 0 -520 22 -637 55 -27 8 -90 25 -140 39 -49
14 -128 30 -175 36 -47 6 -155 32 -240 59 -85 27 -195 58 -245 69 -49 11 -112
29 -140 40 -76 31 -306 97 -410 117 -223 44 -317 55 -540 65 -344 16 -493 17
-636 4z"/>
</g>
</svg>
