<?xml version="1.0" standalone="no"?>
<!DOCTYPE svg PUBLIC "-//W3C//DTD SVG 20010904//EN"
 "http://www.w3.org/TR/2001/REC-SVG-20010904/DTD/svg10.dtd">
<svg version="1.0" xmlns="http://www.w3.org/2000/svg"
 width="1600.000000pt" height="1600.000000pt" viewBox="0 0 1600.000000 1600.000000"
 preserveAspectRatio="xMidYMid meet">

<g transform="translate(0.000000,1600.000000) scale(0.100000,-0.100000)"
fill="#000000" stroke="none">
<path d="M7790 15950 c0 -17 -7 -20 -45 -20 -38 0 -45 -3 -45 -20 0 -18 -7
-20 -60 -20 -53 0 -60 -2 -60 -20 0 -16 -7 -20 -35 -20 -24 0 -35 -5 -35 -15
0 -11 -11 -15 -40 -15 -36 0 -40 -2 -40 -25 0 -23 -4 -25 -45 -25 -38 0 -45
-3 -45 -20 0 -18 -7 -20 -60 -20 -53 0 -60 -2 -60 -20 0 -18 -7 -20 -55 -20
-48 0 -55 -2 -55 -20 0 -17 -7 -20 -40 -20 -33 0 -40 -3 -40 -20 0 -18 -7 -20
-65 -20 -58 0 -65 -2 -65 -20 0 -18 -7 -20 -60 -20 -53 0 -60 -2 -60 -20 0
-18 -7 -20 -75 -20 -68 0 -75 -2 -75 -20 0 -18 -7 -20 -60 -20 -53 0 -60 -2
-60 -20 0 -18 -7 -20 -65 -20 -51 0 -65 -3 -65 -15 0 -12 -15 -15 -75 -15 -68
0 -75 -2 -75 -20 0 -18 -7 -20 -60 -20 -57 0 -60 -1 -60 -25 l0 -25 -105 0
c-98 0 -105 -1 -105 -20 0 -18 -7 -20 -75 -20 -68 0 -75 -2 -75 -20 0 -18 -7
-20 -85 -20 -78 0 -85 -2 -85 -20 0 -19 -7 -20 -115 -20 -108 0 -115 -1 -115
-20 0 -19 -7 -20 -125 -20 -118 0 -125 -1 -125 -20 0 -19 -7 -20 -95 -20 -88
0 -95 -1 -95 -20 0 -18 -7 -20 -65 -20 l-65 0 0 -35 c0 -34 -1 -35 -40 -35
-33 0 -40 -3 -40 -20 0 -13 -7 -20 -20 -20 -17 0 -20 -7 -20 -45 0 -33 -4 -45
-15 -45 -12 0 -15 -13 -15 -60 0 -53 -2 -60 -20 -60 -18 0 -20 -7 -20 -60 0
-53 -2 -60 -20 -60 -18 0 -20 -7 -20 -55 0 -48 -2 -55 -20 -55 -18 0 -20 -7
-20 -65 0 -58 -2 -65 -20 -65 -17 0 -20 -7 -20 -40 0 -33 -3 -40 -20 -40 -18
0 -20 -7 -20 -60 0 -53 -2 -60 -20 -60 -16 0 -20 -7 -20 -35 0 -31 -3 -35 -25
-35 -22 0 -25 -4 -25 -40 0 -33 -3 -40 -20 -40 -15 0 -20 -7 -20 -25 0 -18 -5
-25 -20 -25 -17 0 -20 -7 -20 -40 0 -33 -3 -40 -20 -40 -17 0 -20 -7 -20 -40
0 -29 -4 -40 -15 -40 -10 0 -15 -11 -15 -35 0 -28 -4 -35 -20 -35 -13 0 -20
-7 -20 -20 0 -13 -7 -20 -20 -20 -17 0 -20 -7 -20 -40 0 -33 -3 -40 -20 -40
-13 0 -20 -7 -20 -20 0 -13 -7 -20 -20 -20 -17 0 -20 -7 -20 -45 0 -38 -3 -45
-20 -45 -13 0 -20 -7 -20 -20 0 -13 -7 -20 -20 -20 -13 0 -20 -7 -20 -20 0
-15 -7 -20 -25 -20 -22 0 -25 -4 -25 -35 0 -28 -4 -35 -20 -35 -13 0 -20 -7
-20 -20 0 -13 -7 -20 -20 -20 -13 0 -20 -7 -20 -20 0 -11 -7 -20 -15 -20 -8 0
-15 -9 -15 -20 0 -13 -7 -20 -20 -20 -13 0 -20 -7 -20 -20 0 -13 -7 -20 -20
-20 -15 0 -20 -7 -20 -25 0 -18 -5 -25 -20 -25 -17 0 -20 -7 -20 -40 0 -33 -3
-40 -20 -40 -13 0 -20 -7 -20 -20 0 -13 -7 -20 -20 -20 -13 0 -20 -7 -20 -20
0 -13 -7 -20 -20 -20 -16 0 -20 -7 -20 -35 0 -28 -4 -35 -20 -35 -18 0 -20 -7
-20 -80 0 -73 2 -80 20 -80 17 0 20 -7 20 -45 0 -38 3 -45 20 -45 17 0 20 -7
20 -40 0 -33 3 -40 20 -40 13 0 20 -7 20 -20 0 -13 7 -20 20 -20 11 0 20 -7
20 -15 0 -8 9 -15 20 -15 13 0 20 -7 20 -20 0 -13 7 -20 20 -20 13 0 20 -7 20
-20 0 -13 7 -20 20 -20 13 0 20 -7 20 -20 0 -11 7 -20 15 -20 8 0 15 -9 15
-20 0 -13 7 -20 20 -20 13 0 20 -7 20 -20 0 -13 7 -20 20 -20 15 0 20 -7 20
-25 0 -20 5 -25 25 -25 18 0 25 -5 25 -20 0 -13 7 -20 20 -20 13 0 20 -7 20
-20 0 -13 7 -20 20 -20 13 0 20 -7 20 -20 0 -13 7 -20 20 -20 11 0 20 -7 20
-15 0 -8 9 -15 20 -15 13 0 20 -7 20 -20 0 -17 7 -20 40 -20 33 0 40 -3 40
-20 0 -11 7 -20 15 -20 8 0 15 -9 15 -20 0 -13 7 -20 20 -20 13 0 20 -7 20
-20 0 -13 7 -20 20 -20 13 0 20 -7 20 -20 0 -13 7 -20 20 -20 13 0 20 -7 20
-20 0 -17 7 -20 45 -20 41 0 45 -2 45 -25 0 -18 5 -25 20 -25 13 0 20 -7 20
-20 0 -13 7 -20 20 -20 13 0 20 -7 20 -20 0 -17 7 -20 40 -20 33 0 40 -3 40
-20 0 -13 7 -20 20 -20 11 0 20 -7 20 -15 0 -8 7 -15 15 -15 8 0 15 -9 15 -20
0 -17 7 -20 40 -20 l40 0 0 -700 c0 -693 0 -700 20 -700 19 0 20 -7 20 -160
l0 -160 25 0 25 0 0 -100 c0 -93 1 -100 20 -100 18 0 20 -7 20 -80 0 -73 2
-80 20 -80 18 0 20 -7 20 -80 0 -73 2 -80 20 -80 18 0 20 -7 20 -60 0 -53 2
-60 20 -60 18 0 20 -7 20 -60 0 -53 2 -60 20 -60 18 0 20 -7 20 -60 0 -47 3
-60 15 -60 12 0 15 -13 15 -60 0 -53 2 -60 20 -60 17 0 20 -7 20 -40 0 -33 3
-40 20 -40 18 0 20 -7 20 -60 0 -53 2 -60 20 -60 17 0 20 -7 20 -40 0 -36 3
-40 25 -40 23 0 25 -4 25 -40 0 -33 3 -40 20 -40 17 0 20 -7 20 -40 0 -33 3
-40 20 -40 16 0 20 -7 20 -35 0 -28 4 -35 20 -35 17 0 20 -7 20 -45 0 -38 3
-45 20 -45 17 0 20 -7 20 -40 0 -33 3 -40 20 -40 17 0 20 -7 20 -40 0 -29 4
-40 15 -40 8 0 15 -9 15 -20 0 -13 7 -20 20 -20 17 0 20 -7 20 -40 0 -33 3
-40 20 -40 16 0 20 -7 20 -35 0 -28 4 -35 20 -35 17 0 20 -7 20 -45 0 -38 3
-45 20 -45 13 0 20 -7 20 -20 0 -15 7 -20 25 -20 23 0 25 -4 25 -40 0 -33 3
-40 20 -40 13 0 20 -7 20 -20 0 -13 7 -20 20 -20 13 0 20 -7 20 -20 0 -13 7
-20 20 -20 17 0 20 -7 20 -40 0 -33 3 -40 20 -40 11 0 20 -7 20 -15 0 -8 9
-15 20 -15 17 0 20 -7 20 -45 0 -33 4 -45 15 -45 8 0 15 -9 15 -20 0 -13 7
-20 20 -20 13 0 20 -7 20 -20 0 -13 7 -20 20 -20 13 0 20 -7 20 -20 0 -13 7
-20 20 -20 13 0 20 -7 20 -20 0 -13 7 -20 20 -20 17 0 20 -7 20 -40 0 -36 3
-40 25 -40 18 0 25 -5 25 -20 0 -13 7 -20 20 -20 11 0 20 -7 20 -15 0 -8 9
-15 20 -15 13 0 20 -7 20 -20 0 -13 7 -20 20 -20 13 0 20 -7 20 -20 0 -13 7
-20 20 -20 15 0 20 -7 20 -25 0 -16 6 -25 15 -25 8 0 15 -9 15 -20 0 -13 7
-20 20 -20 20 0 20 -7 20 -480 l0 -480 -95 0 c-88 0 -95 -1 -95 -20 0 -19 -7
-20 -140 -20 -133 0 -140 -1 -140 -20 0 -19 -7 -20 -145 -20 -122 0 -145 -2
-145 -15 0 -12 -19 -15 -115 -15 -108 0 -115 -1 -115 -20 0 -18 -7 -20 -85
-20 -78 0 -85 -2 -85 -20 0 -19 -7 -20 -95 -20 -88 0 -95 -1 -95 -20 0 -18 -7
-20 -80 -20 -79 0 -80 0 -80 -25 0 -24 -2 -25 -65 -25 -58 0 -65 -2 -65 -20 0
-18 -7 -20 -75 -20 -68 0 -75 -2 -75 -20 0 -18 -7 -20 -80 -20 -73 0 -80 -2
-80 -20 0 -17 -7 -20 -45 -20 -38 0 -45 -3 -45 -20 0 -18 -7 -20 -55 -20 -48
0 -55 -2 -55 -20 0 -18 -7 -20 -60 -20 -47 0 -60 -3 -60 -15 0 -12 -13 -15
-60 -15 -53 0 -60 -2 -60 -20 0 -17 -7 -20 -45 -20 -38 0 -45 -3 -45 -20 0
-18 -7 -20 -55 -20 -48 0 -55 -2 -55 -20 0 -13 -7 -20 -20 -20 -13 0 -20 -7
-20 -20 0 -17 -7 -20 -40 -20 -36 0 -40 -2 -40 -25 0 -22 -4 -25 -40 -25 -33
0 -40 -3 -40 -20 0 -18 -7 -20 -65 -20 -58 0 -65 -2 -65 -20 0 -11 -7 -20 -15
-20 -8 0 -15 -9 -15 -20 0 -17 -7 -20 -40 -20 -33 0 -40 -3 -40 -20 0 -17 -7
-20 -40 -20 -33 0 -40 -3 -40 -20 0 -13 -7 -20 -20 -20 -11 0 -20 -7 -20 -15
0 -11 -11 -15 -40 -15 -33 0 -40 -3 -40 -20 0 -15 -7 -20 -25 -20 -18 0 -25
-5 -25 -20 0 -17 -7 -20 -40 -20 -33 0 -40 -3 -40 -20 0 -11 -7 -20 -15 -20
-8 0 -15 -9 -15 -20 0 -13 -7 -20 -20 -20 -15 0 -20 -7 -20 -25 0 -18 -5 -25
-20 -25 -13 0 -20 -7 -20 -20 0 -17 -7 -20 -40 -20 -33 0 -40 -3 -40 -20 0
-13 -7 -20 -20 -20 -13 0 -20 -7 -20 -20 0 -13 -7 -20 -20 -20 -13 0 -20 -7
-20 -20 0 -13 -7 -20 -20 -20 -11 0 -20 -7 -20 -15 0 -9 -9 -15 -25 -15 -18 0
-25 -5 -25 -20 0 -13 -7 -20 -20 -20 -13 0 -20 -7 -20 -20 0 -11 -7 -20 -15
-20 -8 0 -15 -9 -15 -20 0 -13 -7 -20 -20 -20 -13 0 -20 -7 -20 -20 0 -13 -7
-20 -20 -20 -17 0 -20 -7 -20 -45 0 -38 -3 -45 -20 -45 -13 0 -20 -7 -20 -20
0 -13 -7 -20 -20 -20 -13 0 -20 -7 -20 -20 0 -13 -7 -20 -20 -20 -16 0 -20 -7
-20 -35 0 -28 -4 -35 -20 -35 -13 0 -20 -7 -20 -20 0 -13 -7 -20 -20 -20 -17
0 -20 -7 -20 -40 0 -33 -3 -40 -20 -40 -17 0 -20 -7 -20 -40 0 -36 -2 -40 -25
-40 -23 0 -25 -4 -25 -45 0 -33 -4 -45 -15 -45 -12 0 -15 -13 -15 -55 0 -48
-2 -55 -20 -55 -18 0 -20 -7 -20 -60 0 -53 -2 -60 -20 -60 -19 0 -20 -7 -20
-105 0 -98 -1 -105 -20 -105 -20 0 -20 -7 -20 -1735 0 -1728 0 -1735 20 -1735
17 0 20 -7 20 -40 l0 -40 40 0 c29 0 40 -4 40 -15 0 -13 655 -15 5835 -15
5180 0 5835 2 5835 15 0 11 11 15 40 15 33 0 40 3 40 20 0 13 7 20 20 20 20 0
20 7 20 1755 0 1748 0 1755 -20 1755 -19 0 -20 7 -20 105 0 98 -1 105 -20 105
-18 0 -20 7 -20 60 0 53 -2 60 -20 60 -16 0 -20 7 -20 35 0 31 -3 35 -25 35
-23 0 -25 4 -25 45 0 38 -3 45 -20 45 -17 0 -20 7 -20 40 0 29 -4 40 -15 40
-11 0 -15 11 -15 40 0 33 -3 40 -20 40 -17 0 -20 7 -20 40 0 33 -3 40 -20 40
-11 0 -20 7 -20 15 0 8 -9 15 -20 15 -13 0 -20 7 -20 20 0 13 -7 20 -20 20
-17 0 -20 7 -20 40 0 33 -3 40 -20 40 -15 0 -20 7 -20 25 0 18 -5 25 -20 25
-13 0 -20 7 -20 20 0 13 -7 20 -20 20 -13 0 -20 7 -20 20 0 13 -7 20 -20 20
-13 0 -20 7 -20 20 0 15 -7 20 -25 20 -18 0 -25 5 -25 20 0 11 -7 20 -15 20
-8 0 -15 9 -15 20 0 13 -7 20 -20 20 -11 0 -20 7 -20 15 0 8 -9 15 -20 15 -13
0 -20 7 -20 20 0 17 -7 20 -40 20 -33 0 -40 3 -40 20 0 13 -7 20 -20 20 -13 0
-20 7 -20 20 0 13 -7 20 -20 20 -13 0 -20 7 -20 20 0 13 -7 20 -20 20 -15 0
-20 7 -20 25 0 23 -4 25 -40 25 -33 0 -40 3 -40 20 0 13 -7 20 -20 20 -13 0
-20 7 -20 20 0 13 -7 20 -20 20 -13 0 -20 7 -20 20 0 17 -7 20 -40 20 -33 0
-40 3 -40 20 0 17 -7 20 -40 20 -29 0 -40 4 -40 15 0 11 -11 15 -40 15 -33 0
-40 3 -40 20 0 13 -7 20 -20 20 -13 0 -20 7 -20 20 0 17 -7 20 -40 20 -33 0
-40 3 -40 20 0 17 -7 20 -40 20 -33 0 -40 3 -40 20 0 17 -7 20 -40 20 -33 0
-40 3 -40 20 0 18 -7 20 -60 20 -57 0 -60 1 -60 25 0 23 -4 25 -40 25 -33 0
-40 3 -40 20 0 16 -7 20 -35 20 -28 0 -35 4 -35 20 0 17 -7 20 -45 20 -38 0
-45 3 -45 20 0 18 -7 20 -60 20 -53 0 -60 2 -60 20 0 18 -7 20 -60 20 -47 0
-60 3 -60 15 0 12 -13 15 -60 15 -53 0 -60 2 -60 20 0 17 -7 20 -40 20 -33 0
-40 3 -40 20 0 18 -7 20 -60 20 -53 0 -60 2 -60 20 0 18 -7 20 -80 20 -73 0
-80 2 -80 20 0 18 -7 20 -80 20 -73 0 -80 2 -80 20 0 18 -7 20 -80 20 -79 0
-80 0 -80 25 0 24 -2 25 -75 25 -68 0 -75 2 -75 20 0 18 -7 20 -85 20 -78 0
-85 2 -85 20 0 19 -7 20 -115 20 -108 0 -115 1 -115 20 0 19 -7 20 -105 20
-87 0 -105 3 -105 15 0 13 -22 15 -140 15 -133 0 -140 1 -140 20 0 19 -7 20
-140 20 l-140 0 0 500 c0 493 0 500 20 500 13 0 20 7 20 20 0 13 7 20 20 20
15 0 20 7 20 25 0 18 5 25 20 25 13 0 20 7 20 20 0 13 7 20 20 20 13 0 20 7
20 20 0 13 7 20 20 20 11 0 20 7 20 15 0 8 9 15 20 15 13 0 20 7 20 20 0 13 7
20 20 20 13 0 20 7 20 20 0 15 7 20 25 20 23 0 25 4 25 40 0 33 3 40 20 40 13
0 20 7 20 20 0 11 7 20 15 20 8 0 15 9 15 20 0 13 7 20 20 20 13 0 20 7 20 20
0 13 7 20 20 20 17 0 20 7 20 45 0 38 3 45 20 45 11 0 20 7 20 15 0 8 9 15 20
15 17 0 20 7 20 40 0 33 3 40 20 40 13 0 20 7 20 20 0 13 7 20 20 20 13 0 20
7 20 20 0 13 7 20 20 20 17 0 20 7 20 40 0 33 3 40 20 40 13 0 20 7 20 20 0
15 7 20 25 20 23 0 25 4 25 45 0 33 4 45 15 45 8 0 15 9 15 20 0 13 7 20 20
20 18 0 20 7 20 55 0 48 2 55 20 55 13 0 20 7 20 20 0 13 7 20 20 20 17 0 20
7 20 40 0 33 3 40 20 40 17 0 20 7 20 40 0 33 3 40 20 40 13 0 20 7 20 20 0
13 7 20 20 20 18 0 20 7 20 60 0 53 2 60 20 60 17 0 20 7 20 40 0 33 3 40 20
40 17 0 20 7 20 40 0 36 3 40 25 40 23 0 25 4 25 40 0 33 3 40 20 40 18 0 20
7 20 60 0 47 3 60 15 60 11 0 15 11 15 40 0 33 3 40 20 40 18 0 20 7 20 60 0
53 2 60 20 60 17 0 20 7 20 40 0 33 3 40 20 40 18 0 20 7 20 80 0 73 2 80 20
80 18 0 20 7 20 60 0 53 2 60 20 60 18 0 20 7 20 80 0 73 2 80 20 80 18 0 20
7 20 80 0 73 2 80 20 80 19 0 20 7 20 120 0 113 1 120 20 120 19 0 20 7 20
140 l0 140 25 0 25 0 0 700 c0 616 2 700 15 700 8 0 15 9 15 20 0 17 7 20 40
20 29 0 40 4 40 15 0 8 9 15 20 15 13 0 20 7 20 20 0 13 7 20 20 20 13 0 20 7
20 20 0 17 7 20 40 20 33 0 40 3 40 20 0 13 7 20 20 20 15 0 20 7 20 25 0 18
5 25 20 25 13 0 20 7 20 20 0 13 7 20 20 20 13 0 20 7 20 20 0 17 7 20 40 20
33 0 40 3 40 20 0 13 7 20 20 20 13 0 20 7 20 20 0 13 7 20 20 20 13 0 20 7
20 20 0 13 7 20 20 20 13 0 20 7 20 20 0 13 7 20 20 20 11 0 20 7 20 15 0 11
11 15 40 15 33 0 40 3 40 20 0 13 7 20 20 20 13 0 20 7 20 20 0 13 7 20 20 20
13 0 20 7 20 20 0 15 7 20 25 20 20 0 25 5 25 25 0 16 6 25 15 25 8 0 15 9 15
20 0 13 7 20 20 20 13 0 20 7 20 20 0 13 7 20 20 20 13 0 20 7 20 20 0 13 7
20 20 20 13 0 20 7 20 20 0 13 7 20 20 20 13 0 20 7 20 20 0 13 7 20 20 20 16
0 20 7 20 35 0 34 1 35 40 35 l40 0 0 40 c0 33 3 40 20 40 17 0 20 7 20 45 0
38 3 45 20 45 18 0 20 7 20 80 0 73 -2 80 -20 80 -16 0 -20 7 -20 35 0 28 -4
35 -20 35 -17 0 -20 7 -20 40 0 33 -3 40 -20 40 -13 0 -20 7 -20 20 0 13 -7
20 -20 20 -13 0 -20 7 -20 20 0 13 -7 20 -20 20 -15 0 -20 7 -20 25 0 18 -5
25 -20 25 -13 0 -20 7 -20 20 0 13 -7 20 -20 20 -13 0 -20 7 -20 20 0 13 -7
20 -20 20 -17 0 -20 7 -20 40 0 33 -3 40 -20 40 -11 0 -20 7 -20 15 0 8 -7 15
-15 15 -8 0 -15 9 -15 20 0 15 -7 20 -25 20 -22 0 -25 4 -25 40 0 33 -3 40
-20 40 -13 0 -20 7 -20 20 0 13 -7 20 -20 20 -15 0 -20 7 -20 25 0 18 -5 25
-20 25 -17 0 -20 7 -20 40 0 33 -3 40 -20 40 -13 0 -20 7 -20 20 0 13 -7 20
-20 20 -16 0 -20 7 -20 35 0 28 -4 35 -20 35 -13 0 -20 7 -20 20 0 13 -7 20
-20 20 -17 0 -20 7 -20 40 0 33 -3 40 -20 40 -13 0 -20 7 -20 20 0 13 -7 20
-20 20 -17 0 -20 7 -20 45 0 38 -3 45 -20 45 -17 0 -20 7 -20 40 0 33 -3 40
-20 40 -16 0 -20 7 -20 35 0 28 -4 35 -20 35 -17 0 -20 7 -20 40 0 33 -3 40
-20 40 -17 0 -20 7 -20 40 0 33 -3 40 -20 40 -18 0 -20 7 -20 65 0 58 -2 65
-20 65 -18 0 -20 7 -20 60 0 53 -2 60 -20 60 -18 0 -20 7 -20 55 0 48 -2 55
-20 55 -18 0 -20 7 -20 80 0 73 -2 80 -20 80 -17 0 -20 7 -20 45 0 38 -3 45
-20 45 -13 0 -20 7 -20 20 0 11 -7 20 -15 20 -8 0 -15 7 -15 15 0 11 -12 15
-45 15 -38 0 -45 3 -45 20 0 13 -7 20 -20 20 -13 0 -20 7 -20 20 0 19 -7 20
-100 20 -93 0 -100 1 -100 20 0 19 -7 20 -120 20 -113 0 -120 1 -120 20 0 19
-7 20 -120 20 -113 0 -120 1 -120 20 0 19 -7 20 -100 20 -93 0 -100 1 -100 20
0 18 -7 20 -80 20 -73 0 -80 2 -80 20 0 18 -7 20 -80 20 -79 0 -80 0 -80 25 0
25 -1 25 -80 25 -73 0 -80 2 -80 20 0 18 -7 20 -75 20 -60 0 -75 3 -75 15 0
12 -16 15 -85 15 -78 0 -85 2 -85 20 0 18 -7 20 -60 20 -53 0 -60 2 -60 20 0
18 -7 20 -60 20 -53 0 -60 2 -60 20 0 16 -7 20 -35 20 -28 0 -35 4 -35 20 0
18 -7 20 -85 20 -78 0 -85 2 -85 20 0 17 -7 20 -40 20 -33 0 -40 3 -40 20 0
18 -7 20 -55 20 -48 0 -55 2 -55 20 0 18 -7 20 -65 20 -58 0 -65 2 -65 20 0
17 -7 20 -40 20 -36 0 -40 3 -40 25 0 24 -3 25 -60 25 -47 0 -60 3 -60 15 0
10 -11 15 -35 15 -28 0 -35 4 -35 20 0 18 -7 20 -60 20 -53 0 -60 2 -60 20 0
17 -7 20 -45 20 -38 0 -45 3 -45 20 0 19 -7 20 -175 20 -168 0 -175 -1 -175
-20z m150 -360 c0 -18 7 -20 80 -20 73 0 80 -2 80 -20 0 -18 7 -20 65 -20 58
0 65 -2 65 -20 0 -17 7 -20 40 -20 33 0 40 -3 40 -20 0 -16 7 -20 35 -20 24 0
35 -5 35 -15 0 -12 13 -15 60 -15 53 0 60 -2 60 -20 0 -18 7 -20 60 -20 57 0
60 -1 60 -25 0 -23 4 -25 45 -25 38 0 45 -3 45 -20 0 -18 7 -20 55 -20 48 0
55 -2 55 -20 0 -18 7 -20 60 -20 53 0 60 -2 60 -20 0 -18 7 -20 60 -20 53 0
60 -2 60 -20 0 -18 7 -20 60 -20 53 0 60 -2 60 -20 0 -18 7 -20 60 -20 53 0
60 -2 60 -20 0 -18 7 -20 80 -20 73 0 80 -2 80 -20 0 -18 7 -20 80 -20 64 0
80 -3 80 -15 0 -12 13 -15 60 -15 53 0 60 -2 60 -20 0 -18 7 -20 80 -20 73 0
80 -2 80 -20 0 -18 7 -20 80 -20 79 0 80 0 80 -25 l0 -25 100 0 c93 0 100 -1
100 -20 0 -18 7 -20 80 -20 73 0 80 -2 80 -20 0 -19 7 -20 140 -20 133 0 140
-1 140 -20 0 -19 7 -20 120 -20 113 0 120 -1 120 -20 0 -13 7 -20 20 -20 18 0
20 -7 20 -55 0 -48 2 -55 20 -55 18 0 20 -7 20 -85 0 -78 2 -85 20 -85 17 0
20 -7 20 -40 0 -33 3 -40 20 -40 18 0 20 -7 20 -60 0 -53 2 -60 20 -60 16 0
20 -7 20 -35 0 -28 4 -35 20 -35 17 0 20 -7 20 -40 0 -36 3 -40 25 -40 23 0
25 -4 25 -45 0 -33 4 -45 15 -45 11 0 15 -11 15 -40 0 -33 3 -40 20 -40 17 0
20 -7 20 -40 0 -33 3 -40 20 -40 16 0 20 -7 20 -35 0 -28 4 -35 20 -35 17 0
20 -7 20 -40 0 -33 3 -40 20 -40 13 0 20 -7 20 -20 0 -13 7 -20 20 -20 17 0
20 -7 20 -45 0 -38 3 -45 20 -45 17 0 20 -7 20 -40 0 -33 3 -40 20 -40 13 0
20 -7 20 -20 0 -13 7 -20 20 -20 13 0 20 -7 20 -20 0 -13 7 -20 20 -20 16 0
20 -7 20 -35 0 -28 4 -35 20 -35 13 0 20 -7 20 -20 0 -13 7 -20 20 -20 13 0
20 -7 20 -20 0 -13 7 -20 20 -20 17 0 20 -7 20 -45 0 -38 3 -45 20 -45 13 0
20 -7 20 -20 0 -13 7 -20 20 -20 13 0 20 -7 20 -20 0 -13 7 -20 20 -20 13 0
20 -7 20 -20 0 -13 7 -20 20 -20 13 0 20 -7 20 -20 0 -13 7 -20 20 -20 13 0
20 -7 20 -20 0 -13 7 -20 20 -20 16 0 20 -7 20 -35 0 -28 4 -35 20 -35 17 0
20 -7 20 -40 0 -33 -3 -40 -20 -40 -13 0 -20 -7 -20 -20 0 -13 -7 -20 -20 -20
-15 0 -20 -7 -20 -25 0 -18 -5 -25 -20 -25 -13 0 -20 -7 -20 -20 0 -13 -7 -20
-20 -20 -13 0 -20 -7 -20 -20 0 -13 -7 -20 -20 -20 -13 0 -20 -7 -20 -20 0
-13 -7 -20 -20 -20 -13 0 -20 -7 -20 -20 0 -13 -7 -20 -20 -20 -11 0 -20 -7
-20 -15 0 -8 -9 -15 -20 -15 -13 0 -20 -7 -20 -20 0 -13 -7 -20 -20 -20 -13 0
-20 -7 -20 -20 0 -13 -7 -20 -20 -20 -13 0 -20 -7 -20 -20 0 -13 -7 -20 -20
-20 -13 0 -20 -7 -20 -20 0 -13 -7 -20 -20 -20 -13 0 -20 -7 -20 -20 0 -13 -7
-20 -20 -20 -15 0 -20 -7 -20 -25 0 -22 -4 -25 -40 -25 -33 0 -40 -3 -40 -20
0 -13 -7 -20 -20 -20 -13 0 -20 -7 -20 -20 0 -13 -7 -20 -20 -20 -13 0 -20 -7
-20 -20 0 -13 -7 -20 -20 -20 -11 0 -20 -7 -20 -15 0 -10 -11 -15 -35 -15
l-35 0 0 200 0 200 -25 0 c-16 0 -25 6 -25 15 0 8 -9 15 -20 15 -13 0 -20 7
-20 20 0 13 -7 20 -20 20 -13 0 -20 7 -20 20 0 17 -7 20 -40 20 -33 0 -40 3
-40 20 0 18 -7 20 -60 20 -53 0 -60 2 -60 20 0 18 -7 20 -55 20 -52 0 -55 1
-55 25 l0 25 -105 0 c-98 0 -105 1 -105 20 0 18 -7 20 -60 20 -53 0 -60 2 -60
20 0 18 -7 20 -80 20 -73 0 -80 2 -80 20 0 18 -7 20 -80 20 -73 0 -80 2 -80
20 0 19 -7 20 -95 20 -78 0 -95 3 -95 15 0 12 -18 15 -105 15 -98 0 -105 1
-105 20 0 19 -7 20 -115 20 -108 0 -115 1 -115 20 0 19 -7 20 -145 20 -138 0
-145 1 -145 20 0 19 -7 20 -180 20 -173 0 -180 1 -180 20 0 20 -7 20 -315 20
-308 0 -315 0 -315 20 0 19 -7 20 -200 20 -193 0 -200 -1 -200 -20 0 -20 -7
-20 -345 -20 -338 0 -345 0 -345 -20 0 -19 -7 -20 -200 -20 -193 0 -200 -1
-200 -20 0 -19 -7 -20 -140 -20 -133 0 -140 -1 -140 -20 0 -19 -7 -20 -115
-20 -108 0 -115 -1 -115 -20 0 -19 -7 -20 -105 -20 -87 0 -105 -3 -105 -15 0
-12 -17 -15 -95 -15 -88 0 -95 -1 -95 -20 0 -18 -7 -20 -80 -20 -73 0 -80 -2
-80 -20 0 -18 -7 -20 -85 -20 -78 0 -85 -2 -85 -20 0 -18 -7 -20 -75 -20 -68
0 -75 -2 -75 -20 0 -18 -7 -20 -60 -20 -57 0 -60 -1 -60 -25 0 -24 -2 -25 -65
-25 -58 0 -65 -2 -65 -20 0 -18 -7 -20 -75 -20 -68 0 -75 -2 -75 -20 0 -17 -7
-20 -40 -20 -33 0 -40 -3 -40 -20 0 -13 -7 -20 -20 -20 -13 0 -20 -7 -20 -20
0 -15 -7 -20 -25 -20 -16 0 -25 -6 -25 -15 0 -8 -9 -15 -20 -15 -19 0 -20 -7
-20 -200 l0 -200 -40 0 c-29 0 -40 4 -40 15 0 8 -7 15 -15 15 -8 0 -15 9 -15
20 0 13 -7 20 -20 20 -13 0 -20 7 -20 20 0 13 -7 20 -20 20 -13 0 -20 7 -20
20 0 17 -7 20 -40 20 -36 0 -40 3 -40 25 0 18 -5 25 -20 25 -13 0 -20 7 -20
20 0 13 -7 20 -20 20 -13 0 -20 7 -20 20 0 17 -7 20 -45 20 -38 0 -45 3 -45
20 0 13 -7 20 -20 20 -13 0 -20 7 -20 20 0 13 -7 20 -20 20 -13 0 -20 7 -20
20 0 11 -7 20 -15 20 -8 0 -15 7 -15 15 0 8 -9 15 -20 15 -13 0 -20 7 -20 20
0 13 -7 20 -20 20 -13 0 -20 7 -20 20 0 13 -7 20 -20 20 -13 0 -20 7 -20 20 0
13 -7 20 -20 20 -13 0 -20 7 -20 20 0 13 -7 20 -20 20 -15 0 -20 7 -20 25 0
18 -5 25 -20 25 -18 0 -20 7 -20 60 0 53 2 60 20 60 13 0 20 7 20 20 0 13 7
20 20 20 11 0 20 7 20 15 0 8 9 15 20 15 13 0 20 7 20 20 0 13 7 20 20 20 17
0 20 7 20 40 0 33 3 40 20 40 13 0 20 7 20 20 0 13 7 20 20 20 13 0 20 7 20
20 0 11 7 20 15 20 11 0 15 12 15 45 0 38 3 45 20 45 13 0 20 7 20 20 0 13 7
20 20 20 13 0 20 7 20 20 0 13 7 20 20 20 13 0 20 7 20 20 0 15 7 20 25 20 22
0 25 4 25 35 0 28 4 35 20 35 13 0 20 7 20 20 0 13 7 20 20 20 17 0 20 7 20
40 0 33 3 40 20 40 17 0 20 7 20 45 0 38 3 45 20 45 13 0 20 7 20 20 0 13 7
20 20 20 17 0 20 7 20 40 0 33 3 40 20 40 16 0 20 7 20 35 0 24 5 35 15 35 11
0 15 11 15 40 0 33 3 40 20 40 17 0 20 7 20 40 0 33 3 40 20 40 17 0 20 7 20
45 0 38 3 45 20 45 17 0 20 7 20 40 0 36 3 40 25 40 24 0 25 3 25 55 0 48 2
55 20 55 17 0 20 7 20 40 0 33 3 40 20 40 18 0 20 7 20 85 0 78 2 85 20 85 17
0 20 7 20 40 0 33 3 40 20 40 18 0 20 7 20 55 l0 55 35 0 c28 0 35 4 35 20 0
19 7 20 125 20 118 0 125 1 125 20 0 19 7 20 95 20 88 0 95 1 95 20 0 19 7 20
105 20 98 0 105 1 105 20 0 19 7 20 95 20 95 0 95 0 95 25 0 25 1 25 80 25 73
0 80 2 80 20 0 18 7 20 85 20 78 0 85 2 85 20 0 18 7 20 75 20 60 0 75 3 75
15 0 12 16 15 85 15 78 0 85 2 85 20 0 18 7 20 60 20 53 0 60 2 60 20 0 18 7
20 55 20 48 0 55 2 55 20 0 18 7 20 60 20 53 0 60 2 60 20 0 18 7 20 65 20 58
0 65 2 65 20 0 18 7 20 55 20 48 0 55 2 55 20 0 18 7 20 60 20 53 0 60 2 60
20 0 18 7 20 65 20 63 0 65 1 65 25 0 23 4 25 40 25 33 0 40 3 40 20 0 18 7
20 55 20 42 0 55 3 55 15 0 11 11 15 40 15 33 0 40 3 40 20 0 17 7 20 40 20
33 0 40 3 40 20 0 17 7 20 45 20 38 0 45 3 45 20 0 17 7 20 40 20 33 0 40 3
40 20 0 11 7 20 15 20 8 0 15 -9 15 -20z m520 -2835 l0 -25 260 0 c253 0 260
-1 260 -20 0 -19 7 -20 160 -20 153 0 160 -1 160 -20 0 -19 7 -20 105 -20 98
0 105 -1 105 -20 0 -19 7 -20 135 -20 128 0 135 -1 135 -20 0 -19 7 -20 105
-20 87 0 105 -3 105 -15 0 -12 15 -15 75 -15 68 0 75 -2 75 -20 0 -18 7 -20
80 -20 73 0 80 -2 80 -20 0 -18 7 -20 80 -20 73 0 80 -2 80 -20 0 -18 7 -20
80 -20 73 0 80 -2 80 -20 0 -18 7 -20 60 -20 53 0 60 -2 60 -20 0 -17 7 -20
45 -20 l45 0 0 -360 0 -360 -45 0 c-38 0 -45 3 -45 20 0 18 -7 20 -80 20 -73
0 -80 2 -80 20 0 18 -7 20 -60 20 -47 0 -60 3 -60 15 0 12 -18 15 -100 15 -93
0 -100 1 -100 20 0 18 -7 20 -80 20 -73 0 -80 2 -80 20 0 19 -7 20 -100 20
-93 0 -100 1 -100 20 0 19 -7 20 -100 20 l-100 0 0 25 0 25 -120 0 c-113 0
-120 1 -120 20 0 19 -7 20 -140 20 -133 0 -140 1 -140 20 0 19 -7 20 -200 20
-193 0 -200 1 -200 20 0 20 -7 20 -800 20 -793 0 -800 0 -800 -20 0 -19 -7
-20 -180 -20 -173 0 -180 -1 -180 -20 0 -19 -7 -20 -155 -20 -148 0 -155 -1
-155 -20 0 -19 -7 -20 -120 -20 l-120 0 0 -25 0 -25 -105 0 c-98 0 -105 -1
-105 -20 0 -19 -7 -20 -95 -20 -88 0 -95 -1 -95 -20 0 -18 -7 -20 -80 -20 -73
0 -80 -2 -80 -20 0 -18 -7 -20 -85 -20 -69 0 -85 -3 -85 -15 0 -12 -17 -15
-95 -15 -88 0 -95 -1 -95 -20 0 -17 -7 -20 -40 -20 -33 0 -40 -3 -40 -20 0
-18 -7 -20 -65 -20 l-65 0 0 360 0 360 45 0 c38 0 45 3 45 20 0 18 7 20 60 20
53 0 60 2 60 20 0 18 7 20 75 20 68 0 75 2 75 20 0 18 7 20 85 20 78 0 85 2
85 20 0 18 7 20 80 20 73 0 80 2 80 20 0 18 7 20 75 20 60 0 75 3 75 15 0 12
18 15 105 15 98 0 105 1 105 20 0 19 7 20 115 20 108 0 115 1 115 20 0 19 7
20 125 20 118 0 125 1 125 20 0 19 7 20 180 20 173 0 180 1 180 20 0 19 7 20
220 20 l220 0 0 25 0 25 495 0 495 0 0 -25z m120 -1115 c0 -19 7 -20 200 -20
193 0 200 -1 200 -20 0 -19 7 -20 120 -20 113 0 120 -1 120 -20 0 -19 7 -20
120 -20 113 0 120 -1 120 -20 0 -15 7 -20 25 -20 18 0 25 -5 25 -20 0 -15 -7
-20 -25 -20 -20 0 -25 -5 -25 -25 0 -22 -4 -25 -40 -25 -33 0 -40 -3 -40 -20
0 -17 -7 -20 -40 -20 -33 0 -40 -3 -40 -20 0 -17 -7 -20 -40 -20 -29 0 -40 -4
-40 -15 0 -12 -13 -15 -55 -15 -48 0 -55 -2 -55 -20 0 -18 -7 -20 -85 -20 -78
0 -85 -2 -85 -20 0 -18 -7 -20 -80 -20 -73 0 -80 -2 -80 -20 0 -19 -7 -20
-120 -20 -113 0 -120 -1 -120 -20 0 -20 -7 -20 -535 -20 -528 0 -535 0 -535
20 0 19 -7 20 -145 20 -138 0 -145 1 -145 20 0 18 -7 20 -75 20 -68 0 -75 2
-75 20 0 18 -7 20 -85 20 -78 0 -85 2 -85 20 0 18 -7 20 -60 20 -47 0 -60 3
-60 15 0 10 -11 15 -35 15 -28 0 -35 4 -35 20 0 17 -7 20 -40 20 -33 0 -40 3
-40 20 0 17 -7 20 -40 20 -36 0 -40 3 -40 25 0 20 -5 25 -25 25 -18 0 -25 5
-25 20 0 15 7 20 25 20 18 0 25 5 25 20 0 19 7 20 115 20 108 0 115 1 115 20
0 19 7 20 145 20 138 0 145 1 145 20 0 19 7 20 180 20 173 0 180 1 180 20 0
20 7 20 595 20 588 0 595 0 595 -20z m-2600 -250 c0 -13 7 -20 20 -20 13 0 20
-7 20 -20 0 -13 7 -20 20 -20 16 0 20 -7 20 -35 0 -35 0 -35 45 -35 38 0 45
-3 45 -20 0 -13 7 -20 20 -20 13 0 20 -7 20 -20 0 -13 7 -20 20 -20 13 0 20
-7 20 -20 0 -16 7 -20 35 -20 28 0 35 -4 35 -20 0 -13 7 -20 20 -20 13 0 20
-7 20 -20 0 -17 7 -20 40 -20 33 0 40 -3 40 -20 0 -17 7 -20 45 -20 41 0 45
-2 45 -25 0 -22 4 -25 40 -25 33 0 40 -3 40 -20 0 -18 7 -20 55 -20 42 0 55
-3 55 -15 0 -12 16 -15 80 -15 73 0 80 -2 80 -20 0 -18 7 -20 85 -20 78 0 85
-2 85 -20 0 -19 7 -20 95 -20 88 0 95 -1 95 -20 0 -19 7 -20 145 -20 138 0
145 -1 145 -20 0 -20 7 -20 475 -20 468 0 475 0 475 20 0 19 7 20 145 20 138
0 145 1 145 20 0 19 7 20 95 20 88 0 95 1 95 20 0 18 7 20 85 20 78 0 85 2 85
20 0 18 7 20 75 20 60 0 75 3 75 15 0 11 11 15 40 15 33 0 40 3 40 20 0 18 7
20 60 20 57 0 60 1 60 25 0 23 4 25 45 25 38 0 45 3 45 20 0 16 7 20 35 20 28
0 35 4 35 20 0 17 7 20 40 20 33 0 40 3 40 20 0 13 7 20 20 20 13 0 20 7 20
20 0 17 7 20 40 20 33 0 40 3 40 20 0 13 7 20 20 20 13 0 20 7 20 20 0 13 7
20 20 20 16 0 20 7 20 35 0 31 3 35 25 35 18 0 25 5 25 20 0 13 7 20 20 20 13
0 20 7 20 20 0 18 7 20 55 20 48 0 55 -2 55 -20 0 -18 7 -20 80 -20 73 0 80
-2 80 -20 0 -18 7 -20 80 -20 64 0 80 -3 80 -15 0 -12 16 -15 80 -15 73 0 80
-2 80 -20 0 -18 7 -20 60 -20 53 0 60 -2 60 -20 0 -18 7 -20 65 -20 l65 0 0
-520 c0 -513 0 -520 -20 -520 -19 0 -20 -7 -20 -120 l0 -120 -25 0 -25 0 0
-100 c0 -93 -1 -100 -20 -100 -18 0 -20 -7 -20 -80 0 -73 -2 -80 -20 -80 -18
0 -20 -7 -20 -60 0 -53 -2 -60 -20 -60 -18 0 -20 -7 -20 -80 0 -73 -2 -80 -20
-80 -17 0 -20 -7 -20 -40 0 -33 -3 -40 -20 -40 -18 0 -20 -7 -20 -60 0 -53 -2
-60 -20 -60 -17 0 -20 -7 -20 -40 0 -33 -3 -40 -20 -40 -18 0 -20 -7 -20 -60
0 -53 -2 -60 -20 -60 -17 0 -20 -7 -20 -40 0 -29 -4 -40 -15 -40 -12 0 -15
-13 -15 -60 0 -57 -1 -60 -25 -60 -22 0 -25 -4 -25 -40 0 -33 -3 -40 -20 -40
-17 0 -20 -7 -20 -40 0 -33 -3 -40 -20 -40 -17 0 -20 -7 -20 -40 0 -33 -3 -40
-20 -40 -11 0 -20 -7 -20 -15 0 -8 -9 -15 -20 -15 -17 0 -20 -7 -20 -45 0 -38
-3 -45 -20 -45 -17 0 -20 -7 -20 -40 0 -33 -3 -40 -20 -40 -17 0 -20 -7 -20
-40 0 -33 -3 -40 -20 -40 -13 0 -20 -7 -20 -20 0 -13 -7 -20 -20 -20 -17 0
-20 -7 -20 -40 0 -29 -4 -40 -15 -40 -10 0 -15 -11 -15 -35 0 -28 -4 -35 -20
-35 -15 0 -20 -7 -20 -25 0 -20 -5 -25 -25 -25 -18 0 -25 -5 -25 -20 0 -13 -7
-20 -20 -20 -17 0 -20 -7 -20 -40 0 -33 -3 -40 -20 -40 -13 0 -20 -7 -20 -20
0 -13 -7 -20 -20 -20 -13 0 -20 -7 -20 -20 0 -13 -7 -20 -20 -20 -13 0 -20 -7
-20 -20 0 -13 -7 -20 -20 -20 -17 0 -20 -7 -20 -40 0 -33 -3 -40 -20 -40 -11
0 -20 -7 -20 -15 0 -8 -9 -15 -20 -15 -13 0 -20 -7 -20 -20 0 -11 -7 -20 -15
-20 -9 0 -15 -9 -15 -25 0 -18 -5 -25 -20 -25 -13 0 -20 -7 -20 -20 0 -13 -7
-20 -20 -20 -13 0 -20 -7 -20 -20 0 -15 -7 -20 -25 -20 -18 0 -25 -5 -25 -20
0 -13 -7 -20 -20 -20 -13 0 -20 -7 -20 -20 0 -13 -7 -20 -20 -20 -13 0 -20 -7
-20 -20 0 -13 -7 -20 -20 -20 -13 0 -20 -7 -20 -20 0 -13 -7 -20 -20 -20 -13
0 -20 -7 -20 -20 0 -13 -7 -20 -20 -20 -11 0 -20 -7 -20 -15 0 -8 -9 -15 -20
-15 -13 0 -20 -7 -20 -20 0 -13 -7 -20 -20 -20 -13 0 -20 -7 -20 -20 0 -16 -7
-20 -35 -20 -31 0 -35 -3 -35 -25 0 -20 -5 -25 -25 -25 -18 0 -25 -5 -25 -20
0 -13 -7 -20 -20 -20 -13 0 -20 -7 -20 -20 0 -17 -7 -20 -40 -20 -33 0 -40 -3
-40 -20 0 -17 -7 -20 -40 -20 -33 0 -40 -3 -40 -20 0 -13 -7 -20 -20 -20 -13
0 -20 -7 -20 -20 0 -16 -7 -20 -35 -20 -28 0 -35 -4 -35 -20 0 -17 -7 -20 -40
-20 -29 0 -40 -4 -40 -15 0 -12 -14 -15 -65 -15 -58 0 -65 -2 -65 -20 0 -18
-7 -20 -60 -20 -53 0 -60 -2 -60 -20 0 -19 -7 -20 -95 -20 -95 0 -95 0 -95
-25 l0 -25 -265 0 -265 0 0 25 c0 25 -1 25 -80 25 -73 0 -80 2 -80 20 0 18 -7
20 -55 20 -48 0 -55 2 -55 20 0 18 -7 20 -65 20 -51 0 -65 3 -65 15 0 11 -11
15 -40 15 -33 0 -40 3 -40 20 0 17 -7 20 -40 20 -33 0 -40 3 -40 20 0 11 -7
20 -15 20 -8 0 -15 9 -15 20 0 17 -7 20 -40 20 -33 0 -40 3 -40 20 0 13 -7 20
-20 20 -13 0 -20 7 -20 20 0 17 -7 20 -45 20 -38 0 -45 3 -45 20 0 13 -7 20
-20 20 -15 0 -20 7 -20 25 0 23 -4 25 -40 25 -33 0 -40 3 -40 20 0 13 -7 20
-20 20 -13 0 -20 7 -20 20 0 13 -7 20 -20 20 -11 0 -20 7 -20 15 0 8 -7 15
-15 15 -8 0 -15 9 -15 20 0 13 -7 20 -20 20 -13 0 -20 7 -20 20 0 17 -7 20
-40 20 l-40 0 0 40 c0 33 -3 40 -20 40 -13 0 -20 7 -20 20 0 15 -7 20 -25 20
-18 0 -25 5 -25 20 0 13 -7 20 -20 20 -13 0 -20 7 -20 20 0 13 -7 20 -20 20
-15 0 -20 7 -20 25 0 18 -5 25 -20 25 -13 0 -20 7 -20 20 0 13 -7 20 -20 20
-11 0 -20 7 -20 15 0 8 -7 15 -15 15 -8 0 -15 9 -15 20 0 13 -7 20 -20 20 -17
0 -20 7 -20 40 0 33 -3 40 -20 40 -13 0 -20 7 -20 20 0 13 -7 20 -20 20 -17 0
-20 7 -20 40 0 33 -3 40 -20 40 -13 0 -20 7 -20 20 0 15 -7 20 -25 20 -18 0
-25 5 -25 20 0 13 -7 20 -20 20 -17 0 -20 7 -20 45 0 38 -3 45 -20 45 -11 0
-20 7 -20 15 0 8 -9 15 -20 15 -17 0 -20 7 -20 40 0 33 -3 40 -20 40 -17 0
-20 7 -20 40 0 29 -4 40 -15 40 -8 0 -15 9 -15 20 0 13 -7 20 -20 20 -17 0
-20 7 -20 40 0 33 -3 40 -20 40 -17 0 -20 7 -20 45 0 38 -3 45 -20 45 -11 0
-20 7 -20 15 0 8 -9 15 -20 15 -17 0 -20 7 -20 40 0 33 -3 40 -20 40 -17 0
-20 7 -20 40 0 36 -2 40 -25 40 -22 0 -25 4 -25 40 0 33 -3 40 -20 40 -18 0
-20 7 -20 60 0 53 -2 60 -20 60 -17 0 -20 7 -20 40 0 33 -3 40 -20 40 -18 0
-20 7 -20 60 0 53 -2 60 -20 60 -17 0 -20 7 -20 40 0 29 -4 40 -15 40 -12 0
-15 13 -15 60 0 53 -2 60 -20 60 -18 0 -20 7 -20 60 0 53 -2 60 -20 60 -18 0
-20 7 -20 60 0 53 -2 60 -20 60 -18 0 -20 7 -20 60 0 53 -2 60 -20 60 -18 0
-20 7 -20 80 0 73 -2 80 -20 80 -19 0 -20 7 -20 100 l0 100 -25 0 -25 0 0 140
c0 133 -1 140 -20 140 -20 0 -20 7 -20 500 l0 500 65 0 c58 0 65 2 65 20 0 18
7 20 60 20 53 0 60 2 60 20 0 18 7 20 75 20 60 0 75 3 75 15 0 12 16 15 85 15
78 0 85 2 85 20 0 18 7 20 80 20 73 0 80 2 80 20 0 18 7 20 55 20 48 0 55 -2
55 -20z m800 -4750 c0 -17 7 -20 40 -20 33 0 40 -3 40 -20 0 -17 7 -20 45 -20
38 0 45 -3 45 -20 0 -17 7 -20 40 -20 33 0 40 -3 40 -20 0 -17 7 -20 40 -20
33 0 40 -3 40 -20 0 -16 7 -20 35 -20 28 0 35 -4 35 -20 0 -17 7 -20 40 -20
33 0 40 -3 40 -20 0 -18 7 -20 65 -20 51 0 65 -3 65 -15 0 -12 15 -15 75 -15
68 0 75 -2 75 -20 0 -19 7 -20 125 -20 118 0 125 -1 125 -20 0 -19 7 -20 220
-20 213 0 220 1 220 20 0 19 7 20 95 20 88 0 95 1 95 20 0 18 7 20 80 20 64 0
80 3 80 15 0 12 14 15 65 15 58 0 65 2 65 20 0 16 7 20 35 20 28 0 35 4 35 20
0 17 7 20 40 20 33 0 40 3 40 20 0 17 7 20 40 20 33 0 40 3 40 20 0 17 7 20
40 20 33 0 40 3 40 20 0 17 7 20 45 20 38 0 45 3 45 20 0 16 7 20 35 20 28 0
35 4 35 20 0 13 7 20 20 20 20 0 20 -7 20 -415 0 -408 0 -415 -20 -415 -15 0
-20 -7 -20 -25 0 -16 -6 -25 -15 -25 -8 0 -15 -9 -15 -20 0 -13 -7 -20 -20
-20 -13 0 -20 -7 -20 -20 0 -15 -7 -20 -25 -20 -18 0 -25 -5 -25 -20 0 -13 -7
-20 -20 -20 -13 0 -20 -7 -20 -20 0 -13 -7 -20 -20 -20 -13 0 -20 -7 -20 -20
0 -13 -7 -20 -20 -20 -11 0 -20 -7 -20 -15 0 -11 -11 -15 -40 -15 -33 0 -40
-3 -40 -20 0 -13 -7 -20 -20 -20 -13 0 -20 -7 -20 -20 0 -13 -7 -20 -20 -20
-13 0 -20 -7 -20 -20 0 -11 -7 -20 -15 -20 -8 0 -15 -9 -15 -20 0 -13 -7 -20
-20 -20 -15 0 -20 -7 -20 -25 0 -18 -5 -25 -20 -25 -13 0 -20 -7 -20 -20 0
-15 -7 -20 -25 -20 -18 0 -25 -5 -25 -20 0 -13 -7 -20 -20 -20 -13 0 -20 -7
-20 -20 0 -13 -7 -20 -20 -20 -13 0 -20 -7 -20 -20 0 -13 -7 -20 -20 -20 -13
0 -20 -7 -20 -20 0 -13 -7 -20 -20 -20 -11 0 -20 -7 -20 -15 0 -8 -9 -15 -20
-15 -13 0 -20 -7 -20 -20 0 -13 -7 -20 -20 -20 -13 0 -20 -7 -20 -20 0 -11 -7
-20 -15 -20 -8 0 -15 -9 -15 -20 0 -13 -7 -20 -20 -20 -13 0 -20 -7 -20 -20 0
-17 -7 -20 -40 -20 -36 0 -40 -2 -40 -25 0 -20 -5 -25 -25 -25 -22 0 -25 -4
-25 -40 l0 -40 -40 0 -40 0 0 -40 0 -40 -40 0 c-29 0 -40 -4 -40 -15 0 -11
-11 -15 -40 -15 -29 0 -40 4 -40 15 0 8 -7 15 -15 15 -8 0 -15 9 -15 20 0 17
-7 20 -40 20 l-40 0 0 40 c0 33 -3 40 -20 40 -13 0 -20 7 -20 20 0 17 -7 20
-45 20 -41 0 -45 2 -45 25 0 18 -5 25 -20 25 -13 0 -20 7 -20 20 0 13 -7 20
-20 20 -13 0 -20 7 -20 20 0 13 -7 20 -20 20 -13 0 -20 7 -20 20 0 13 -7 20
-20 20 -13 0 -20 7 -20 20 0 11 -7 20 -15 20 -8 0 -15 7 -15 15 0 8 -9 15 -20
15 -13 0 -20 7 -20 20 0 13 -7 20 -20 20 -13 0 -20 7 -20 20 0 13 -7 20 -20
20 -13 0 -20 7 -20 20 0 15 -7 20 -25 20 -18 0 -25 5 -25 20 0 13 -7 20 -20
20 -13 0 -20 7 -20 20 0 13 -7 20 -20 20 -15 0 -20 7 -20 25 0 23 -4 25 -40
25 -33 0 -40 3 -40 20 0 13 -7 20 -20 20 -13 0 -20 7 -20 20 0 11 -7 20 -15
20 -8 0 -15 9 -15 20 0 13 -7 20 -20 20 -13 0 -20 7 -20 20 0 13 -7 20 -20 20
-11 0 -20 7 -20 15 0 8 -9 15 -20 15 -13 0 -20 7 -20 20 0 13 -7 20 -20 20
-13 0 -20 7 -20 20 0 15 -7 20 -25 20 -18 0 -25 5 -25 20 0 13 -7 20 -20 20
-13 0 -20 7 -20 20 0 13 -7 20 -20 20 -13 0 -20 7 -20 20 0 13 -7 20 -20 20
-15 0 -20 7 -20 25 0 18 -5 25 -20 25 -20 0 -20 7 -20 415 0 408 0 415 20 415
13 0 20 -7 20 -20z m-400 -1000 c0 -13 7 -20 20 -20 13 0 20 -7 20 -20 0 -17
7 -20 45 -20 45 0 45 0 45 -35 0 -34 1 -35 40 -35 33 0 40 -3 40 -20 0 -13 7
-20 20 -20 13 0 20 -7 20 -20 0 -13 7 -20 20 -20 13 0 20 -7 20 -20 0 -11 7
-20 15 -20 9 0 15 -9 15 -25 0 -18 5 -25 20 -25 13 0 20 -7 20 -20 0 -13 7
-20 20 -20 13 0 20 -7 20 -20 0 -13 7 -20 20 -20 13 0 20 -7 20 -20 0 -13 7
-20 20 -20 13 0 20 -7 20 -20 0 -13 7 -20 20 -20 13 0 20 -7 20 -20 0 -15 7
-20 25 -20 16 0 25 -6 25 -15 0 -8 9 -15 20 -15 13 0 20 -7 20 -20 0 -13 7
-20 20 -20 13 0 20 -7 20 -20 0 -13 7 -20 20 -20 13 0 20 -7 20 -20 0 -13 7
-20 20 -20 13 0 20 -7 20 -20 0 -16 7 -20 35 -20 35 0 35 0 35 -45 l0 -45 40
0 40 0 0 -40 0 -40 40 0 c33 0 40 -3 40 -20 0 -15 7 -20 25 -20 16 0 25 -6 25
-15 0 -8 9 -15 20 -15 13 0 20 -7 20 -20 0 -13 7 -20 20 -20 13 0 20 -7 20
-20 0 -13 7 -20 20 -20 13 0 20 -7 20 -20 0 -11 7 -20 15 -20 8 0 15 -9 15
-20 0 -13 7 -20 20 -20 13 0 20 -7 20 -20 0 -13 7 -20 20 -20 15 0 20 -7 20
-25 0 -18 5 -25 20 -25 18 0 20 -7 20 -60 0 -53 -2 -60 -20 -60 -11 0 -20 -7
-20 -15 0 -8 -9 -15 -20 -15 -13 0 -20 -7 -20 -20 0 -13 -7 -20 -20 -20 -13 0
-20 -7 -20 -20 0 -11 -7 -20 -15 -20 -8 0 -15 -9 -15 -20 0 -13 -7 -20 -20
-20 -13 0 -20 -7 -20 -20 0 -13 -7 -20 -20 -20 -13 0 -20 -7 -20 -20 0 -13 -7
-20 -20 -20 -13 0 -20 -7 -20 -20 0 -15 -7 -20 -25 -20 -20 0 -25 -5 -25 -25
0 -18 -5 -25 -20 -25 -13 0 -20 -7 -20 -20 0 -13 -7 -20 -20 -20 -13 0 -20 -7
-20 -20 0 -13 -7 -20 -20 -20 -11 0 -20 -7 -20 -15 0 -8 -9 -15 -20 -15 -13 0
-20 -7 -20 -20 0 -13 -7 -20 -20 -20 -13 0 -20 -7 -20 -20 0 -11 -7 -20 -15
-20 -8 0 -15 -9 -15 -20 0 -13 -7 -20 -20 -20 -13 0 -20 -7 -20 -20 0 -13 -7
-20 -20 -20 -13 0 -20 -7 -20 -20 0 -13 -7 -20 -20 -20 -19 0 -20 -7 -20 -105
0 -98 1 -105 20 -105 11 0 20 -7 20 -15 0 -8 9 -15 20 -15 13 0 20 -7 20 -20
0 -13 7 -20 20 -20 13 0 20 -7 20 -20 0 -11 7 -20 15 -20 8 0 15 -9 15 -20 0
-13 7 -20 20 -20 13 0 20 -7 20 -20 0 -13 7 -20 20 -20 13 0 20 -7 20 -20 0
-13 7 -20 20 -20 13 0 20 -7 20 -20 0 -13 7 -20 20 -20 15 0 20 -7 20 -25 0
-18 5 -25 20 -25 13 0 20 -7 20 -20 0 -15 7 -20 25 -20 18 0 25 -5 25 -20 0
-13 7 -20 20 -20 11 0 20 -7 20 -15 0 -8 9 -15 20 -15 13 0 20 -7 20 -20 0
-13 7 -20 20 -20 13 0 20 -7 20 -20 0 -11 7 -20 15 -20 12 0 15 -18 15 -100 0
-82 -3 -100 -15 -100 -12 0 -15 -16 -15 -80 0 -73 -2 -80 -20 -80 -19 0 -20
-7 -20 -100 0 -93 -1 -100 -20 -100 -19 0 -20 -7 -20 -100 0 -93 -1 -100 -20
-100 -19 0 -20 -7 -20 -100 l0 -100 -25 0 c-25 0 -25 -1 -25 -85 0 -78 -2 -85
-20 -85 -19 0 -20 -7 -20 -95 0 -88 -1 -95 -20 -95 -19 0 -20 -7 -20 -100 0
-93 -1 -100 -20 -100 -19 0 -20 -7 -20 -100 0 -93 -1 -100 -20 -100 -19 0 -20
-7 -20 -100 0 -93 -1 -100 -20 -100 -18 0 -20 -7 -20 -80 0 -64 -3 -80 -15
-80 -12 0 -15 -18 -15 -100 0 -93 -1 -100 -20 -100 -19 0 -20 -7 -20 -100 0
-93 -1 -100 -20 -100 -18 0 -20 -7 -20 -60 l0 -60 -40 0 c-33 0 -40 -3 -40
-20 0 -20 -7 -20 -2240 -20 -2233 0 -2240 0 -2240 20 0 13 -7 20 -20 20 -20 0
-20 7 -20 1595 0 1588 0 1595 20 1595 18 0 20 7 20 85 0 78 2 85 20 85 18 0
20 7 20 60 0 53 2 60 20 60 16 0 20 7 20 35 0 24 5 35 15 35 11 0 15 11 15 40
0 33 3 40 20 40 17 0 20 7 20 45 0 41 2 45 25 45 18 0 25 5 25 20 0 13 7 20
20 20 17 0 20 7 20 40 0 33 3 40 20 40 13 0 20 7 20 20 0 13 7 20 20 20 13 0
20 7 20 20 0 13 7 20 20 20 11 0 20 7 20 15 0 8 9 15 20 15 13 0 20 7 20 20 0
13 7 20 20 20 13 0 20 7 20 20 0 13 7 20 20 20 13 0 20 7 20 20 0 11 7 20 15
20 9 0 15 9 15 25 0 18 5 25 20 25 13 0 20 7 20 20 0 13 7 20 20 20 13 0 20 7
20 20 0 15 7 20 25 20 18 0 25 5 25 20 0 13 7 20 20 20 13 0 20 7 20 20 0 17
7 20 40 20 33 0 40 3 40 20 0 13 7 20 20 20 11 0 20 7 20 15 0 11 11 15 40 15
33 0 40 3 40 20 0 13 7 20 20 20 13 0 20 7 20 20 0 16 7 20 35 20 28 0 35 4
35 20 0 17 7 20 45 20 38 0 45 3 45 20 0 13 7 20 20 20 15 0 20 7 20 25 0 23
4 25 40 25 33 0 40 3 40 20 0 17 7 20 40 20 33 0 40 3 40 20 0 18 7 20 55 20
48 0 55 2 55 20 0 17 7 20 45 20 38 0 45 3 45 20 0 13 7 20 20 20 11 0 20 7
20 15 0 12 13 15 60 15 53 0 60 2 60 20 0 18 7 20 55 20 48 0 55 2 55 20 0 17
7 20 40 20 33 0 40 3 40 20 0 18 7 20 65 20 58 0 65 2 65 20 0 18 7 20 80 20
73 0 80 2 80 20 0 18 7 20 55 20 52 0 55 1 55 25 0 25 1 25 85 25 78 0 85 2
85 20 0 18 7 20 80 20 73 0 80 2 80 20 0 18 7 20 75 20 68 0 75 2 75 20 0 18
7 20 85 20 78 0 85 2 85 20 0 19 7 20 95 20 78 0 95 3 95 15 0 13 23 15 145
15 138 0 145 1 145 20 0 19 7 20 115 20 108 0 115 1 115 20 0 19 7 20 160 20
153 0 160 -1 160 -20z m3320 0 c0 -19 7 -20 125 -20 118 0 125 -1 125 -20 0
-19 7 -20 135 -20 113 0 135 -2 135 -15 0 -12 18 -15 100 -15 93 0 100 -1 100
-20 0 -19 7 -20 100 -20 93 0 100 -1 100 -20 0 -18 7 -20 85 -20 78 0 85 -2
85 -20 0 -18 7 -20 75 -20 68 0 75 -2 75 -20 0 -18 7 -20 80 -20 79 0 80 0 80
-25 0 -25 1 -25 80 -25 73 0 80 -2 80 -20 0 -18 7 -20 60 -20 53 0 60 -2 60
-20 0 -18 7 -20 60 -20 53 0 60 -2 60 -20 0 -18 7 -20 60 -20 53 0 60 -2 60
-20 0 -18 7 -20 60 -20 53 0 60 -2 60 -20 0 -17 7 -20 40 -20 29 0 40 -4 40
-15 0 -12 13 -15 60 -15 53 0 60 -2 60 -20 0 -17 7 -20 40 -20 33 0 40 -3 40
-20 0 -18 7 -20 60 -20 53 0 60 -2 60 -20 0 -13 7 -20 20 -20 13 0 20 -7 20
-20 0 -18 7 -20 60 -20 57 0 60 -1 60 -25 0 -18 5 -25 20 -25 13 0 20 -7 20
-20 0 -17 7 -20 40 -20 33 0 40 -3 40 -20 0 -17 7 -20 40 -20 33 0 40 -3 40
-20 0 -13 7 -20 20 -20 13 0 20 -7 20 -20 0 -17 7 -20 40 -20 29 0 40 -4 40
-15 0 -8 9 -15 20 -15 13 0 20 -7 20 -20 0 -17 7 -20 40 -20 33 0 40 -3 40
-20 0 -17 7 -20 40 -20 33 0 40 -3 40 -20 0 -13 7 -20 20 -20 13 0 20 -7 20
-20 0 -13 7 -20 20 -20 13 0 20 -7 20 -20 0 -13 7 -20 20 -20 15 0 20 -7 20
-25 0 -18 5 -25 20 -25 13 0 20 -7 20 -20 0 -13 7 -20 20 -20 13 0 20 -7 20
-20 0 -17 7 -20 40 -20 39 0 40 -1 40 -35 0 -28 4 -35 20 -35 13 0 20 -7 20
-20 0 -13 7 -20 20 -20 13 0 20 -7 20 -20 0 -13 7 -20 20 -20 13 0 20 -7 20
-20 0 -13 7 -20 20 -20 17 0 20 -7 20 -40 0 -33 3 -40 20 -40 13 0 20 -7 20
-20 0 -11 7 -20 15 -20 9 0 15 -9 15 -25 0 -20 5 -25 25 -25 23 0 25 -4 25
-40 0 -33 3 -40 20 -40 16 0 20 -7 20 -35 0 -28 4 -35 20 -35 18 0 20 -7 20
-60 0 -53 2 -60 20 -60 18 0 20 -7 20 -85 0 -78 2 -85 20 -85 20 0 20 -7 20
-1595 l0 -1595 -105 0 c-98 0 -105 -1 -105 -20 0 -20 -7 -20 -2075 -20 -2068
0 -2075 0 -2075 20 0 19 -7 20 -120 20 l-120 0 0 80 c0 73 -2 80 -20 80 -18 0
-20 7 -20 80 0 73 -2 80 -20 80 -19 0 -20 7 -20 100 0 93 -1 100 -20 100 -19
0 -20 7 -20 100 0 93 -1 100 -20 100 -18 0 -20 7 -20 80 0 64 -3 80 -15 80
-12 0 -15 18 -15 100 0 93 -1 100 -20 100 -19 0 -20 7 -20 100 0 93 -1 100
-20 100 -19 0 -20 7 -20 95 0 95 0 95 -25 95 -25 0 -25 1 -25 85 0 78 -2 85
-20 85 -19 0 -20 7 -20 100 0 93 -1 100 -20 100 -19 0 -20 7 -20 100 0 93 -1
100 -20 100 -19 0 -20 7 -20 100 0 93 -1 100 -20 100 -18 0 -20 7 -20 80 0 73
-2 80 -20 80 -19 0 -20 7 -20 100 0 93 1 100 20 100 13 0 20 7 20 20 0 13 7
20 20 20 13 0 20 7 20 20 0 13 7 20 20 20 11 0 20 7 20 15 0 8 9 15 20 15 13
0 20 7 20 20 0 13 7 20 20 20 13 0 20 7 20 20 0 15 7 20 25 20 20 0 25 5 25
25 0 18 5 25 20 25 13 0 20 7 20 20 0 13 7 20 20 20 13 0 20 7 20 20 0 11 7
20 15 20 8 0 15 9 15 20 0 13 7 20 20 20 13 0 20 7 20 20 0 13 7 20 20 20 13
0 20 7 20 20 0 13 7 20 20 20 13 0 20 7 20 20 0 13 7 20 20 20 11 0 20 7 20
15 0 8 9 15 20 15 19 0 20 7 20 105 0 98 -1 105 -20 105 -13 0 -20 7 -20 20 0
13 -7 20 -20 20 -13 0 -20 7 -20 20 0 13 -7 20 -20 20 -13 0 -20 7 -20 20 0
13 -7 20 -20 20 -13 0 -20 7 -20 20 0 13 -7 20 -20 20 -13 0 -20 7 -20 20 0
11 -7 20 -15 20 -8 0 -15 7 -15 15 0 8 -9 15 -20 15 -13 0 -20 7 -20 20 0 13
-7 20 -20 20 -13 0 -20 7 -20 20 0 15 -7 20 -25 20 -20 0 -25 5 -25 25 0 18
-5 25 -20 25 -13 0 -20 7 -20 20 0 13 -7 20 -20 20 -13 0 -20 7 -20 20 0 13
-7 20 -20 20 -13 0 -20 7 -20 20 0 13 -7 20 -20 20 -13 0 -20 7 -20 20 0 13
-7 20 -20 20 -13 0 -20 7 -20 20 0 13 -7 20 -20 20 -13 0 -20 7 -20 20 0 11
-7 20 -15 20 -8 0 -15 7 -15 15 0 8 -9 15 -20 15 -18 0 -20 7 -20 60 0 53 2
60 20 60 15 0 20 7 20 25 0 16 6 25 15 25 8 0 15 9 15 20 0 13 7 20 20 20 13
0 20 7 20 20 0 13 7 20 20 20 13 0 20 7 20 20 0 13 7 20 20 20 13 0 20 7 20
20 0 13 7 20 20 20 13 0 20 7 20 20 0 13 7 20 20 20 11 0 20 7 20 15 0 8 9 15
20 15 13 0 20 7 20 20 0 15 7 20 25 20 18 0 25 5 25 20 0 17 7 20 40 20 33 0
40 3 40 20 0 11 7 20 15 20 11 0 15 12 15 45 l0 45 40 0 c33 0 40 3 40 20 0
13 7 20 20 20 13 0 20 7 20 20 0 13 7 20 20 20 13 0 20 7 20 20 0 13 7 20 20
20 13 0 20 7 20 20 0 13 7 20 20 20 11 0 20 7 20 15 0 8 9 15 20 15 13 0 20 7
20 20 0 15 7 20 25 20 18 0 25 5 25 20 0 13 7 20 20 20 13 0 20 7 20 20 0 11
7 20 15 20 8 0 15 9 15 20 0 13 7 20 20 20 13 0 20 7 20 20 0 13 7 20 20 20
15 0 20 7 20 25 0 18 5 25 20 25 13 0 20 7 20 20 0 17 7 20 40 20 l40 0 0 40
c0 33 3 40 20 40 13 0 20 7 20 20 0 17 7 20 45 20 33 0 45 4 45 15 0 8 9 15
20 15 17 0 20 7 20 40 l0 40 75 0 c68 0 75 -2 75 -20z m-1680 -1550 c0 -13 7
-20 20 -20 15 0 20 -7 20 -25 0 -22 4 -25 40 -25 l40 0 0 -40 c0 -33 3 -40 20
-40 11 0 20 -7 20 -15 0 -9 9 -15 25 -15 18 0 25 -5 25 -20 0 -13 7 -20 20
-20 13 0 20 -7 20 -20 0 -13 7 -20 20 -20 13 0 20 -7 20 -20 0 -13 7 -20 20
-20 13 0 20 -7 20 -20 0 -11 7 -20 15 -20 8 0 15 -9 15 -20 0 -13 7 -20 20
-20 13 0 20 -7 20 -20 0 -13 7 -20 20 -20 15 0 20 -7 20 -25 0 -18 5 -25 20
-25 13 0 20 -7 20 -20 0 -13 -7 -20 -20 -20 -13 0 -20 -7 -20 -20 0 -13 -7
-20 -20 -20 -13 0 -20 -7 -20 -20 0 -13 -7 -20 -20 -20 -11 0 -20 -7 -20 -15
0 -8 -7 -15 -15 -15 -8 0 -15 -9 -15 -20 0 -13 -7 -20 -20 -20 -13 0 -20 -7
-20 -20 0 -13 -7 -20 -20 -20 -17 0 -20 -7 -20 -40 l0 -40 -45 0 c-38 0 -45
-3 -45 -20 0 -13 -7 -20 -20 -20 -17 0 -20 -7 -20 -45 0 -38 -3 -45 -20 -45
-13 0 -20 -7 -20 -20 0 -13 -7 -20 -20 -20 -13 0 -20 -7 -20 -20 0 -13 -7 -20
-20 -20 -11 0 -20 -7 -20 -15 0 -11 -11 -15 -40 -15 -39 0 -40 1 -40 35 0 24
-5 35 -15 35 -8 0 -15 9 -15 20 0 17 -7 20 -40 20 l-40 0 0 45 0 45 -45 0 -45
0 0 40 c0 33 -3 40 -20 40 -13 0 -20 7 -20 20 0 13 -7 20 -20 20 -13 0 -20 7
-20 20 0 13 -7 20 -20 20 -13 0 -20 7 -20 20 0 13 -7 20 -20 20 -11 0 -20 7
-20 15 0 10 -11 15 -35 15 -34 0 -35 1 -35 40 0 33 -3 40 -20 40 -17 0 -20 7
-20 45 0 45 0 45 35 45 28 0 35 4 35 20 0 13 7 20 20 20 13 0 20 7 20 20 0 13
7 20 20 20 17 0 20 7 20 40 l0 40 40 0 c33 0 40 3 40 20 0 13 7 20 20 20 13 0
20 7 20 20 0 15 7 20 25 20 16 0 25 6 25 15 0 8 9 15 20 15 13 0 20 7 20 20 0
13 7 20 20 20 13 0 20 7 20 20 0 13 7 20 20 20 15 0 20 7 20 25 0 16 6 25 15
25 8 0 15 9 15 20 0 17 7 20 40 20 33 0 40 -3 40 -20z m0 -1200 c0 -53 2 -60
20 -60 19 0 20 -7 20 -100 0 -93 1 -100 20 -100 19 0 20 -7 20 -100 0 -93 1
-100 20 -100 18 0 20 -7 20 -85 0 -78 2 -85 20 -85 19 0 20 -7 20 -95 0 -95 0
-95 25 -95 l25 0 0 -105 c0 -98 1 -105 20 -105 19 0 20 -7 20 -95 0 -88 1 -95
20 -95 18 0 20 -7 20 -80 0 -73 2 -80 20 -80 19 0 20 -7 20 -120 0 -100 3
-120 15 -120 12 0 15 -16 15 -80 0 -73 2 -80 20 -80 19 0 20 -7 20 -100 0 -93
1 -100 20 -100 19 0 20 -7 20 -100 0 -93 1 -100 20 -100 19 0 20 -7 20 -100 0
-93 1 -100 20 -100 18 0 20 -7 20 -60 l0 -60 -555 0 -555 0 0 60 c0 53 2 60
20 60 19 0 20 7 20 100 0 93 1 100 20 100 19 0 20 7 20 100 0 82 3 100 15 100
12 0 15 18 15 100 0 93 1 100 20 100 18 0 20 7 20 80 0 73 2 80 20 80 19 0 20
7 20 100 0 93 1 100 20 100 19 0 20 7 20 100 0 93 1 100 20 100 19 0 20 7 20
95 0 88 1 95 20 95 19 0 20 7 20 105 l0 105 25 0 c25 0 25 1 25 80 0 73 2 80
20 80 19 0 20 7 20 100 0 93 1 100 20 100 19 0 20 7 20 100 0 93 1 100 20 100
19 0 20 7 20 100 0 82 3 100 15 100 12 0 15 13 15 60 l0 60 40 0 40 0 0 -60z"/>
<path d="M7940 15035 c0 -12 -18 -15 -100 -15 -93 0 -100 -1 -100 -20 0 -17
-7 -20 -40 -20 -33 0 -40 -3 -40 -20 0 -17 -7 -20 -40 -20 -36 0 -40 -2 -40
-25 0 -18 -5 -25 -20 -25 -13 0 -20 -7 -20 -20 0 -11 -7 -20 -15 -20 -8 0 -15
-9 -15 -20 0 -13 -7 -20 -20 -20 -13 0 -20 -7 -20 -20 0 -13 -7 -20 -20 -20
-13 0 -20 -7 -20 -20 0 -13 -7 -20 -20 -20 -13 0 -20 -7 -20 -20 0 -15 -7 -20
-25 -20 -22 0 -25 -4 -25 -35 0 -28 -4 -35 -20 -35 -18 0 -20 -7 -20 -60 0
-53 -2 -60 -20 -60 -19 0 -20 -7 -20 -245 0 -238 1 -245 20 -245 17 0 20 -7
20 -40 0 -33 3 -40 20 -40 17 0 20 -7 20 -40 0 -36 3 -40 25 -40 18 0 25 -5
25 -20 0 -13 7 -20 20 -20 16 0 20 -7 20 -35 0 -28 4 -35 20 -35 13 0 20 -7
20 -20 0 -13 7 -20 20 -20 13 0 20 -7 20 -20 0 -11 7 -20 15 -20 8 0 15 -9 15
-20 0 -17 7 -20 40 -20 36 0 40 -2 40 -25 0 -22 4 -25 40 -25 33 0 40 -3 40
-20 0 -17 7 -20 45 -20 38 0 45 -3 45 -20 0 -19 7 -20 175 -20 168 0 175 1
175 20 0 18 7 20 65 20 58 0 65 2 65 20 0 17 7 20 40 20 36 0 40 3 40 25 0 22
4 25 35 25 28 0 35 4 35 20 0 13 7 20 20 20 13 0 20 7 20 20 0 13 7 20 20 20
13 0 20 7 20 20 0 13 7 20 20 20 13 0 20 7 20 20 0 13 7 20 20 20 16 0 20 7
20 35 0 28 4 35 20 35 17 0 20 7 20 40 0 36 3 40 25 40 23 0 25 4 25 40 0 33
3 40 20 40 19 0 20 7 20 245 0 238 -1 245 -20 245 -18 0 -20 7 -20 60 0 57 -1
60 -25 60 -22 0 -25 4 -25 35 0 28 -4 35 -20 35 -13 0 -20 7 -20 20 0 13 -7
20 -20 20 -13 0 -20 7 -20 20 0 13 -7 20 -20 20 -13 0 -20 7 -20 20 0 13 -7
20 -20 20 -13 0 -20 7 -20 20 0 13 -7 20 -20 20 -13 0 -20 7 -20 20 0 13 -7
20 -20 20 -15 0 -20 7 -20 25 0 22 -4 25 -35 25 -28 0 -35 4 -35 20 0 17 -7
20 -40 20 -33 0 -40 3 -40 20 0 18 -7 20 -65 20 -51 0 -65 3 -65 15 0 12 -16
15 -80 15 -64 0 -80 -3 -80 -15z m160 -400 c0 -11 11 -15 40 -15 33 0 40 -3
40 -20 0 -15 7 -20 25 -20 18 0 25 -5 25 -20 0 -13 7 -20 20 -20 13 0 20 -7
20 -20 0 -13 7 -20 20 -20 18 0 20 -7 20 -65 0 -58 2 -65 20 -65 19 0 20 -7
20 -115 0 -108 -1 -115 -20 -115 -17 0 -20 -7 -20 -40 0 -33 -3 -40 -20 -40
-17 0 -20 -7 -20 -45 l0 -45 -45 0 c-38 0 -45 -3 -45 -20 0 -13 -7 -20 -20
-20 -13 0 -20 -7 -20 -20 0 -19 -7 -20 -155 -20 -148 0 -155 1 -155 20 0 13
-7 20 -20 20 -13 0 -20 7 -20 20 0 15 -7 20 -25 20 -18 0 -25 5 -25 20 0 13
-7 20 -20 20 -15 0 -20 7 -20 25 0 18 -5 25 -20 25 -18 0 -20 7 -20 60 0 53
-2 60 -20 60 -19 0 -20 7 -20 95 0 88 1 95 20 95 18 0 20 7 20 65 0 58 2 65
20 65 13 0 20 7 20 20 0 13 7 20 20 20 13 0 20 7 20 20 0 15 7 20 25 20 18 0
25 5 25 20 0 17 7 20 40 20 29 0 40 4 40 15 0 12 19 15 115 15 96 0 115 -3
115 -15z"/>
<path d="M3390 2650 c0 -17 -7 -20 -40 -20 l-40 0 0 -40 c0 -33 -3 -40 -20
-40 -20 0 -20 -7 -20 -460 0 -453 0 -460 20 -460 13 0 20 -7 20 -20 0 -13 7
-20 20 -20 13 0 20 -7 20 -20 0 -20 7 -20 1420 -20 1413 0 1420 0 1420 20 0
13 7 20 20 20 13 0 20 7 20 20 0 13 7 20 20 20 13 0 20 7 20 20 0 11 7 20 15
20 13 0 15 56 15 440 0 384 -2 440 -15 440 -11 0 -15 11 -15 40 l0 40 -40 0
c-33 0 -40 3 -40 20 0 20 -7 20 -1400 20 -1393 0 -1400 0 -1400 -20z m2510
-545 l0 -195 -1115 0 c-1108 0 -1115 0 -1115 20 0 13 -7 20 -20 20 -19 0 -20
7 -20 155 0 148 1 155 20 155 13 0 20 7 20 20 0 20 7 20 1115 20 l1115 0 0
-195z"/>
<path d="M10860 3520 c0 -11 -7 -20 -15 -20 -8 0 -15 -7 -15 -15 0 -8 -9 -15
-20 -15 -13 0 -20 -7 -20 -20 0 -15 -7 -20 -25 -20 -18 0 -25 -5 -25 -20 0
-17 -7 -20 -40 -20 -33 0 -40 -3 -40 -20 0 -17 -7 -20 -40 -20 -33 0 -40 -3
-40 -20 0 -19 -7 -20 -120 -20 -113 0 -120 -1 -120 -20 0 -13 -7 -20 -20 -20
-13 0 -20 7 -20 20 0 19 -7 20 -100 20 -93 0 -100 -1 -100 -20 0 -17 -7 -20
-40 -20 -33 0 -40 -3 -40 -20 0 -11 -7 -20 -15 -20 -11 0 -15 -12 -15 -45 0
-38 -3 -45 -20 -45 -13 0 -20 -7 -20 -20 0 -15 -7 -20 -25 -20 -16 0 -25 -6
-25 -15 0 -8 -9 -15 -20 -15 -17 0 -20 -7 -20 -40 0 -33 -3 -40 -20 -40 -19 0
-20 -7 -20 -125 0 -118 1 -125 20 -125 13 0 20 -7 20 -20 0 -13 7 -20 20 -20
11 0 20 -7 20 -15 0 -9 9 -15 25 -15 24 0 25 -3 25 -60 0 -57 -1 -60 -25 -60
-24 0 -25 -3 -25 -60 0 -53 -2 -60 -20 -60 -18 0 -20 -7 -20 -65 0 -58 -2 -65
-20 -65 -19 0 -20 -7 -20 -115 0 -108 -1 -115 -20 -115 -17 0 -20 -7 -20 -40
0 -33 3 -40 20 -40 19 0 20 -7 20 -100 0 -93 1 -100 20 -100 18 0 20 -7 20
-60 0 -53 2 -60 20 -60 17 0 20 -7 20 -40 0 -36 3 -40 25 -40 23 0 25 -4 25
-40 0 -33 3 -40 20 -40 13 0 20 -7 20 -20 0 -11 7 -20 15 -20 8 0 15 -9 15
-20 0 -13 7 -20 20 -20 13 0 20 -7 20 -20 0 -13 7 -20 20 -20 13 0 20 -7 20
-20 0 -13 7 -20 20 -20 13 0 20 -7 20 -20 0 -17 7 -20 40 -20 33 0 40 -3 40
-20 0 -13 7 -20 20 -20 13 0 20 -7 20 -20 0 -13 7 -20 20 -20 13 0 20 -7 20
-20 0 -17 7 -20 45 -20 38 0 45 -3 45 -20 0 -16 7 -20 35 -20 28 0 35 -4 35
-20 0 -13 7 -20 20 -20 13 0 20 -7 20 -20 0 -17 7 -20 40 -20 33 0 40 -3 40
-20 0 -13 7 -20 20 -20 13 0 20 -7 20 -20 0 -17 7 -20 40 -20 33 0 40 -3 40
-20 0 -13 7 -20 20 -20 13 0 20 -7 20 -20 0 -17 7 -20 45 -20 38 0 45 -3 45
-20 0 -11 7 -20 15 -20 8 0 15 -9 15 -20 0 -19 7 -20 100 -20 93 0 100 1 100
20 0 17 7 20 40 20 33 0 40 3 40 20 0 13 7 20 20 20 13 0 20 7 20 20 0 17 7
20 40 20 33 0 40 3 40 20 0 13 7 20 20 20 13 0 20 7 20 20 0 13 7 20 20 20 13
0 20 7 20 20 0 17 7 20 40 20 33 0 40 3 40 20 0 17 7 20 40 20 33 0 40 3 40
20 0 17 7 20 40 20 33 0 40 3 40 20 0 13 7 20 20 20 13 0 20 7 20 20 0 13 7
20 20 20 13 0 20 7 20 20 0 17 7 20 40 20 33 0 40 3 40 20 0 13 7 20 20 20 13
0 20 7 20 20 0 13 7 20 20 20 13 0 20 7 20 20 0 13 7 20 20 20 13 0 20 7 20
20 0 13 7 20 20 20 13 0 20 7 20 20 0 13 7 20 20 20 13 0 20 7 20 20 0 13 7
20 20 20 17 0 20 7 20 40 0 33 3 40 20 40 13 0 20 7 20 20 0 15 7 20 25 20 24
0 25 3 25 60 0 47 3 60 15 60 12 0 15 16 15 80 0 73 2 80 20 80 19 0 20 7 20
140 0 133 -1 140 -20 140 -18 0 -20 7 -20 80 0 64 -3 80 -15 80 -12 0 -15 13
-15 60 0 57 -1 60 -25 60 -24 0 -25 3 -25 60 0 53 -2 60 -20 60 -13 0 -20 7
-20 20 0 13 7 20 20 20 16 0 20 7 20 35 0 31 3 35 25 35 18 0 25 5 25 20 0 11
7 20 15 20 11 0 15 12 15 45 0 38 3 45 20 45 17 0 20 7 20 40 0 33 -3 40 -20
40 -17 0 -20 7 -20 40 0 29 -4 40 -15 40 -11 0 -15 11 -15 40 0 36 -2 40 -25
40 -16 0 -25 6 -25 15 0 8 -9 15 -20 15 -17 0 -20 7 -20 40 0 33 -3 40 -20 40
-15 0 -20 7 -20 25 0 18 -5 25 -20 25 -13 0 -20 7 -20 20 0 13 -7 20 -20 20
-13 0 -20 7 -20 20 0 19 -7 20 -120 20 -113 0 -120 -1 -120 -20 0 -17 -7 -20
-40 -20 -33 0 -40 3 -40 20 0 19 -7 20 -100 20 -93 0 -100 1 -100 20 0 17 -7
20 -40 20 -33 0 -40 3 -40 20 0 17 -7 20 -40 20 -33 0 -40 3 -40 20 0 13 -7
20 -20 20 -16 0 -20 7 -20 35 0 28 -4 35 -20 35 -13 0 -20 7 -20 20 0 19 -7
20 -120 20 -113 0 -120 -1 -120 -20z m80 -435 c0 -12 13 -15 60 -15 53 0 60
-2 60 -20 0 -13 7 -20 20 -20 13 0 20 -7 20 -20 0 -18 7 -20 65 -20 58 0 65
-2 65 -20 0 -18 7 -20 55 -20 48 0 55 -2 55 -20 0 -19 7 -20 160 -20 l160 0 0
-85 c0 -78 -2 -85 -20 -85 -19 0 -20 -7 -20 -155 0 -148 1 -155 20 -155 18 0
20 -7 20 -65 0 -58 2 -65 20 -65 16 0 20 -7 20 -35 0 -28 4 -35 20 -35 19 0
20 -7 20 -185 0 -178 -1 -185 -20 -185 -16 0 -20 -7 -20 -35 0 -28 -4 -35 -20
-35 -17 0 -20 -7 -20 -40 0 -33 -3 -40 -20 -40 -13 0 -20 -7 -20 -20 0 -13 -7
-20 -20 -20 -13 0 -20 -7 -20 -20 0 -13 -7 -20 -20 -20 -13 0 -20 -7 -20 -20
0 -17 -7 -20 -40 -20 -33 0 -40 -3 -40 -20 0 -13 -7 -20 -20 -20 -13 0 -20 -7
-20 -20 0 -17 -7 -20 -40 -20 -33 0 -40 -3 -40 -20 0 -13 -7 -20 -20 -20 -13
0 -20 -7 -20 -20 0 -16 -7 -20 -35 -20 -28 0 -35 -4 -35 -20 0 -15 -7 -20 -25
-20 -18 0 -25 -5 -25 -20 0 -17 -7 -20 -40 -20 -33 0 -40 -3 -40 -20 0 -17 -7
-20 -40 -20 -33 0 -40 -3 -40 -20 0 -18 -7 -20 -60 -20 -53 0 -60 2 -60 20 0
16 -7 20 -35 20 -28 0 -35 4 -35 20 0 13 -7 20 -20 20 -13 0 -20 7 -20 20 0
17 -7 20 -45 20 -38 0 -45 3 -45 20 0 13 -7 20 -20 20 -13 0 -20 7 -20 20 0
17 -7 20 -40 20 -33 0 -40 3 -40 20 0 13 -7 20 -20 20 -13 0 -20 7 -20 20 0
17 -7 20 -40 20 -33 0 -40 3 -40 20 0 16 -7 20 -35 20 -28 0 -35 4 -35 20 0
15 -7 20 -25 20 -22 0 -25 4 -25 40 0 33 -3 40 -20 40 -13 0 -20 7 -20 20 0
13 -7 20 -20 20 -17 0 -20 7 -20 40 0 33 -3 40 -20 40 -18 0 -20 7 -20 60 0
53 -2 60 -20 60 -19 0 -20 7 -20 120 0 113 1 120 20 120 18 0 20 7 20 55 0 48
2 55 20 55 17 0 20 7 20 45 0 38 3 45 20 45 18 0 20 7 20 60 0 53 2 60 20 60
17 0 20 7 20 40 0 33 -3 40 -20 40 -19 0 -20 7 -20 100 0 93 -1 100 -20 100
-18 0 -20 7 -20 60 l0 60 160 0 c153 0 160 1 160 20 0 18 7 20 60 20 53 0 60
2 60 20 0 18 7 20 65 20 58 0 65 2 65 20 0 16 7 20 35 20 33 0 35 2 35 35 0
28 4 35 20 35 11 0 20 -7 20 -15z"/>
</g>
</svg>
