<?xml version="1.0" standalone="no"?>
<!DOCTYPE svg PUBLIC "-//W3C//DTD SVG 20010904//EN"
 "http://www.w3.org/TR/2001/REC-SVG-20010904/DTD/svg10.dtd">
<svg version="1.0" xmlns="http://www.w3.org/2000/svg"
 width="1600.000000pt" height="1600.000000pt" viewBox="0 0 1600.000000 1600.000000"
 preserveAspectRatio="xMidYMid meet">

<g transform="translate(0.000000,1600.000000) scale(0.100000,-0.100000)"
fill="#000000" stroke="none">
<path d="M7770 15900 c0 -18 -7 -20 -70 -20 -56 0 -70 -3 -70 -15 0 -12 -15
-15 -75 -15 -68 0 -75 -2 -75 -20 0 -18 -7 -20 -70 -20 -56 0 -70 -3 -70 -15
0 -12 -15 -15 -75 -15 -68 0 -75 -2 -75 -20 0 -18 -7 -20 -75 -20 -68 0 -75
-2 -75 -20 0 -18 -7 -20 -70 -20 -56 0 -70 -3 -70 -15 0 -12 -13 -15 -55 -15
-48 0 -55 -2 -55 -20 0 -18 -7 -20 -75 -20 -68 0 -75 -2 -75 -20 0 -18 -7 -20
-70 -20 -56 0 -70 -3 -70 -15 0 -12 -15 -15 -75 -15 -68 0 -75 -2 -75 -20 0
-18 -7 -20 -70 -20 -63 0 -70 -2 -70 -20 0 -18 -7 -20 -75 -20 -60 0 -75 -3
-75 -15 0 -12 -14 -15 -70 -15 -63 0 -70 -2 -70 -20 0 -18 -7 -20 -55 -20 -42
0 -55 -3 -55 -15 0 -12 -15 -15 -75 -15 -68 0 -75 -2 -75 -20 0 -18 -7 -20
-70 -20 -63 0 -70 -2 -70 -20 0 -18 -7 -20 -75 -20 -60 0 -75 -3 -75 -15 0
-12 -15 -15 -75 -15 -68 0 -75 -2 -75 -20 0 -18 -7 -20 -70 -20 -63 0 -70 -2
-70 -20 0 -18 -7 -20 -75 -20 -60 0 -75 -3 -75 -15 0 -12 -14 -15 -70 -15 -63
0 -70 -2 -70 -20 0 -18 -7 -20 -55 -20 -48 0 -55 -2 -55 -20 0 -18 -7 -20 -75
-20 -60 0 -75 -3 -75 -15 0 -12 -14 -15 -70 -15 -63 0 -70 -2 -70 -20 0 -17
-7 -20 -40 -20 -29 0 -40 -4 -40 -15 0 -8 -7 -15 -15 -15 -8 0 -15 -9 -15 -20
0 -13 -7 -20 -20 -20 -13 0 -20 -7 -20 -20 0 -11 -7 -20 -15 -20 -8 0 -15 -7
-15 -15 0 -8 -9 -15 -20 -15 -13 0 -20 -7 -20 -20 0 -13 -7 -20 -20 -20 -13 0
-20 -7 -20 -20 0 -11 -7 -20 -15 -20 -8 0 -15 -7 -15 -15 0 -8 -9 -15 -20 -15
-13 0 -20 -7 -20 -20 0 -13 -7 -20 -20 -20 -13 0 -20 -7 -20 -20 0 -11 -7 -20
-15 -20 -8 0 -15 -7 -15 -15 0 -8 -9 -15 -20 -15 -13 0 -20 -7 -20 -20 0 -13
-7 -20 -20 -20 -11 0 -20 -7 -20 -15 0 -8 -7 -15 -15 -15 -8 0 -15 -9 -15 -20
0 -13 -7 -20 -20 -20 -13 0 -20 -7 -20 -20 0 -11 -7 -20 -15 -20 -8 0 -15 -7
-15 -15 0 -8 -9 -15 -20 -15 -17 0 -20 -7 -20 -40 0 -33 -3 -40 -20 -40 -11 0
-20 -7 -20 -15 0 -8 -7 -15 -15 -15 -8 0 -15 -9 -15 -20 0 -13 -7 -20 -20 -20
-13 0 -20 -7 -20 -20 0 -13 -7 -20 -20 -20 -11 0 -20 -7 -20 -15 0 -8 -7 -15
-15 -15 -8 0 -15 -9 -15 -20 0 -13 -7 -20 -20 -20 -11 0 -20 -7 -20 -15 0 -8
-9 -15 -20 -15 -13 0 -20 -7 -20 -20 0 -11 -7 -20 -15 -20 -8 0 -15 -9 -15
-20 0 -13 -7 -20 -20 -20 -11 0 -20 -7 -20 -15 0 -8 -9 -15 -20 -15 -13 0 -20
-7 -20 -20 0 -11 -7 -20 -15 -20 -8 0 -15 -9 -15 -20 0 -13 -7 -20 -20 -20
-11 0 -20 -7 -20 -15 0 -8 -7 -15 -15 -15 -8 0 -15 -9 -15 -20 0 -13 -7 -20
-20 -20 -13 0 -20 -7 -20 -20 0 -13 -7 -20 -20 -20 -11 0 -20 -7 -20 -15 0 -8
-7 -15 -15 -15 -8 0 -15 -9 -15 -20 0 -13 -7 -20 -20 -20 -18 0 -20 -7 -20
-70 0 -63 2 -70 20 -70 17 0 20 -7 20 -40 0 -29 4 -40 15 -40 10 0 15 -11 15
-35 0 -28 4 -35 20 -35 13 0 20 -7 20 -20 0 -13 7 -20 20 -20 16 0 20 -7 20
-35 0 -24 5 -35 15 -35 10 0 15 -11 15 -35 0 -28 4 -35 20 -35 13 0 20 -7 20
-20 0 -11 7 -20 15 -20 10 0 15 -11 15 -35 0 -28 4 -35 20 -35 16 0 20 -7 20
-35 0 -28 4 -35 20 -35 17 0 20 -7 20 -40 0 -29 4 -40 15 -40 8 0 15 -7 15
-15 0 -8 9 -15 20 -15 16 0 20 -7 20 -35 0 -28 4 -35 20 -35 17 0 20 -7 20
-40 0 -29 4 -40 15 -40 8 0 15 -7 15 -15 0 -8 9 -15 20 -15 17 0 20 -7 20 -40
0 -33 3 -40 20 -40 16 0 20 -7 20 -35 0 -24 5 -35 15 -35 8 0 15 -9 15 -20 0
-13 7 -20 20 -20 16 0 20 -7 20 -35 0 -28 4 -35 20 -35 11 0 20 -7 20 -15 0
-10 11 -15 35 -15 28 0 35 -4 35 -20 0 -16 7 -20 35 -20 28 0 35 -4 35 -20 0
-18 7 -20 55 -20 42 0 55 -3 55 -15 0 -10 11 -15 35 -15 28 0 35 -4 35 -20 0
-17 7 -20 40 -20 33 0 40 -3 40 -20 0 -11 7 -20 15 -20 12 0 15 -14 15 -70 0
-63 2 -70 20 -70 20 0 20 -7 20 -400 0 -349 2 -400 15 -400 13 0 15 -37 15
-275 0 -268 0 -275 20 -275 11 0 20 -7 20 -15 0 -8 9 -15 20 -15 18 0 20 -7
20 -75 0 -68 -2 -75 -20 -75 -16 0 -20 -7 -20 -35 0 -28 -4 -35 -20 -35 -18 0
-20 -7 -20 -75 0 -60 -3 -75 -15 -75 -12 0 -15 -14 -15 -70 0 -63 -2 -70 -20
-70 -18 0 -20 -7 -20 -75 0 -60 -3 -75 -15 -75 -13 0 -15 -23 -15 -145 0 -138
-1 -145 -20 -145 -20 0 -20 -7 -20 -470 0 -463 0 -470 20 -470 19 0 20 -7 20
-150 0 -127 2 -150 15 -150 12 0 15 -18 15 -105 0 -98 1 -105 20 -105 19 0 20
-7 20 -95 0 -78 3 -95 15 -95 12 0 15 -17 15 -90 0 -83 1 -90 20 -90 18 0 20
-7 20 -70 0 -63 2 -70 20 -70 18 0 20 -7 20 -55 0 -42 3 -55 15 -55 12 0 15
-15 15 -75 0 -68 2 -75 20 -75 19 0 20 -7 20 -110 0 -103 1 -110 20 -110 19 0
20 -7 20 -145 0 -138 -1 -145 -20 -145 -19 0 -20 -7 -20 -90 0 -83 -1 -90 -20
-90 -18 0 -20 -7 -20 -70 0 -56 -3 -70 -15 -70 -11 0 -15 -11 -15 -40 0 -33
-3 -40 -20 -40 -16 0 -20 -7 -20 -35 0 -28 -4 -35 -20 -35 -16 0 -20 -7 -20
-35 0 -24 -5 -35 -15 -35 -10 0 -15 -11 -15 -35 0 -28 -4 -35 -20 -35 -13 0
-20 -7 -20 -20 0 -11 -7 -20 -15 -20 -8 0 -15 -9 -15 -20 0 -13 -7 -20 -20
-20 -11 0 -20 -7 -20 -15 0 -8 -9 -15 -20 -15 -17 0 -20 -7 -20 -40 0 -39 -1
-40 -35 -40 -24 0 -35 -5 -35 -15 0 -8 -9 -15 -20 -15 -13 0 -20 -7 -20 -20 0
-11 -7 -20 -15 -20 -8 0 -15 -9 -15 -20 0 -13 -7 -20 -20 -20 -11 0 -20 -7
-20 -15 0 -8 -9 -15 -20 -15 -13 0 -20 -7 -20 -20 0 -11 -7 -20 -15 -20 -8 0
-15 -7 -15 -15 0 -8 -9 -15 -20 -15 -13 0 -20 -7 -20 -20 0 -11 -7 -20 -15
-20 -10 0 -15 -11 -15 -35 0 -28 -4 -35 -20 -35 -17 0 -20 -7 -20 -40 0 -33
-3 -40 -20 -40 -19 0 -20 -7 -20 -180 0 -173 1 -180 20 -180 16 0 20 -7 20
-35 0 -28 4 -35 20 -35 17 0 20 -7 20 -40 0 -29 4 -40 15 -40 11 0 15 -12 15
-50 l0 -50 -55 0 c-48 0 -55 -2 -55 -20 0 -18 -7 -20 -55 -20 -48 0 -55 -2
-55 -20 0 -18 -7 -20 -55 -20 -42 0 -55 -3 -55 -15 0 -12 -14 -15 -70 -15 -63
0 -70 -2 -70 -20 0 -18 -7 -20 -55 -20 -48 0 -55 -2 -55 -20 0 -18 -7 -20 -75
-20 -60 0 -75 -3 -75 -15 0 -12 -14 -15 -70 -15 -63 0 -70 -2 -70 -20 0 -18
-7 -20 -55 -20 -48 0 -55 -2 -55 -20 0 -18 -7 -20 -55 -20 -42 0 -55 -3 -55
-15 0 -10 -11 -15 -35 -15 -28 0 -35 -4 -35 -20 0 -17 -7 -20 -40 -20 -29 0
-40 -4 -40 -15 0 -10 -11 -15 -35 -15 -28 0 -35 -4 -35 -20 0 -16 -7 -20 -35
-20 -28 0 -35 -4 -35 -20 0 -16 -7 -20 -35 -20 -24 0 -35 -5 -35 -15 0 -8 -9
-15 -20 -15 -13 0 -20 -7 -20 -20 0 -16 -7 -20 -35 -20 -28 0 -35 -4 -35 -20
0 -13 -7 -20 -20 -20 -11 0 -20 -7 -20 -15 0 -8 -9 -15 -20 -15 -13 0 -20 -7
-20 -20 0 -11 -7 -20 -15 -20 -8 0 -15 -9 -15 -20 0 -13 -7 -20 -20 -20 -11 0
-20 -7 -20 -15 0 -8 -9 -15 -20 -15 -13 0 -20 -7 -20 -20 0 -11 -7 -20 -15
-20 -8 0 -15 -7 -15 -15 0 -8 -9 -15 -20 -15 -13 0 -20 -7 -20 -20 0 -11 -7
-20 -15 -20 -8 0 -15 -9 -15 -20 0 -13 -7 -20 -20 -20 -11 0 -20 -7 -20 -15 0
-8 -9 -15 -20 -15 -17 0 -20 -7 -20 -40 0 -29 -4 -40 -15 -40 -8 0 -15 -7 -15
-15 0 -8 -9 -15 -20 -15 -17 0 -20 -7 -20 -40 0 -33 -3 -40 -20 -40 -11 0 -20
-7 -20 -15 0 -8 -7 -15 -15 -15 -10 0 -15 -11 -15 -35 0 -28 -4 -35 -20 -35
-18 0 -20 -7 -20 -55 0 -48 -2 -55 -20 -55 -17 0 -20 -7 -20 -40 0 -29 -4 -40
-15 -40 -10 0 -15 -11 -15 -35 0 -28 -4 -35 -20 -35 -18 0 -20 -7 -20 -70 0
-63 -2 -70 -20 -70 -18 0 -20 -7 -20 -55 0 -42 -3 -55 -15 -55 -12 0 -15 -15
-15 -75 0 -68 -2 -75 -20 -75 -18 0 -20 -7 -20 -70 0 -56 -3 -70 -15 -70 -12
0 -15 -13 -15 -55 0 -48 -2 -55 -20 -55 -18 0 -20 -7 -20 -75 0 -68 -2 -75
-20 -75 -18 0 -20 -7 -20 -55 0 -42 -3 -55 -15 -55 -12 0 -15 -14 -15 -70 0
-63 -2 -70 -20 -70 -18 0 -20 -7 -20 -55 0 -48 -2 -55 -20 -55 -18 0 -20 -7
-20 -75 0 -60 -3 -75 -15 -75 -12 0 -15 -13 -15 -55 0 -48 -2 -55 -20 -55 -18
0 -20 -7 -20 -70 0 -63 -2 -70 -20 -70 -18 0 -20 -7 -20 -55 0 -42 -3 -55 -15
-55 -12 0 -15 -15 -15 -75 0 -68 -2 -75 -20 -75 -18 0 -20 -7 -20 -55 0 -42
-3 -55 -15 -55 -12 0 -15 -14 -15 -70 0 -63 -2 -70 -20 -70 -18 0 -20 -7 -20
-55 0 -48 -2 -55 -20 -55 -18 0 -20 -7 -20 -75 0 -60 -3 -75 -15 -75 -12 0
-15 -14 -15 -70 0 -63 -2 -70 -20 -70 -18 0 -20 -7 -20 -55 0 -48 -2 -55 -20
-55 -18 0 -20 -7 -20 -75 0 -60 -3 -75 -15 -75 -12 0 -15 -13 -15 -55 0 -48
-2 -55 -20 -55 -18 0 -20 -7 -20 -70 0 -63 -2 -70 -20 -70 -18 0 -20 -7 -20
-55 0 -42 -3 -55 -15 -55 -12 0 -15 -15 -15 -75 0 -68 -2 -75 -20 -75 -17 0
-20 -7 -20 -50 0 -43 -3 -50 -20 -50 -18 0 -20 -7 -20 -75 0 -60 -3 -75 -15
-75 -12 0 -15 -13 -15 -55 0 -48 -2 -55 -20 -55 -18 0 -20 -7 -20 -70 0 -56
-3 -70 -15 -70 -12 0 -15 -17 -15 -90 l0 -90 105 0 c87 0 105 3 105 15 0 8 9
15 20 15 18 0 20 7 20 75 0 68 2 75 20 75 11 0 20 7 20 15 0 10 11 15 35 15
28 0 35 4 35 20 0 18 7 20 55 20 42 0 55 3 55 15 0 12 14 15 70 15 63 0 70 2
70 20 0 18 7 20 55 20 48 0 55 2 55 20 0 18 7 20 55 20 42 0 55 3 55 15 0 12
13 15 55 15 48 0 55 2 55 20 0 18 7 20 55 20 48 0 55 2 55 20 0 18 7 20 75 20
60 0 75 3 75 15 0 12 13 15 55 15 48 0 55 2 55 20 0 11 7 20 15 20 10 0 15 11
15 35 0 28 4 35 20 35 19 0 20 7 20 90 0 83 1 90 20 90 19 0 20 7 20 110 0 91
3 110 15 110 12 0 15 17 15 90 0 83 1 90 20 90 19 0 20 7 20 95 0 78 3 95 15
95 12 0 15 17 15 90 0 83 1 90 20 90 19 0 20 7 20 90 0 83 1 90 20 90 19 0 20
7 20 110 0 91 3 110 15 110 13 0 15 45 15 345 0 300 -2 345 -15 345 -12 0 -15
13 -15 55 0 48 -2 55 -20 55 -18 0 -20 7 -20 55 0 48 -2 55 -20 55 -16 0 -20
7 -20 35 0 24 -5 35 -15 35 -8 0 -15 9 -15 20 0 13 -7 20 -20 20 -11 0 -20 7
-20 15 0 8 -7 15 -15 15 -8 0 -15 9 -15 20 0 13 -7 20 -20 20 -11 0 -20 7 -20
15 0 8 -9 15 -20 15 -13 0 -20 7 -20 20 0 16 -7 20 -35 20 -28 0 -35 4 -35 20
0 18 -7 20 -75 20 l-75 0 0 55 c0 48 2 55 20 55 18 0 20 7 20 55 0 48 2 55 20
55 18 0 20 7 20 70 0 56 3 70 15 70 12 0 15 13 15 55 0 48 2 55 20 55 18 0 20
7 20 75 0 68 2 75 20 75 17 0 20 7 20 50 0 38 4 50 15 50 11 0 15 11 15 40 0
33 3 40 20 40 18 0 20 7 20 55 0 48 2 55 20 55 11 0 20 7 20 15 0 8 7 15 15
15 11 0 15 11 15 40 0 33 3 40 20 40 16 0 20 7 20 35 0 24 5 35 15 35 8 0 15
7 15 15 0 8 9 15 20 15 13 0 20 7 20 20 0 13 7 20 20 20 13 0 20 7 20 20 0 11
7 20 15 20 10 0 15 11 15 35 0 28 4 35 20 35 13 0 20 7 20 20 0 13 7 20 20 20
11 0 20 7 20 15 0 8 7 15 15 15 8 0 15 9 15 20 0 17 7 20 40 20 33 0 40 3 40
20 0 16 7 20 35 20 34 0 35 -1 35 -40 0 -29 4 -40 15 -40 12 0 15 -13 15 -55
0 -48 2 -55 20 -55 18 0 20 -7 20 -55 0 -48 2 -55 20 -55 16 0 20 -7 20 -35 0
-24 5 -35 15 -35 12 0 15 -13 15 -55 0 -48 2 -55 20 -55 16 0 20 -7 20 -35 0
-28 4 -35 20 -35 18 0 20 -7 20 -55 0 -42 3 -55 15 -55 12 0 15 -13 15 -55 0
-48 2 -55 20 -55 16 0 20 -7 20 -35 0 -28 4 -35 20 -35 18 0 20 -7 20 -55 0
-42 3 -55 15 -55 12 0 15 -13 15 -55 0 -48 2 -55 20 -55 16 0 20 -7 20 -35 0
-28 4 -35 20 -35 18 0 20 -7 20 -55 0 -42 3 -55 15 -55 10 0 15 -11 15 -35 0
-28 4 -35 20 -35 18 0 20 -7 20 -55 0 -42 3 -55 15 -55 12 0 15 -13 15 -55 0
-48 2 -55 20 -55 16 0 20 -7 20 -35 0 -28 4 -35 20 -35 18 0 20 -7 20 -55 0
-42 3 -55 15 -55 11 0 15 -11 15 -40 0 -33 3 -40 20 -40 18 0 20 -7 20 -55 0
-48 2 -55 20 -55 17 0 20 -7 20 -50 0 -38 4 -50 15 -50 11 0 15 -11 15 -40 0
-33 3 -40 20 -40 18 0 20 -7 20 -55 0 -48 2 -55 20 -55 18 0 20 -7 20 -55 0
-42 3 -55 15 -55 10 0 15 -11 15 -35 0 -28 4 -35 20 -35 18 0 20 -7 20 -55 0
-42 3 -55 15 -55 10 0 15 -11 15 -35 0 -28 4 -35 20 -35 18 0 20 -7 20 -55 0
-48 2 -55 20 -55 18 0 20 -7 20 -55 0 -42 3 -55 15 -55 10 0 15 -11 15 -35 0
-28 4 -35 20 -35 18 0 20 -7 20 -55 0 -48 2 -55 20 -55 20 0 20 -7 20 -435 0
-428 0 -435 -20 -435 -20 0 -20 -7 -20 -380 l0 -380 110 0 c91 0 110 3 110 15
0 8 9 15 20 15 20 0 20 7 20 475 0 416 2 475 15 475 13 0 15 45 15 345 0 300
-2 345 -15 345 -10 0 -15 11 -15 35 0 28 -4 35 -20 35 -18 0 -20 7 -20 55 0
48 -2 55 -20 55 -18 0 -20 7 -20 55 0 42 -3 55 -15 55 -10 0 -15 11 -15 35 0
28 -4 35 -20 35 -18 0 -20 7 -20 55 0 48 -2 55 -20 55 -18 0 -20 7 -20 55 0
42 -3 55 -15 55 -10 0 -15 11 -15 35 0 28 -4 35 -20 35 -18 0 -20 7 -20 55 0
48 -2 55 -20 55 -16 0 -20 7 -20 35 0 24 -5 35 -15 35 -12 0 -15 13 -15 55 0
48 -2 55 -20 55 -18 0 -20 7 -20 55 0 48 -2 55 -20 55 -16 0 -20 7 -20 35 0
24 -5 35 -15 35 -12 0 -15 13 -15 55 0 48 -2 55 -20 55 -18 0 -20 7 -20 55 0
42 -3 55 -15 55 -10 0 -15 11 -15 35 0 28 -4 35 -20 35 -18 0 -20 7 -20 55 0
48 -2 55 -20 55 -17 0 -20 7 -20 40 0 29 -4 40 -15 40 -12 0 -15 13 -15 55 0
48 -2 55 -20 55 -17 0 -20 7 -20 50 0 43 -3 50 -20 50 -17 0 -20 7 -20 40 0
29 -4 40 -15 40 -12 0 -15 13 -15 55 0 48 -2 55 -20 55 -16 0 -20 7 -20 35 0
28 -4 35 -20 35 -18 0 -20 7 -20 55 0 42 -3 55 -15 55 -12 0 -15 13 -15 55 0
48 -2 55 -20 55 -16 0 -20 7 -20 35 0 24 -5 35 -15 35 -12 0 -15 15 -15 75 l0
75 70 0 c56 0 70 3 70 15 0 12 15 15 75 15 68 0 75 2 75 20 0 18 7 20 70 20
56 0 70 3 70 15 0 12 17 15 90 15 83 0 90 1 90 20 0 18 7 20 75 20 68 0 75 2
75 20 0 18 7 20 75 20 60 0 75 3 75 15 0 12 14 15 70 15 63 0 70 2 70 20 0 18
7 20 75 20 68 0 75 2 75 20 0 18 7 20 70 20 56 0 70 3 70 15 0 12 15 15 75 15
68 0 75 2 75 20 0 18 7 20 70 20 63 0 70 2 70 20 0 18 7 20 75 20 60 0 75 3
75 15 0 8 9 15 20 15 16 0 20 7 20 35 0 24 5 35 15 35 12 0 15 13 15 55 0 48
2 55 20 55 18 0 20 7 20 55 0 42 3 55 15 55 12 0 15 13 15 55 0 48 2 55 20 55
18 0 20 7 20 55 0 48 2 55 20 55 18 0 20 7 20 55 0 42 3 55 15 55 12 0 15 13
15 55 0 48 2 55 20 55 18 0 20 7 20 55 0 48 2 55 20 55 16 0 20 7 20 35 0 24
5 35 15 35 8 0 15 9 15 20 0 18 7 20 55 20 l55 0 0 -40 c0 -33 3 -40 20 -40
11 0 20 -7 20 -15 0 -8 7 -15 15 -15 10 0 15 -11 15 -35 0 -28 4 -35 20 -35
13 0 20 -7 20 -20 0 -13 7 -20 20 -20 13 0 20 -7 20 -20 0 -11 7 -20 15 -20
10 0 15 -11 15 -35 0 -28 4 -35 20 -35 13 0 20 -7 20 -20 0 -13 7 -20 20 -20
16 0 20 -7 20 -35 0 -24 5 -35 15 -35 8 0 15 -9 15 -20 0 -13 7 -20 20 -20 16
0 20 -7 20 -35 0 -28 4 -35 20 -35 11 0 20 -7 20 -15 0 -8 7 -15 15 -15 11 0
15 -11 15 -40 0 -33 3 -40 20 -40 11 0 20 -7 20 -15 0 -8 9 -15 20 -15 17 0
20 -7 20 -40 0 -29 4 -40 15 -40 8 0 15 -7 15 -15 0 -8 9 -15 20 -15 13 0 20
-7 20 -20 0 -11 7 -20 15 -20 10 0 15 -11 15 -35 0 -28 4 -35 20 -35 13 0 20
-7 20 -20 0 -13 7 -20 20 -20 16 0 20 -7 20 -35 0 -24 5 -35 15 -35 8 0 15 -9
15 -20 0 -13 7 -20 20 -20 16 0 20 -7 20 -35 0 -28 4 -35 20 -35 13 0 20 -7
20 -20 0 -11 7 -20 15 -20 10 0 15 -11 15 -35 0 -28 4 -35 20 -35 13 0 20 -7
20 -20 0 -13 7 -20 20 -20 11 0 20 -7 20 -15 0 -8 7 -15 15 -15 10 0 15 -11
15 -35 0 -28 4 -35 20 -35 13 0 20 -7 20 -20 0 -11 7 -20 15 -20 10 0 15 -11
15 -35 0 -28 4 -35 20 -35 13 0 20 -7 20 -20 0 -13 7 -20 20 -20 16 0 20 -7
20 -35 0 -24 5 -35 15 -35 8 0 15 -9 15 -20 0 -13 7 -20 20 -20 13 0 20 -7 20
-20 0 -13 7 -20 20 -20 11 0 20 -7 20 -15 0 -12 13 -15 55 -15 42 0 55 3 55
15 0 8 7 15 15 15 8 0 15 9 15 20 0 17 7 20 40 20 33 0 40 3 40 20 0 11 7 20
15 20 8 0 15 7 15 15 0 8 9 15 20 15 13 0 20 7 20 20 0 11 7 20 15 20 8 0 15
9 15 20 0 13 7 20 20 20 11 0 20 7 20 15 0 8 9 15 20 15 13 0 20 7 20 20 0 16
7 20 35 20 28 0 35 4 35 20 0 13 7 20 20 20 11 0 20 7 20 15 0 10 11 15 35 15
24 0 35 -5 35 -15 0 -8 9 -15 20 -15 13 0 20 -7 20 -20 0 -11 7 -20 15 -20 8
0 15 -9 15 -20 0 -13 7 -20 20 -20 11 0 20 -7 20 -15 0 -8 7 -15 15 -15 8 0
15 -9 15 -20 0 -13 7 -20 20 -20 13 0 20 -7 20 -20 0 -13 7 -20 20 -20 11 0
20 -7 20 -15 0 -8 7 -15 15 -15 8 0 15 -9 15 -20 0 -13 7 -20 20 -20 13 0 20
-7 20 -20 0 -13 7 -20 20 -20 11 0 20 -7 20 -15 0 -8 7 -15 15 -15 8 0 15 -9
15 -20 0 -13 7 -20 20 -20 11 0 20 -7 20 -15 0 -8 9 -15 20 -15 13 0 20 -7 20
-20 0 -13 -7 -20 -20 -20 -19 0 -20 -7 -20 -200 0 -193 -1 -200 -20 -200 -19
0 -20 -7 -20 -180 0 -153 -2 -180 -15 -180 -13 0 -15 -27 -15 -185 0 -178 -1
-185 -20 -185 -19 0 -20 -7 -20 -200 0 -193 -1 -200 -20 -200 -19 0 -20 -7
-20 -180 0 -153 -2 -180 -15 -180 -13 0 -15 -29 -15 -200 0 -193 -1 -200 -20
-200 -19 0 -20 -7 -20 -185 0 -178 -1 -185 -20 -185 -19 0 -20 -7 -20 -180 0
-153 -2 -180 -15 -180 -13 0 -15 -29 -15 -200 0 -193 -1 -200 -20 -200 -19 0
-20 -7 -20 -160 l0 -160 110 0 c91 0 110 3 110 15 0 8 9 15 20 15 19 0 20 7
20 180 0 153 2 180 15 180 13 0 15 27 15 185 0 178 1 185 20 185 19 0 20 7 20
200 0 193 1 200 20 200 19 0 20 7 20 180 0 153 2 180 15 180 13 0 15 29 15
200 0 193 1 200 20 200 19 0 20 7 20 180 0 173 1 180 20 180 19 0 20 7 20 185
0 158 2 185 15 185 13 0 15 29 15 200 0 193 1 200 20 200 19 0 20 7 20 180 0
153 2 180 15 180 13 0 15 21 15 130 0 123 1 130 20 130 11 0 20 7 20 15 0 13
33 15 235 15 202 0 235 -2 235 -15 0 -8 9 -15 20 -15 19 0 20 -7 20 -95 0 -88
1 -95 20 -95 19 0 20 -7 20 -145 0 -122 2 -145 15 -145 13 0 15 -21 15 -125 0
-118 1 -125 20 -125 19 0 20 -7 20 -130 0 -123 1 -130 20 -130 19 0 20 -7 20
-145 0 -122 2 -145 15 -145 13 0 15 -21 15 -125 0 -118 1 -125 20 -125 19 0
20 -7 20 -145 0 -138 1 -145 20 -145 19 0 20 -7 20 -130 0 -109 2 -130 15
-130 13 0 15 -21 15 -125 0 -118 1 -125 20 -125 19 0 20 -7 20 -145 0 -122 2
-145 15 -145 10 0 15 -11 15 -35 l0 -35 -380 0 c-373 0 -380 0 -380 -20 0 -13
-7 -20 -20 -20 -13 0 -20 -7 -20 -20 0 -11 -7 -20 -15 -20 -10 0 -15 -11 -15
-35 0 -24 5 -35 15 -35 10 0 15 -11 15 -35 0 -34 1 -35 40 -35 33 0 40 -3 40
-20 0 -20 7 -20 380 -20 l380 0 0 -90 c0 -83 1 -90 20 -90 19 0 20 -7 20 -145
0 -122 2 -145 15 -145 12 0 15 -19 15 -110 0 -103 1 -110 20 -110 11 0 20 -7
20 -15 0 -12 19 -15 110 -15 l110 0 0 105 c0 98 -1 105 -20 105 -19 0 -20 7
-20 145 0 122 -2 145 -15 145 -13 0 -15 21 -15 130 0 123 -1 130 -20 130 -19
0 -20 7 -20 125 0 118 -1 125 -20 125 -19 0 -20 7 -20 145 0 122 -2 145 -15
145 -13 0 -15 21 -15 130 0 123 -1 130 -20 130 -19 0 -20 7 -20 125 0 118 -1
125 -20 125 -19 0 -20 7 -20 145 0 122 -2 145 -15 145 -13 0 -15 21 -15 130 0
123 -1 130 -20 130 -19 0 -20 7 -20 145 0 138 -1 145 -20 145 -19 0 -20 7 -20
125 0 104 -2 125 -15 125 -13 0 -15 21 -15 130 0 123 -1 130 -20 130 -19 0
-20 7 -20 145 0 122 -2 145 -15 145 -13 0 -15 21 -15 125 0 118 -1 125 -20
125 -17 0 -20 7 -20 40 0 33 3 40 20 40 11 0 20 7 20 15 0 8 7 15 15 15 8 0
15 9 15 20 0 13 7 20 20 20 11 0 20 7 20 15 0 8 7 15 15 15 8 0 15 9 15 20 0
13 7 20 20 20 13 0 20 7 20 20 0 13 7 20 20 20 11 0 20 7 20 15 0 8 7 15 15
15 8 0 15 9 15 20 0 13 7 20 20 20 13 0 20 7 20 20 0 13 7 20 20 20 11 0 20 7
20 15 0 8 7 15 15 15 8 0 15 9 15 20 0 13 7 20 20 20 13 0 20 7 20 20 0 13 7
20 20 20 11 0 20 7 20 15 0 10 11 15 35 15 24 0 35 -5 35 -15 0 -8 7 -15 15
-15 8 0 15 -9 15 -20 0 -13 7 -20 20 -20 13 0 20 -7 20 -20 0 -16 7 -20 35
-20 24 0 35 -5 35 -15 0 -8 9 -15 20 -15 13 0 20 -7 20 -20 0 -13 7 -20 20
-20 13 0 20 -7 20 -20 0 -11 7 -20 15 -20 8 0 15 -7 15 -15 0 -8 9 -15 20 -15
13 0 20 -7 20 -20 0 -13 7 -20 20 -20 13 0 20 -7 20 -20 0 -16 7 -20 35 -20
24 0 35 -5 35 -15 0 -12 13 -15 55 -15 42 0 55 3 55 15 0 8 7 15 15 15 8 0 15
9 15 20 0 13 7 20 20 20 16 0 20 7 20 35 0 28 4 35 20 35 13 0 20 7 20 20 0
11 7 20 15 20 10 0 15 11 15 35 0 28 4 35 20 35 13 0 20 7 20 20 0 13 7 20 20
20 16 0 20 7 20 35 0 24 5 35 15 35 8 0 15 9 15 20 0 13 7 20 20 20 16 0 20 7
20 35 0 28 4 35 20 35 13 0 20 7 20 20 0 11 7 20 15 20 10 0 15 11 15 35 0 28
4 35 20 35 13 0 20 7 20 20 0 11 7 20 15 20 10 0 15 11 15 35 0 28 4 35 20 35
16 0 20 7 20 35 0 28 4 35 20 35 13 0 20 7 20 20 0 11 7 20 15 20 10 0 15 11
15 35 0 28 4 35 20 35 13 0 20 7 20 20 0 13 7 20 20 20 16 0 20 7 20 35 0 24
5 35 15 35 8 0 15 9 15 20 0 13 7 20 20 20 16 0 20 7 20 35 0 28 4 35 20 35
13 0 20 7 20 20 0 11 7 20 15 20 10 0 15 11 15 35 0 28 4 35 20 35 11 0 20 7
20 15 0 8 9 15 20 15 17 0 20 7 20 40 0 29 4 40 15 40 10 0 15 11 15 35 0 28
4 35 20 35 13 0 20 7 20 20 0 11 7 20 15 20 10 0 15 11 15 35 0 28 4 35 20 35
13 0 20 7 20 20 0 13 7 20 20 20 16 0 20 7 20 35 0 24 5 35 15 35 8 0 15 7 15
15 0 8 9 15 20 15 17 0 20 7 20 40 l0 40 75 0 75 0 0 -40 c0 -29 4 -40 15 -40
8 0 15 -7 15 -15 0 -8 9 -15 20 -15 16 0 20 -7 20 -35 0 -24 5 -35 15 -35 11
0 15 -11 15 -40 0 -33 3 -40 20 -40 16 0 20 -7 20 -35 0 -28 4 -35 20 -35 16
0 20 -7 20 -35 0 -24 5 -35 15 -35 11 0 15 -11 15 -40 0 -33 3 -40 20 -40 16
0 20 -7 20 -35 0 -28 4 -35 20 -35 11 0 20 -7 20 -15 0 -8 7 -15 15 -15 11 0
15 -11 15 -40 0 -33 3 -40 20 -40 16 0 20 -7 20 -35 0 -28 4 -35 20 -35 16 0
20 -7 20 -35 0 -24 5 -35 15 -35 11 0 15 -11 15 -40 0 -33 3 -40 20 -40 11 0
20 -7 20 -15 0 -12 14 -15 70 -15 63 0 70 -2 70 -20 0 -19 7 -20 95 -20 78 0
95 -3 95 -15 0 -12 14 -15 70 -15 63 0 70 -2 70 -20 0 -19 7 -20 90 -20 83 0
90 -1 90 -20 0 -19 7 -20 95 -20 78 0 95 -3 95 -15 0 -12 14 -15 70 -15 63 0
70 -2 70 -20 0 -19 7 -20 90 -20 83 0 90 -1 90 -20 0 -19 7 -20 95 -20 78 0
95 -3 95 -15 0 -12 14 -15 70 -15 63 0 70 -2 70 -20 0 -19 7 -20 90 -20 83 0
90 -1 90 -20 0 -18 7 -20 75 -20 60 0 75 -3 75 -15 0 -12 17 -15 90 -15 83 0
90 -1 90 -20 0 -18 7 -20 55 -20 l55 0 0 -55 c0 -48 -2 -55 -20 -55 -18 0 -20
-7 -20 -55 0 -42 -3 -55 -15 -55 -12 0 -15 -13 -15 -55 0 -48 -2 -55 -20 -55
-17 0 -20 -7 -20 -50 0 -43 -3 -50 -20 -50 -17 0 -20 -7 -20 -40 0 -29 -4 -40
-15 -40 -12 0 -15 -13 -15 -55 0 -48 -2 -55 -20 -55 -18 0 -20 -7 -20 -55 0
-42 -3 -55 -15 -55 -11 0 -15 -12 -15 -50 0 -43 -3 -50 -20 -50 -18 0 -20 -7
-20 -55 0 -48 -2 -55 -20 -55 -17 0 -20 -7 -20 -40 0 -29 -4 -40 -15 -40 -12
0 -15 -13 -15 -55 0 -48 -2 -55 -20 -55 -17 0 -20 -7 -20 -50 0 -43 -3 -50
-20 -50 -18 0 -20 -7 -20 -55 0 -42 -3 -55 -15 -55 -12 0 -15 -13 -15 -55 0
-48 -2 -55 -20 -55 -17 0 -20 -7 -20 -40 0 -33 -3 -40 -20 -40 -17 0 -20 -7
-20 -50 0 -38 -4 -50 -15 -50 -12 0 -15 -13 -15 -55 0 -48 -2 -55 -20 -55 -18
0 -20 -7 -20 -55 0 -48 -2 -55 -20 -55 -17 0 -20 -7 -20 -40 0 -29 -4 -40 -15
-40 -11 0 -15 -12 -15 -50 0 -43 -3 -50 -20 -50 -18 0 -20 -7 -20 -55 0 -42
-3 -55 -15 -55 -12 0 -15 -13 -15 -55 0 -48 -2 -55 -20 -55 -18 0 -20 -7 -20
-55 0 -48 -2 -55 -20 -55 -16 0 -20 -7 -20 -35 0 -24 -5 -35 -15 -35 -12 0
-15 -13 -15 -55 0 -48 -2 -55 -20 -55 -20 0 -20 -7 -20 -330 0 -323 0 -330 20
-330 20 0 20 -7 20 -490 0 -429 2 -490 15 -490 8 0 15 -7 15 -15 0 -12 19 -15
110 -15 l110 0 0 380 c0 373 0 380 -20 380 -20 0 -20 7 -20 435 0 428 0 435
20 435 18 0 20 7 20 55 0 48 2 55 20 55 18 0 20 7 20 55 0 42 3 55 15 55 12 0
15 13 15 55 0 48 2 55 20 55 16 0 20 7 20 35 0 28 4 35 20 35 18 0 20 7 20 55
0 42 3 55 15 55 12 0 15 13 15 55 0 48 2 55 20 55 18 0 20 7 20 55 0 48 2 55
20 55 16 0 20 7 20 35 0 24 5 35 15 35 12 0 15 13 15 55 0 48 2 55 20 55 18 0
20 7 20 55 0 48 2 55 20 55 18 0 20 7 20 55 0 42 3 55 15 55 12 0 15 13 15 55
0 48 2 55 20 55 16 0 20 7 20 35 0 24 5 35 15 35 12 0 15 13 15 55 0 48 2 55
20 55 18 0 20 7 20 55 0 48 2 55 20 55 18 0 20 7 20 55 0 42 3 55 15 55 12 0
15 13 15 55 0 48 2 55 20 55 16 0 20 7 20 35 0 28 4 35 20 35 18 0 20 7 20 55
0 42 3 55 15 55 12 0 15 13 15 55 0 48 2 55 20 55 18 0 20 7 20 55 0 48 2 55
20 55 16 0 20 7 20 35 0 24 5 35 15 35 12 0 15 13 15 55 0 48 2 55 20 55 18 0
20 7 20 55 0 42 3 55 15 55 12 0 15 13 15 55 0 48 2 55 20 55 17 0 20 7 20 50
0 43 3 50 20 50 17 0 20 7 20 40 0 29 4 40 15 40 12 0 15 13 15 55 0 48 2 55
20 55 18 0 20 7 20 55 0 48 2 55 20 55 16 0 20 7 20 35 l0 35 55 0 c48 0 55
-2 55 -20 0 -11 7 -20 15 -20 8 0 15 -7 15 -15 0 -8 9 -15 20 -15 13 0 20 -7
20 -20 0 -13 7 -20 20 -20 13 0 20 -7 20 -20 0 -11 7 -20 15 -20 8 0 15 -7 15
-15 0 -8 9 -15 20 -15 13 0 20 -7 20 -20 0 -11 7 -20 15 -20 10 0 15 -11 15
-35 0 -28 4 -35 20 -35 13 0 20 -7 20 -20 0 -13 7 -20 20 -20 13 0 20 -7 20
-20 0 -11 7 -20 15 -20 10 0 15 -11 15 -35 0 -28 4 -35 20 -35 16 0 20 -7 20
-35 0 -28 4 -35 20 -35 16 0 20 -7 20 -35 0 -24 5 -35 15 -35 11 0 15 -11 15
-40 0 -33 3 -40 20 -40 18 0 20 -7 20 -55 0 -48 2 -55 20 -55 18 0 20 -7 20
-70 0 -56 3 -70 15 -70 12 0 15 -13 15 -55 0 -48 2 -55 20 -55 18 0 20 -7 20
-55 0 -42 3 -55 15 -55 12 0 15 -14 15 -70 0 -63 2 -70 20 -70 18 0 20 -7 20
-55 0 -48 2 -55 20 -55 18 0 20 -7 20 -55 l0 -55 -75 0 c-68 0 -75 -2 -75 -20
0 -16 -7 -20 -35 -20 -28 0 -35 -4 -35 -20 0 -13 -7 -20 -20 -20 -11 0 -20 -7
-20 -15 0 -8 -7 -15 -15 -15 -8 0 -15 -9 -15 -20 0 -13 -7 -20 -20 -20 -11 0
-20 -7 -20 -15 0 -8 -9 -15 -20 -15 -13 0 -20 -7 -20 -20 0 -11 -7 -20 -15
-20 -10 0 -15 -11 -15 -35 0 -28 -4 -35 -20 -35 -18 0 -20 -7 -20 -55 0 -48
-2 -55 -20 -55 -18 0 -20 -7 -20 -55 0 -42 -3 -55 -15 -55 -13 0 -15 -45 -15
-345 0 -300 2 -345 15 -345 12 0 15 -19 15 -110 0 -103 1 -110 20 -110 19 0
20 -7 20 -90 0 -83 1 -90 20 -90 19 0 20 -7 20 -90 0 -73 3 -90 15 -90 12 0
15 -17 15 -95 0 -88 1 -95 20 -95 19 0 20 -7 20 -90 0 -83 1 -90 20 -90 19 0
20 -7 20 -110 0 -91 3 -110 15 -110 12 0 15 -17 15 -90 0 -83 1 -90 20 -90 16
0 20 -7 20 -35 0 -28 4 -35 20 -35 13 0 20 -7 20 -20 0 -17 7 -20 50 -20 38 0
50 -4 50 -15 0 -12 13 -15 55 -15 48 0 55 -2 55 -20 0 -18 7 -20 75 -20 68 0
75 -2 75 -20 0 -18 7 -20 55 -20 42 0 55 -3 55 -15 0 -12 13 -15 55 -15 48 0
55 -2 55 -20 0 -18 7 -20 55 -20 48 0 55 -2 55 -20 0 -18 7 -20 55 -20 42 0
55 -3 55 -15 0 -12 13 -15 55 -15 48 0 55 -2 55 -20 0 -17 7 -20 50 -20 38 0
50 -4 50 -15 0 -11 11 -15 40 -15 l40 0 0 -55 c0 -42 3 -55 15 -55 10 0 15
-11 15 -35 l0 -35 110 0 110 0 0 90 c0 73 -3 90 -15 90 -12 0 -15 14 -15 70 0
63 -2 70 -20 70 -18 0 -20 7 -20 55 0 48 -2 55 -20 55 -18 0 -20 7 -20 55 0
42 -3 55 -15 55 -12 0 -15 14 -15 70 0 63 -2 70 -20 70 -18 0 -20 7 -20 55 0
48 -2 55 -20 55 -18 0 -20 7 -20 75 0 60 -3 75 -15 75 -12 0 -15 13 -15 55 0
48 -2 55 -20 55 -18 0 -20 7 -20 55 0 48 -2 55 -20 55 -18 0 -20 7 -20 70 0
56 -3 70 -15 70 -12 0 -15 13 -15 55 0 48 -2 55 -20 55 -18 0 -20 7 -20 75 0
60 -3 75 -15 75 -12 0 -15 13 -15 55 0 48 -2 55 -20 55 -18 0 -20 7 -20 55 0
48 -2 55 -20 55 -18 0 -20 7 -20 70 0 56 -3 70 -15 70 -12 0 -15 13 -15 55 0
48 -2 55 -20 55 -18 0 -20 7 -20 75 0 68 -2 75 -20 75 -17 0 -20 7 -20 50 0
38 -4 50 -15 50 -12 0 -15 13 -15 55 0 48 -2 55 -20 55 -18 0 -20 7 -20 75 0
68 -2 75 -20 75 -18 0 -20 7 -20 55 0 42 -3 55 -15 55 -12 0 -15 14 -15 70 0
63 -2 70 -20 70 -18 0 -20 7 -20 55 0 42 -3 55 -15 55 -12 0 -15 13 -15 55 0
48 -2 55 -20 55 -18 0 -20 7 -20 75 0 68 -2 75 -20 75 -18 0 -20 7 -20 55 0
42 -3 55 -15 55 -12 0 -15 14 -15 70 0 63 -2 70 -20 70 -18 0 -20 7 -20 55 0
48 -2 55 -20 55 -18 0 -20 7 -20 55 0 42 -3 55 -15 55 -12 0 -15 15 -15 75 0
68 -2 75 -20 75 -17 0 -20 7 -20 50 0 43 -3 50 -20 50 -18 0 -20 7 -20 55 0
42 -3 55 -15 55 -12 0 -15 13 -15 55 0 48 -2 55 -20 55 -17 0 -20 7 -20 40 0
33 -3 40 -20 40 -16 0 -20 7 -20 35 0 24 -5 35 -15 35 -10 0 -15 11 -15 35 0
28 -4 35 -20 35 -16 0 -20 7 -20 35 0 24 -5 35 -15 35 -8 0 -15 9 -15 20 0 13
-7 20 -20 20 -16 0 -20 7 -20 35 0 28 -4 35 -20 35 -13 0 -20 7 -20 20 0 11
-7 20 -15 20 -8 0 -15 9 -15 20 0 13 -7 20 -20 20 -11 0 -20 7 -20 15 0 8 -9
15 -20 15 -13 0 -20 7 -20 20 0 11 -7 20 -15 20 -8 0 -15 7 -15 15 0 8 -9 15
-20 15 -13 0 -20 7 -20 20 0 13 -7 20 -20 20 -13 0 -20 7 -20 20 0 11 -7 20
-15 20 -8 0 -15 7 -15 15 0 8 -9 15 -20 15 -13 0 -20 7 -20 20 0 11 -7 20 -15
20 -8 0 -15 9 -15 20 0 13 -7 20 -20 20 -11 0 -20 7 -20 15 0 10 -11 15 -35
15 -28 0 -35 4 -35 20 0 13 -7 20 -20 20 -13 0 -20 7 -20 20 0 16 -7 20 -35
20 -24 0 -35 5 -35 15 0 11 -11 15 -40 15 -33 0 -40 3 -40 20 0 16 -7 20 -35
20 -24 0 -35 5 -35 15 0 10 -11 15 -35 15 -28 0 -35 4 -35 20 0 16 -7 20 -35
20 -28 0 -35 4 -35 20 0 18 -7 20 -55 20 -42 0 -55 3 -55 15 0 12 -15 15 -75
15 -68 0 -75 2 -75 20 0 18 -7 20 -70 20 -63 0 -70 2 -70 20 0 18 -7 20 -75
20 -60 0 -75 3 -75 15 0 12 -15 15 -75 15 -68 0 -75 2 -75 20 0 19 -7 20 -90
20 -83 0 -90 1 -90 20 0 18 -7 20 -70 20 -56 0 -70 3 -70 15 0 12 -17 15 -95
15 -88 0 -95 1 -95 20 0 18 -7 20 -70 20 -56 0 -70 3 -70 15 0 12 -17 15 -90
15 -83 0 -90 1 -90 20 0 18 -7 20 -75 20 -68 0 -75 2 -75 20 0 13 -7 20 -20
20 -11 0 -20 7 -20 15 0 8 9 15 20 15 13 0 20 7 20 20 0 13 7 20 20 20 16 0
20 7 20 35 0 24 5 35 15 35 12 0 15 15 15 75 0 68 2 75 20 75 19 0 20 7 20 90
0 83 -1 90 -20 90 -18 0 -20 7 -20 55 0 42 -3 55 -15 55 -10 0 -15 11 -15 35
0 28 -4 35 -20 35 -16 0 -20 7 -20 35 0 28 -4 35 -20 35 -13 0 -20 7 -20 20 0
11 -7 20 -15 20 -8 0 -15 9 -15 20 0 13 -7 20 -20 20 -11 0 -20 7 -20 15 0 8
-7 15 -15 15 -8 0 -15 9 -15 20 0 13 -7 20 -20 20 -13 0 -20 7 -20 20 0 13 -7
20 -20 20 -16 0 -20 7 -20 35 0 24 -5 35 -15 35 -8 0 -15 9 -15 20 0 13 -7 20
-20 20 -16 0 -20 7 -20 35 0 28 -4 35 -20 35 -11 0 -20 7 -20 15 0 8 -7 15
-15 15 -11 0 -15 11 -15 40 0 33 -3 40 -20 40 -16 0 -20 7 -20 35 0 28 -4 35
-20 35 -18 0 -20 7 -20 75 0 60 -3 75 -15 75 -12 0 -15 14 -15 70 0 63 -2 70
-20 70 -19 0 -20 7 -20 220 0 213 1 220 20 220 19 0 20 7 20 90 0 73 3 90 15
90 12 0 15 14 15 70 0 63 2 70 20 70 18 0 20 7 20 55 0 48 2 55 20 55 19 0 20
7 20 95 0 78 3 95 15 95 12 0 15 14 15 70 0 63 2 70 20 70 19 0 20 7 20 110 0
103 1 110 20 110 19 0 20 7 20 110 0 91 3 110 15 110 13 0 15 27 15 180 0 173
1 180 20 180 20 0 20 7 20 345 0 338 0 345 -20 345 -19 0 -20 7 -20 165 0 140
-2 165 -15 165 -12 0 -15 17 -15 90 0 83 -1 90 -20 90 -18 0 -20 7 -20 75 0
68 -2 75 -20 75 -18 0 -20 7 -20 70 0 56 -3 70 -15 70 -12 0 -15 13 -15 55 0
48 -2 55 -20 55 -16 0 -20 7 -20 35 0 28 -4 35 -20 35 -13 0 -20 7 -20 20 0
13 7 20 20 20 13 0 20 7 20 20 0 13 7 20 20 20 19 0 20 7 20 125 0 104 2 125
15 125 13 0 15 29 15 200 0 193 1 200 20 200 19 0 20 7 20 200 0 193 1 200 20
200 19 0 20 7 20 220 0 189 2 220 15 220 10 0 15 11 15 35 0 34 1 35 40 35 33
0 40 3 40 20 0 16 7 20 35 20 24 0 35 5 35 15 0 10 11 15 35 15 28 0 35 4 35
20 0 16 7 20 35 20 28 0 35 4 35 20 0 18 7 20 55 20 42 0 55 3 55 15 0 8 9 15
20 15 16 0 20 7 20 35 0 28 4 35 20 35 17 0 20 7 20 40 0 29 4 40 15 40 8 0
15 7 15 15 0 8 9 15 20 15 17 0 20 7 20 40 0 33 3 40 20 40 16 0 20 7 20 35 0
24 5 35 15 35 10 0 15 11 15 35 0 28 4 35 20 35 13 0 20 7 20 20 0 11 7 20 15
20 10 0 15 11 15 35 0 28 4 35 20 35 16 0 20 7 20 35 0 28 4 35 20 35 13 0 20
7 20 20 0 11 7 20 15 20 10 0 15 11 15 35 0 28 4 35 20 35 17 0 20 7 20 40 0
33 3 40 20 40 11 0 20 7 20 15 0 8 7 15 15 15 10 0 15 11 15 35 0 28 4 35 20
35 17 0 20 7 20 40 0 33 3 40 20 40 11 0 20 7 20 15 0 8 7 15 15 15 11 0 15
11 15 40 0 33 3 40 20 40 18 0 20 7 20 55 0 48 -2 55 -20 55 -16 0 -20 7 -20
35 0 24 -5 35 -15 35 -8 0 -15 7 -15 15 0 8 -9 15 -20 15 -13 0 -20 7 -20 20
0 13 -7 20 -20 20 -13 0 -20 7 -20 20 0 11 -7 20 -15 20 -8 0 -15 7 -15 15 0
8 -9 15 -20 15 -13 0 -20 7 -20 20 0 13 -7 20 -20 20 -13 0 -20 7 -20 20 0 11
-7 20 -15 20 -8 0 -15 7 -15 15 0 8 -9 15 -20 15 -13 0 -20 7 -20 20 0 13 -7
20 -20 20 -13 0 -20 7 -20 20 0 11 -7 20 -15 20 -8 0 -15 7 -15 15 0 8 -9 15
-20 15 -13 0 -20 7 -20 20 0 11 -7 20 -15 20 -8 0 -15 7 -15 15 0 8 -9 15 -20
15 -13 0 -20 7 -20 20 0 13 -7 20 -20 20 -13 0 -20 7 -20 20 0 11 -7 20 -15
20 -8 0 -15 7 -15 15 0 8 -9 15 -20 15 -13 0 -20 7 -20 20 0 13 -7 20 -20 20
-13 0 -20 7 -20 20 0 11 -7 20 -15 20 -8 0 -15 7 -15 15 0 8 -9 15 -20 15 -13
0 -20 7 -20 20 0 13 -7 20 -20 20 -13 0 -20 7 -20 20 0 11 -7 20 -15 20 -8 0
-15 7 -15 15 0 8 -9 15 -20 15 -13 0 -20 7 -20 20 0 13 -7 20 -20 20 -11 0
-20 7 -20 15 0 8 -7 15 -15 15 -11 0 -15 11 -15 40 0 33 -3 40 -20 40 -11 0
-20 7 -20 15 0 8 -7 15 -15 15 -8 0 -15 9 -15 20 0 13 -7 20 -20 20 -13 0 -20
7 -20 20 0 13 -7 20 -20 20 -11 0 -20 7 -20 15 0 8 -7 15 -15 15 -8 0 -15 9
-15 20 0 13 -7 20 -20 20 -13 0 -20 7 -20 20 0 13 -7 20 -20 20 -11 0 -20 7
-20 15 0 10 -11 15 -35 15 -28 0 -35 4 -35 20 0 18 -7 20 -70 20 -56 0 -70 3
-70 15 0 12 -15 15 -75 15 -68 0 -75 2 -75 20 0 18 -7 20 -75 20 -68 0 -75 2
-75 20 0 18 -7 20 -70 20 -56 0 -70 3 -70 15 0 12 -15 15 -75 15 -68 0 -75 2
-75 20 0 18 -7 20 -70 20 -63 0 -70 2 -70 20 0 18 -7 20 -55 20 -42 0 -55 3
-55 15 0 12 -15 15 -75 15 -68 0 -75 2 -75 20 0 18 -7 20 -70 20 -63 0 -70 2
-70 20 0 18 -7 20 -75 20 -60 0 -75 3 -75 15 0 12 -14 15 -70 15 -63 0 -70 2
-70 20 0 18 -7 20 -75 20 -60 0 -75 3 -75 15 0 12 -15 15 -75 15 -68 0 -75 2
-75 20 0 18 -7 20 -70 20 -63 0 -70 2 -70 20 0 18 -7 20 -75 20 -60 0 -75 3
-75 15 0 12 -14 15 -70 15 -63 0 -70 2 -70 20 0 18 -7 20 -55 20 -48 0 -55 2
-55 20 0 18 -7 20 -75 20 -60 0 -75 3 -75 15 0 12 -14 15 -70 15 -63 0 -70 2
-70 20 0 18 -7 20 -75 20 -68 0 -75 2 -75 20 0 18 -7 20 -70 20 -56 0 -70 3
-70 15 0 12 -15 15 -75 15 -68 0 -75 2 -75 20 0 18 -7 20 -75 20 -60 0 -75 3
-75 15 0 12 -14 15 -70 15 -63 0 -70 2 -70 20 0 13 -7 20 -20 20 -13 0 -20 -7
-20 -20z m40 -250 c0 -18 7 -20 70 -20 63 0 70 -2 70 -20 0 -18 7 -20 75 -20
60 0 75 -3 75 -15 0 -12 15 -15 75 -15 68 0 75 -2 75 -20 0 -18 7 -20 70 -20
63 0 70 -2 70 -20 0 -18 7 -20 75 -20 60 0 75 -3 75 -15 0 -12 14 -15 70 -15
63 0 70 -2 70 -20 0 -18 7 -20 75 -20 60 0 75 -3 75 -15 0 -12 13 -15 55 -15
48 0 55 -2 55 -20 0 -18 7 -20 70 -20 63 0 70 -2 70 -20 0 -18 7 -20 75 -20
60 0 75 -3 75 -15 0 -12 14 -15 70 -15 63 0 70 -2 70 -20 0 -18 7 -20 75 -20
68 0 75 -2 75 -20 0 -18 7 -20 75 -20 60 0 75 -3 75 -15 0 -12 14 -15 70 -15
63 0 70 -2 70 -20 0 -18 7 -20 75 -20 68 0 75 -2 75 -20 0 -18 7 -20 70 -20
56 0 70 -3 70 -15 0 -12 13 -15 55 -15 48 0 55 -2 55 -20 0 -18 7 -20 75 -20
60 0 75 -3 75 -15 0 -12 14 -15 70 -15 63 0 70 -2 70 -20 0 -18 7 -20 75 -20
68 0 75 -2 75 -20 0 -18 7 -20 70 -20 56 0 70 -3 70 -15 0 -12 15 -15 75 -15
68 0 75 -2 75 -20 0 -18 7 -20 75 -20 68 0 75 -2 75 -20 0 -16 7 -20 35 -20
24 0 35 -5 35 -15 0 -8 7 -15 15 -15 8 0 15 -9 15 -20 0 -13 7 -20 20 -20 13
0 20 -7 20 -20 0 -13 7 -20 20 -20 11 0 20 -7 20 -15 0 -8 7 -15 15 -15 8 0
15 -9 15 -20 0 -13 7 -20 20 -20 11 0 20 -7 20 -15 0 -8 9 -15 20 -15 13 0 20
-7 20 -20 0 -11 7 -20 15 -20 8 0 15 -9 15 -20 0 -13 7 -20 20 -20 11 0 20 -7
20 -15 0 -8 9 -15 20 -15 13 0 20 -7 20 -20 0 -11 7 -20 15 -20 8 0 15 -9 15
-20 0 -13 7 -20 20 -20 11 0 20 -7 20 -15 0 -8 7 -15 15 -15 8 0 15 -9 15 -20
0 -13 7 -20 20 -20 13 0 20 -7 20 -20 0 -13 7 -20 20 -20 11 0 20 -7 20 -15 0
-8 7 -15 15 -15 8 0 15 -9 15 -20 0 -13 7 -20 20 -20 11 0 20 -7 20 -15 0 -8
9 -15 20 -15 17 0 20 -7 20 -40 0 -29 4 -40 15 -40 8 0 15 -7 15 -15 0 -8 9
-15 20 -15 13 0 20 -7 20 -20 0 -13 7 -20 20 -20 13 0 20 -7 20 -20 0 -11 7
-20 15 -20 8 0 15 -7 15 -15 0 -8 9 -15 20 -15 13 0 20 -7 20 -20 0 -13 7 -20
20 -20 13 0 20 -7 20 -20 0 -11 7 -20 15 -20 8 0 15 -7 15 -15 0 -8 9 -15 20
-15 13 0 20 -7 20 -20 0 -11 7 -20 15 -20 8 0 15 -7 15 -15 0 -8 9 -15 20 -15
13 0 20 -7 20 -20 0 -13 7 -20 20 -20 16 0 20 -7 20 -35 0 -28 -4 -35 -20 -35
-17 0 -20 -7 -20 -40 0 -33 -3 -40 -20 -40 -11 0 -20 -7 -20 -15 0 -8 -7 -15
-15 -15 -11 0 -15 -11 -15 -40 0 -33 -3 -40 -20 -40 -16 0 -20 -7 -20 -35 0
-24 -5 -35 -15 -35 -8 0 -15 -7 -15 -15 0 -8 -9 -15 -20 -15 -17 0 -20 -7 -20
-40 0 -33 -3 -40 -20 -40 -16 0 -20 -7 -20 -35 0 -24 -5 -35 -15 -35 -10 0
-15 -11 -15 -35 0 -28 -4 -35 -20 -35 -13 0 -20 -7 -20 -20 0 -13 -7 -20 -20
-20 -16 0 -20 -7 -20 -35 0 -24 -5 -35 -15 -35 -10 0 -15 -11 -15 -35 0 -28
-4 -35 -20 -35 -13 0 -20 -7 -20 -20 0 -13 -7 -20 -20 -20 -16 0 -20 -7 -20
-35 0 -24 -5 -35 -15 -35 -11 0 -15 -11 -15 -40 l0 -40 -40 0 c-29 0 -40 -4
-40 -15 0 -10 -11 -15 -35 -15 -28 0 -35 -4 -35 -20 0 -16 -7 -20 -35 -20 -28
0 -35 -4 -35 -20 0 -16 -7 -20 -35 -20 -24 0 -35 -5 -35 -15 0 -11 -11 -15
-40 -15 -33 0 -40 -3 -40 -20 0 -18 -7 -20 -70 -20 -63 0 -70 2 -70 20 0 19
-7 20 -90 20 -73 0 -90 3 -90 15 0 12 -17 15 -95 15 -88 0 -95 1 -95 20 0 19
-7 20 -90 20 -83 0 -90 1 -90 20 0 19 -7 20 -110 20 -91 0 -110 3 -110 15 0
12 -18 15 -105 15 -98 0 -105 1 -105 20 0 19 -7 20 -130 20 -123 0 -130 1
-130 20 0 19 -7 20 -145 20 -122 0 -145 2 -145 15 0 13 -27 15 -180 15 -173 0
-180 1 -180 20 0 19 -7 20 -240 20 -233 0 -240 1 -240 20 0 20 -7 20 -965 20
-958 0 -965 0 -965 -20 0 -19 -7 -20 -235 -20 -228 0 -235 -1 -235 -20 0 -19
-7 -20 -180 -20 -153 0 -180 -2 -180 -15 0 -13 -23 -15 -150 -15 -143 0 -150
-1 -150 -20 0 -19 -7 -20 -125 -20 -118 0 -125 -1 -125 -20 0 -19 -7 -20 -110
-20 -91 0 -110 -3 -110 -15 0 -12 -19 -15 -110 -15 -103 0 -110 -1 -110 -20 0
-19 -7 -20 -90 -20 -83 0 -90 -1 -90 -20 0 -19 -7 -20 -90 -20 -73 0 -90 -3
-90 -15 0 -12 -17 -15 -90 -15 -83 0 -90 -1 -90 -20 0 -19 -7 -20 -95 -20 -88
0 -95 1 -95 20 0 16 -7 20 -35 20 -24 0 -35 5 -35 15 0 10 -11 15 -35 15 -28
0 -35 4 -35 20 0 16 -7 20 -35 20 -28 0 -35 4 -35 20 0 18 -7 20 -55 20 -42 0
-55 3 -55 15 0 8 -9 15 -20 15 -13 0 -20 7 -20 20 0 13 -7 20 -20 20 -16 0
-20 7 -20 35 0 24 -5 35 -15 35 -11 0 -15 11 -15 40 0 33 -3 40 -20 40 -16 0
-20 7 -20 35 0 24 -5 35 -15 35 -8 0 -15 7 -15 15 0 8 -9 15 -20 15 -17 0 -20
7 -20 40 0 33 -3 40 -20 40 -16 0 -20 7 -20 35 0 24 -5 35 -15 35 -8 0 -15 9
-15 20 0 13 -7 20 -20 20 -16 0 -20 7 -20 35 0 28 -4 35 -20 35 -16 0 -20 7
-20 35 0 24 -5 35 -15 35 -8 0 -15 9 -15 20 0 13 -7 20 -20 20 -16 0 -20 7
-20 35 0 28 -4 35 -20 35 -16 0 -20 7 -20 35 0 24 -5 35 -15 35 -8 0 -15 9
-15 20 0 13 -7 20 -20 20 -18 0 -20 7 -20 55 0 48 2 55 20 55 13 0 20 7 20 20
0 11 7 20 15 20 8 0 15 7 15 15 0 8 9 15 20 15 16 0 20 7 20 35 0 28 4 35 20
35 13 0 20 7 20 20 0 11 7 20 15 20 8 0 15 9 15 20 0 13 7 20 20 20 11 0 20 7
20 15 0 8 9 15 20 15 13 0 20 7 20 20 0 11 7 20 15 20 8 0 15 9 15 20 0 13 7
20 20 20 11 0 20 7 20 15 0 8 9 15 20 15 13 0 20 7 20 20 0 11 7 20 15 20 8 0
15 9 15 20 0 13 7 20 20 20 11 0 20 7 20 15 0 8 7 15 15 15 8 0 15 9 15 20 0
13 7 20 20 20 11 0 20 7 20 15 0 8 9 15 20 15 13 0 20 7 20 20 0 11 7 20 15
20 8 0 15 9 15 20 0 13 7 20 20 20 11 0 20 7 20 15 0 8 9 15 20 15 13 0 20 7
20 20 0 11 7 20 15 20 8 0 15 9 15 20 0 13 7 20 20 20 11 0 20 7 20 15 0 8 9
15 20 15 13 0 20 7 20 20 0 11 7 20 15 20 8 0 15 9 15 20 0 13 7 20 20 20 11
0 20 7 20 15 0 8 7 15 15 15 8 0 15 9 15 20 0 13 7 20 20 20 11 0 20 7 20 15
0 8 9 15 20 15 13 0 20 7 20 20 0 11 7 20 15 20 10 0 15 11 15 35 l0 35 55 0
c48 0 55 2 55 20 0 18 7 20 75 20 68 0 75 2 75 20 0 18 7 20 70 20 56 0 70 3
70 15 0 12 13 15 55 15 48 0 55 2 55 20 0 18 7 20 75 20 68 0 75 2 75 20 0 18
7 20 70 20 56 0 70 3 70 15 0 12 15 15 75 15 68 0 75 2 75 20 0 18 7 20 75 20
60 0 75 3 75 15 0 12 14 15 70 15 63 0 70 2 70 20 0 18 7 20 75 20 68 0 75 2
75 20 0 18 7 20 55 20 42 0 55 3 55 15 0 12 14 15 70 15 63 0 70 2 70 20 0 18
7 20 75 20 68 0 75 2 75 20 0 18 7 20 70 20 56 0 70 3 70 15 0 12 15 15 75 15
68 0 75 2 75 20 0 18 7 20 70 20 63 0 70 2 70 20 0 18 7 20 75 20 60 0 75 3
75 15 0 12 13 15 55 15 48 0 55 2 55 20 0 18 7 20 70 20 56 0 70 3 70 15 0 12
15 15 75 15 68 0 75 2 75 20 0 18 7 20 75 20 68 0 75 2 75 20 0 18 7 20 70 20
56 0 70 3 70 15 0 12 15 15 75 15 68 0 75 2 75 20 0 18 7 20 70 20 63 0 70 2
70 20 0 13 7 20 20 20 13 0 20 -7 20 -20z m220 -2910 c0 -20 7 -20 435 -20
428 0 435 0 435 -20 0 -19 7 -20 220 -20 189 0 220 -2 220 -15 0 -13 25 -15
165 -15 158 0 165 -1 165 -20 0 -19 7 -20 145 -20 122 0 145 -2 145 -15 0 -13
21 -15 125 -15 118 0 125 -1 125 -20 0 -19 7 -20 110 -20 103 0 110 -1 110
-20 0 -19 7 -20 90 -20 73 0 90 -3 90 -15 0 -12 17 -15 90 -15 83 0 90 -1 90
-20 0 -19 7 -20 95 -20 88 0 95 -1 95 -20 0 -18 7 -20 70 -20 56 0 70 -3 70
-15 0 -8 9 -15 20 -15 17 0 20 -7 20 -40 0 -33 -3 -40 -20 -40 -19 0 -20 -7
-20 -215 0 -184 -2 -215 -15 -215 -13 0 -15 -31 -15 -220 0 -213 -1 -220 -20
-220 -19 0 -20 -7 -20 -145 l0 -145 -90 0 c-83 0 -90 1 -90 20 0 19 -7 20 -95
20 -78 0 -95 3 -95 15 0 12 -17 15 -90 15 -83 0 -90 1 -90 20 0 19 -7 20 -90
20 -83 0 -90 1 -90 20 0 19 -7 20 -110 20 -91 0 -110 3 -110 15 0 13 -21 15
-125 15 -118 0 -125 1 -125 20 0 19 -7 20 -145 20 -138 0 -145 1 -145 20 0 19
-7 20 -165 20 -140 0 -165 2 -165 15 0 13 -29 15 -200 15 -193 0 -200 1 -200
20 0 20 -7 20 -440 20 -384 0 -440 2 -440 15 0 13 -23 15 -145 15 -122 0 -145
-2 -145 -15 0 -13 -55 -15 -435 -15 -428 0 -435 0 -435 -20 0 -19 -7 -20 -220
-20 -189 0 -220 -2 -220 -15 0 -13 -24 -15 -160 -15 -153 0 -160 -1 -160 -20
0 -19 -7 -20 -130 -20 -123 0 -130 -1 -130 -20 0 -19 -7 -20 -125 -20 -104 0
-125 -2 -125 -15 0 -12 -19 -15 -110 -15 -103 0 -110 -1 -110 -20 0 -19 -7
-20 -90 -20 -83 0 -90 -1 -90 -20 0 -19 -7 -20 -110 -20 -91 0 -110 -3 -110
-15 0 -12 -15 -15 -75 -15 -68 0 -75 -2 -75 -20 0 -19 -7 -20 -90 -20 l-90 0
0 90 c0 83 -1 90 -20 90 -20 0 -20 7 -20 400 0 349 -2 400 -15 400 -13 0 -15
23 -15 145 l0 145 90 0 c83 0 90 1 90 20 0 18 7 20 70 20 63 0 70 2 70 20 0
19 7 20 110 20 91 0 110 3 110 15 0 12 17 15 90 15 83 0 90 1 90 20 0 19 7 20
130 20 123 0 130 1 130 20 0 19 7 20 110 20 91 0 110 3 110 15 0 13 23 15 145
15 138 0 145 1 145 20 0 19 7 20 165 20 140 0 165 2 165 15 0 13 31 15 215 15
208 0 215 1 215 20 0 20 7 20 440 20 433 0 440 0 440 20 0 19 7 20 200 20 193
0 200 -1 200 -20z m70 -1530 c0 -20 7 -20 380 -20 331 0 380 -2 380 -15 0 -13
29 -15 205 -15 198 0 205 -1 205 -20 0 -19 7 -20 145 -20 138 0 145 -1 145
-20 0 -19 7 -20 145 -20 122 0 145 -2 145 -15 0 -12 19 -15 110 -15 103 0 110
-1 110 -20 0 -18 7 -20 55 -20 42 0 55 -3 55 -15 0 -8 -9 -15 -20 -15 -13 0
-20 -7 -20 -20 0 -13 -7 -20 -20 -20 -13 0 -20 -7 -20 -20 0 -11 -7 -20 -15
-20 -8 0 -15 -7 -15 -15 0 -8 -9 -15 -20 -15 -13 0 -20 -7 -20 -20 0 -13 -7
-20 -20 -20 -13 0 -20 -7 -20 -20 0 -20 -7 -20 -2180 -20 -2173 0 -2180 0
-2180 20 0 13 -7 20 -20 20 -13 0 -20 7 -20 20 0 13 -7 20 -20 20 -11 0 -20 7
-20 15 0 8 -7 15 -15 15 -11 0 -15 11 -15 40 0 33 -3 40 -20 40 -11 0 -20 7
-20 15 0 8 9 15 20 15 13 0 20 7 20 20 0 19 7 20 125 20 104 0 125 2 125 15 0
13 21 15 130 15 123 0 130 1 130 20 0 19 7 20 160 20 153 0 160 1 160 20 0 19
7 20 200 20 171 0 200 2 200 15 0 13 49 15 385 15 378 0 385 0 385 20 0 20 7
20 290 20 283 0 290 0 290 -20z m-2950 -250 c0 -13 7 -20 20 -20 13 0 20 -7
20 -20 0 -11 7 -20 15 -20 8 0 15 -7 15 -15 0 -8 9 -15 20 -15 13 0 20 -7 20
-20 0 -13 7 -20 20 -20 13 0 20 -7 20 -20 0 -11 7 -20 15 -20 8 0 15 -7 15
-15 0 -8 9 -15 20 -15 17 0 20 -7 20 -40 0 -33 3 -40 20 -40 11 0 20 -7 20
-15 0 -8 7 -15 15 -15 8 0 15 -9 15 -20 0 -13 7 -20 20 -20 11 0 20 -7 20 -15
0 -10 11 -15 35 -15 28 0 35 -4 35 -20 0 -20 7 -20 2260 -20 2253 0 2260 0
2260 20 0 16 7 20 35 20 24 0 35 5 35 15 0 8 9 15 20 15 13 0 20 7 20 20 0 11
7 20 15 20 8 0 15 7 15 15 0 8 9 15 20 15 13 0 20 7 20 20 0 11 7 20 15 20 8
0 15 9 15 20 0 13 7 20 20 20 11 0 20 7 20 15 0 8 9 15 20 15 13 0 20 7 20 20
0 11 7 20 15 20 8 0 15 9 15 20 0 13 7 20 20 20 11 0 20 7 20 15 0 8 9 15 20
15 13 0 20 7 20 20 0 19 7 20 105 20 98 0 105 -1 105 -20 0 -19 7 -20 95 -20
78 0 95 -3 95 -15 0 -8 7 -15 15 -15 11 0 15 -11 15 -40 0 -33 3 -40 20 -40
19 0 20 -7 20 -105 0 -98 -1 -105 -20 -105 -19 0 -20 -7 -20 -110 0 -91 -3
-110 -15 -110 -12 0 -15 -15 -15 -75 0 -68 -2 -75 -20 -75 -18 0 -20 -7 -20
-70 0 -63 -2 -70 -20 -70 -18 0 -20 -7 -20 -75 0 -60 -3 -75 -15 -75 -12 0
-15 -19 -15 -110 0 -103 -1 -110 -20 -110 -19 0 -20 -7 -20 -90 0 -83 -1 -90
-20 -90 -19 0 -20 -7 -20 -90 0 -73 -3 -90 -15 -90 -10 0 -15 -11 -15 -35 0
-28 -4 -35 -20 -35 -13 0 -20 -7 -20 -20 0 -11 -7 -20 -15 -20 -8 0 -15 -9
-15 -20 0 -18 -7 -20 -55 -20 -42 0 -55 -3 -55 -15 0 -12 -15 -15 -75 -15
l-75 0 0 -40 c0 -33 -3 -40 -20 -40 -19 0 -20 -7 -20 -90 0 -73 -3 -90 -15
-90 -12 0 -15 -14 -15 -70 0 -63 -2 -70 -20 -70 -18 0 -20 -7 -20 -55 0 -42
-3 -55 -15 -55 -12 0 -15 -13 -15 -55 0 -48 -2 -55 -20 -55 -16 0 -20 -7 -20
-35 0 -28 -4 -35 -20 -35 -17 0 -20 -7 -20 -40 0 -29 -4 -40 -15 -40 -10 0
-15 -11 -15 -35 0 -28 -4 -35 -20 -35 -16 0 -20 -7 -20 -35 0 -28 -4 -35 -20
-35 -16 0 -20 -7 -20 -35 0 -24 -5 -35 -15 -35 -11 0 -15 -11 -15 -40 0 -33
-3 -40 -20 -40 -11 0 -20 -7 -20 -15 0 -8 -9 -15 -20 -15 -13 0 -20 -7 -20
-20 0 -11 -7 -20 -15 -20 -10 0 -15 -11 -15 -35 0 -28 -4 -35 -20 -35 -13 0
-20 -7 -20 -20 0 -13 -7 -20 -20 -20 -13 0 -20 -7 -20 -20 0 -11 -7 -20 -15
-20 -8 0 -15 -7 -15 -15 0 -8 -9 -15 -20 -15 -16 0 -20 -7 -20 -35 0 -24 -5
-35 -15 -35 -8 0 -15 -9 -15 -20 0 -13 -7 -20 -20 -20 -13 0 -20 -7 -20 -20 0
-13 -7 -20 -20 -20 -11 0 -20 -7 -20 -15 0 -10 -11 -15 -35 -15 -28 0 -35 -4
-35 -20 0 -13 -7 -20 -20 -20 -13 0 -20 -7 -20 -20 0 -16 -7 -20 -35 -20 -24
0 -35 -5 -35 -15 0 -10 -11 -15 -35 -15 -28 0 -35 -4 -35 -20 0 -13 -7 -20
-20 -20 -13 0 -20 -7 -20 -20 0 -16 -7 -20 -35 -20 -24 0 -35 -5 -35 -15 0
-10 -11 -15 -35 -15 -28 0 -35 -4 -35 -20 0 -13 -7 -20 -20 -20 -11 0 -20 -7
-20 -15 0 -10 -11 -15 -35 -15 -28 0 -35 -4 -35 -20 0 -13 -7 -20 -20 -20 -13
0 -20 -7 -20 -20 0 -16 -7 -20 -35 -20 -24 0 -35 -5 -35 -15 0 -11 -11 -15
-40 -15 -33 0 -40 -3 -40 -20 0 -11 -7 -20 -15 -20 -8 0 -15 -9 -15 -20 0 -16
-7 -20 -35 -20 -24 0 -35 -5 -35 -15 0 -8 -9 -15 -20 -15 -13 0 -20 -7 -20
-20 0 -16 -7 -20 -35 -20 -28 0 -35 -4 -35 -20 0 -17 -7 -20 -40 -20 -29 0
-40 -4 -40 -15 0 -8 -7 -15 -15 -15 -8 0 -15 -9 -15 -20 0 -18 -7 -20 -55 -20
-42 0 -55 -3 -55 -15 0 -12 -13 -15 -55 -15 -48 0 -55 -2 -55 -20 0 -18 -7
-20 -75 -20 -68 0 -75 -2 -75 -20 0 -20 -7 -20 -310 -20 -303 0 -310 0 -310
20 0 19 -7 20 -90 20 -83 0 -90 1 -90 20 0 18 -7 20 -55 20 -42 0 -55 3 -55
15 0 10 -11 15 -35 15 -28 0 -35 4 -35 20 0 13 -7 20 -20 20 -11 0 -20 7 -20
15 0 10 -11 15 -35 15 -28 0 -35 4 -35 20 0 16 -7 20 -35 20 -28 0 -35 4 -35
20 0 16 -7 20 -35 20 -24 0 -35 5 -35 15 0 11 -11 15 -40 15 -33 0 -40 3 -40
20 0 16 -7 20 -35 20 -28 0 -35 4 -35 20 0 16 -7 20 -35 20 -24 0 -35 5 -35
15 0 8 -9 15 -20 15 -13 0 -20 7 -20 20 0 16 -7 20 -35 20 -28 0 -35 4 -35 20
0 16 -7 20 -35 20 -24 0 -35 5 -35 15 0 11 -11 15 -40 15 -33 0 -40 3 -40 20
0 16 -7 20 -35 20 -24 0 -35 5 -35 15 0 10 -11 15 -35 15 -28 0 -35 4 -35 20
0 13 -7 20 -20 20 -13 0 -20 7 -20 20 0 16 -7 20 -35 20 -24 0 -35 5 -35 15 0
11 -11 15 -40 15 -33 0 -40 3 -40 20 0 16 -7 20 -35 20 -28 0 -35 4 -35 20 0
16 -7 20 -35 20 -24 0 -35 5 -35 15 0 8 -9 15 -20 15 -13 0 -20 7 -20 20 0 11
-7 20 -15 20 -8 0 -15 9 -15 20 0 13 -7 20 -20 20 -11 0 -20 7 -20 15 0 8 -9
15 -20 15 -16 0 -20 7 -20 35 0 24 -5 35 -15 35 -8 0 -15 9 -15 20 0 13 -7 20
-20 20 -13 0 -20 7 -20 20 0 13 -7 20 -20 20 -11 0 -20 7 -20 15 0 8 -7 15
-15 15 -11 0 -15 11 -15 40 0 33 -3 40 -20 40 -11 0 -20 7 -20 15 0 8 -7 15
-15 15 -11 0 -15 11 -15 40 0 33 -3 40 -20 40 -16 0 -20 7 -20 35 0 28 -4 35
-20 35 -11 0 -20 7 -20 15 0 8 -7 15 -15 15 -11 0 -15 11 -15 40 0 33 -3 40
-20 40 -18 0 -20 7 -20 55 0 48 -2 55 -20 55 -16 0 -20 7 -20 35 0 24 -5 35
-15 35 -12 0 -15 13 -15 55 0 48 -2 55 -20 55 -18 0 -20 7 -20 55 0 48 -2 55
-20 55 -18 0 -20 7 -20 70 0 56 -3 70 -15 70 -12 0 -15 17 -15 90 0 83 -1 90
-20 90 -13 0 -20 7 -20 20 0 13 -7 20 -20 20 -13 0 -20 7 -20 20 0 17 -7 20
-50 20 -38 0 -50 4 -50 15 0 12 -13 15 -55 15 -48 0 -55 2 -55 20 0 13 -7 20
-20 20 -13 0 -20 7 -20 20 0 13 -7 20 -20 20 -16 0 -20 7 -20 35 0 24 -5 35
-15 35 -12 0 -15 17 -15 90 0 83 -1 90 -20 90 -19 0 -20 7 -20 90 0 83 -1 90
-20 90 -19 0 -20 7 -20 90 0 73 -3 90 -15 90 -12 0 -15 15 -15 75 0 68 -2 75
-20 75 -18 0 -20 7 -20 75 0 60 -3 75 -15 75 -12 0 -15 17 -15 90 0 83 -1 90
-20 90 -19 0 -20 7 -20 90 0 83 -1 90 -20 90 -19 0 -20 7 -20 125 0 118 1 125
20 125 17 0 20 7 20 40 0 39 1 40 35 40 24 0 35 5 35 15 0 12 17 15 90 15 83
0 90 1 90 20 0 19 7 20 95 20 88 0 95 1 95 20 0 11 7 20 15 20 8 0 15 -9 15
-20z m5970 -840 c0 -13 7 -20 20 -20 19 0 20 -7 20 -125 0 -104 2 -125 15
-125 13 0 15 -49 15 -385 0 -336 -2 -385 -15 -385 -13 0 -15 -24 -15 -160 0
-153 -1 -160 -20 -160 -19 0 -20 -7 -20 -130 0 -109 -2 -130 -15 -130 -12 0
-15 -17 -15 -90 0 -83 -1 -90 -20 -90 -18 0 -20 -7 -20 -70 0 -63 -2 -70 -20
-70 -18 0 -20 -7 -20 -75 0 -60 -3 -75 -15 -75 -12 0 -15 -15 -15 -75 0 -68
-2 -75 -20 -75 -18 0 -20 -7 -20 -70 0 -63 -2 -70 -20 -70 -19 0 -20 -7 -20
-110 0 -91 -3 -110 -15 -110 -13 0 -15 -27 -15 -180 0 -153 2 -180 15 -180 12
0 15 -19 15 -110 0 -103 1 -110 20 -110 18 0 20 -7 20 -55 0 -48 2 -55 20 -55
18 0 20 -7 20 -55 0 -42 3 -55 15 -55 10 0 15 -11 15 -35 0 -28 4 -35 20 -35
16 0 20 -7 20 -35 0 -28 4 -35 20 -35 17 0 20 -7 20 -40 0 -29 4 -40 15 -40 8
0 15 -7 15 -15 0 -8 9 -15 20 -15 17 0 20 -7 20 -40 0 -29 4 -40 15 -40 8 0
15 -7 15 -15 0 -8 9 -15 20 -15 13 0 20 -7 20 -20 0 -13 7 -20 20 -20 13 0 20
-7 20 -20 0 -11 7 -20 15 -20 8 0 15 -7 15 -15 0 -8 9 -15 20 -15 13 0 20 -7
20 -20 0 -13 7 -20 20 -20 16 0 20 -7 20 -35 0 -24 5 -35 15 -35 8 0 15 -9 15
-20 0 -13 7 -20 20 -20 16 0 20 -7 20 -35 0 -28 4 -35 20 -35 19 0 20 -7 20
-90 0 -83 -1 -90 -20 -90 -18 0 -20 -7 -20 -55 0 -48 -2 -55 -20 -55 -13 0
-20 -7 -20 -20 0 -11 -7 -20 -15 -20 -8 0 -15 -7 -15 -15 0 -8 -9 -15 -20 -15
-13 0 -20 -7 -20 -20 0 -19 -7 -20 -90 -20 -83 0 -90 1 -90 20 0 18 -7 20 -75
20 -60 0 -75 3 -75 15 0 12 -14 15 -70 15 -63 0 -70 2 -70 20 0 18 -7 20 -75
20 -68 0 -75 2 -75 20 0 18 -7 20 -70 20 -56 0 -70 3 -70 15 0 12 -13 15 -55
15 -48 0 -55 2 -55 20 0 18 -7 20 -55 20 -42 0 -55 3 -55 15 0 11 -11 15 -40
15 -33 0 -40 3 -40 20 0 16 -7 20 -35 20 -28 0 -35 4 -35 20 0 11 -7 20 -15
20 -8 0 -15 7 -15 15 0 11 -11 15 -40 15 -33 0 -40 3 -40 20 0 11 -7 20 -15
20 -8 0 -15 9 -15 20 0 13 -7 20 -20 20 -11 0 -20 7 -20 15 0 8 -9 15 -20 15
-17 0 -20 7 -20 40 0 29 -4 40 -15 40 -8 0 -15 7 -15 15 0 8 -9 15 -20 15 -16
0 -20 7 -20 35 0 28 -4 35 -20 35 -17 0 -20 7 -20 40 0 29 -4 40 -15 40 -12 0
-15 14 -15 70 0 63 -2 70 -20 70 -20 0 -20 7 -20 545 0 538 0 545 20 545 13 0
20 7 20 20 0 11 7 20 15 20 8 0 15 9 15 20 0 13 7 20 20 20 11 0 20 7 20 15 0
8 9 15 20 15 13 0 20 7 20 20 0 11 7 20 15 20 8 0 15 9 15 20 0 13 7 20 20 20
16 0 20 7 20 35 0 28 4 35 20 35 11 0 20 7 20 15 0 8 7 15 15 15 11 0 15 11
15 40 0 33 3 40 20 40 11 0 20 7 20 15 0 8 9 15 20 15 17 0 20 7 20 40 0 29 4
40 15 40 8 0 15 7 15 15 0 8 9 15 20 15 17 0 20 7 20 40 0 29 4 40 15 40 10 0
15 11 15 35 0 28 4 35 20 35 16 0 20 7 20 35 0 28 4 35 20 35 18 0 20 7 20 55
0 42 3 55 15 55 10 0 15 11 15 35 0 28 4 35 20 35 18 0 20 7 20 55 0 48 2 55
20 55 18 0 20 7 20 75 0 60 3 75 15 75 12 0 15 14 15 70 0 63 2 70 20 70 13 0
20 7 20 20 0 16 7 20 35 20 28 0 35 4 35 20 0 16 7 20 35 20 24 0 35 5 35 15
0 11 11 15 40 15 33 0 40 3 40 20 0 11 7 20 15 20 8 0 15 7 15 15 0 8 9 15 20
15 13 0 20 7 20 20 0 13 7 20 20 20 16 0 20 7 20 35 0 24 5 35 15 35 12 0 15
15 15 75 0 68 2 75 20 75 19 0 20 7 20 90 0 83 1 90 20 90 19 0 20 7 20 90 0
73 3 90 15 90 12 0 15 17 15 90 0 83 1 90 20 90 18 0 20 7 20 75 0 68 2 75 20
75 18 0 20 7 20 55 0 42 3 55 15 55 8 0 15 -9 15 -20z m-6620 -70 c0 -11 7
-20 15 -20 12 0 15 -15 15 -75 0 -68 2 -75 20 -75 19 0 20 -7 20 -90 0 -83 1
-90 20 -90 19 0 20 -7 20 -90 0 -73 3 -90 15 -90 12 0 15 -19 15 -110 0 -103
1 -110 20 -110 18 0 20 -7 20 -55 0 -48 2 -55 20 -55 16 0 20 -7 20 -35 0 -24
5 -35 15 -35 8 0 15 -9 15 -20 0 -13 7 -20 20 -20 11 0 20 -7 20 -15 0 -8 7
-15 15 -15 8 0 15 -9 15 -20 0 -17 7 -20 40 -20 29 0 40 -4 40 -15 0 -10 11
-15 35 -15 28 0 35 -4 35 -20 0 -16 7 -20 35 -20 28 0 35 -4 35 -20 0 -13 7
-20 20 -20 19 0 20 -7 20 -90 0 -83 1 -90 20 -90 18 0 20 -7 20 -55 0 -42 3
-55 15 -55 12 0 15 -13 15 -55 0 -48 2 -55 20 -55 18 0 20 -7 20 -55 0 -42 3
-55 15 -55 10 0 15 -11 15 -35 0 -28 4 -35 20 -35 16 0 20 -7 20 -35 0 -28 4
-35 20 -35 16 0 20 -7 20 -35 0 -24 5 -35 15 -35 11 0 15 -11 15 -40 0 -33 3
-40 20 -40 11 0 20 -7 20 -15 0 -8 9 -15 20 -15 17 0 20 -7 20 -40 0 -29 4
-40 15 -40 10 0 15 -11 15 -35 0 -28 4 -35 20 -35 13 0 20 -7 20 -20 0 -13 7
-20 20 -20 11 0 20 -7 20 -15 0 -8 7 -15 15 -15 10 0 15 -11 15 -35 0 -28 4
-35 20 -35 13 0 20 -7 20 -20 0 -13 7 -20 20 -20 13 0 20 -7 20 -20 0 -11 7
-20 15 -20 8 0 15 -7 15 -15 0 -8 9 -15 20 -15 13 0 20 -7 20 -20 0 -11 7 -20
15 -20 10 0 15 -11 15 -35 0 -28 4 -35 20 -35 20 0 20 -7 20 -530 0 -523 0
-530 -20 -530 -18 0 -20 -7 -20 -70 0 -56 -3 -70 -15 -70 -11 0 -15 -11 -15
-40 0 -33 -3 -40 -20 -40 -16 0 -20 -7 -20 -35 0 -24 -5 -35 -15 -35 -8 0 -15
-7 -15 -15 0 -8 -9 -15 -20 -15 -17 0 -20 -7 -20 -40 0 -33 -3 -40 -20 -40
-11 0 -20 -7 -20 -15 0 -8 -7 -15 -15 -15 -8 0 -15 -9 -15 -20 0 -13 -7 -20
-20 -20 -13 0 -20 -7 -20 -20 0 -16 -7 -20 -35 -20 -24 0 -35 -5 -35 -15 0 -8
-9 -15 -20 -15 -13 0 -20 -7 -20 -20 0 -16 -7 -20 -35 -20 -28 0 -35 -4 -35
-20 0 -17 -7 -20 -40 -20 -29 0 -40 -4 -40 -15 0 -11 -12 -15 -50 -15 -43 0
-50 -3 -50 -20 0 -18 -7 -20 -55 -20 -42 0 -55 -3 -55 -15 0 -12 -15 -15 -75
-15 -68 0 -75 -2 -75 -20 0 -16 -7 -20 -35 -20 -28 0 -35 -4 -35 -20 0 -18 -7
-20 -55 -20 -42 0 -55 -3 -55 -15 0 -12 -13 -15 -55 -15 -48 0 -55 -2 -55 -20
0 -18 -7 -20 -55 -20 -48 0 -55 -2 -55 -20 0 -18 -7 -20 -55 -20 -42 0 -55 -3
-55 -15 0 -12 -13 -15 -55 -15 -48 0 -55 -2 -55 -20 0 -18 -7 -20 -70 -20 -63
0 -70 2 -70 20 0 13 -7 20 -20 20 -11 0 -20 7 -20 15 0 8 -9 15 -20 15 -17 0
-20 7 -20 40 0 29 -4 40 -15 40 -13 0 -15 23 -15 145 0 122 2 145 15 145 8 0
15 7 15 15 0 8 9 15 20 15 17 0 20 7 20 40 0 33 3 40 20 40 11 0 20 7 20 15 0
10 11 15 35 15 28 0 35 4 35 20 0 13 7 20 20 20 13 0 20 7 20 20 0 11 7 20 15
20 8 0 15 7 15 15 0 8 9 15 20 15 13 0 20 7 20 20 0 11 7 20 15 20 8 0 15 7
15 15 0 8 9 15 20 15 13 0 20 7 20 20 0 13 7 20 20 20 13 0 20 7 20 20 0 11 7
20 15 20 10 0 15 11 15 35 0 28 4 35 20 35 13 0 20 7 20 20 0 13 7 20 20 20
16 0 20 7 20 35 0 24 5 35 15 35 8 0 15 9 15 20 0 13 7 20 20 20 17 0 20 7 20
50 0 43 3 50 20 50 17 0 20 7 20 40 0 29 4 40 15 40 12 0 15 13 15 55 0 48 2
55 20 55 18 0 20 7 20 70 0 63 2 70 20 70 19 0 20 7 20 165 0 140 2 165 15
165 10 0 15 11 15 35 0 24 -5 35 -15 35 -13 0 -15 21 -15 130 0 123 -1 130
-20 130 -19 0 -20 7 -20 90 0 83 -1 90 -20 90 -18 0 -20 7 -20 55 0 42 -3 55
-15 55 -12 0 -15 14 -15 70 0 63 -2 70 -20 70 -19 0 -20 7 -20 90 0 83 -1 90
-20 90 -19 0 -20 7 -20 95 0 78 -3 95 -15 95 -12 0 -15 17 -15 90 0 83 -1 90
-20 90 -19 0 -20 7 -20 145 0 138 -1 145 -20 145 -20 0 -20 7 -20 510 0 503 0
510 20 510 18 0 20 7 20 55 0 48 2 55 20 55 13 0 20 -7 20 -20z m1560 -2690
c0 -16 7 -20 35 -20 28 0 35 -4 35 -20 0 -17 7 -20 40 -20 29 0 40 -4 40 -15
0 -10 11 -15 35 -15 28 0 35 -4 35 -20 0 -16 7 -20 35 -20 28 0 35 -4 35 -20
0 -17 7 -20 40 -20 29 0 40 -4 40 -15 0 -8 7 -15 15 -15 8 0 15 -9 15 -20 0
-17 7 -20 40 -20 33 0 40 -3 40 -20 0 -16 7 -20 35 -20 24 0 35 -5 35 -15 0
-10 11 -15 35 -15 28 0 35 -4 35 -20 0 -16 7 -20 35 -20 24 0 35 -5 35 -15 0
-11 11 -15 40 -15 33 0 40 -3 40 -20 0 -11 7 -20 15 -20 8 0 15 -9 15 -20 0
-17 7 -20 40 -20 29 0 40 -4 40 -15 0 -10 11 -15 35 -15 28 0 35 -4 35 -20 0
-16 7 -20 35 -20 28 0 35 -4 35 -20 0 -16 7 -20 35 -20 24 0 35 -5 35 -15 0
-12 13 -15 55 -15 48 0 55 -2 55 -20 0 -18 7 -20 55 -20 48 0 55 -2 55 -20 0
-19 7 -20 90 -20 73 0 90 -3 90 -15 0 -13 41 -15 310 -15 269 0 310 2 310 15
0 12 17 15 95 15 88 0 95 1 95 20 0 17 7 20 50 20 43 0 50 3 50 20 0 18 7 20
55 20 42 0 55 3 55 15 0 11 11 15 40 15 33 0 40 3 40 20 0 16 7 20 35 20 28 0
35 4 35 20 0 13 7 20 20 20 11 0 20 7 20 15 0 10 11 15 35 15 28 0 35 4 35 20
0 16 7 20 35 20 28 0 35 4 35 20 0 13 7 20 20 20 11 0 20 7 20 15 0 10 11 15
35 15 28 0 35 4 35 20 0 13 7 20 20 20 11 0 20 7 20 15 0 10 11 15 35 15 28 0
35 4 35 20 0 16 7 20 35 20 28 0 35 4 35 20 0 13 7 20 20 20 11 0 20 7 20 15
0 10 11 15 35 15 28 0 35 4 35 20 0 13 7 20 20 20 13 0 20 7 20 20 0 16 7 20
35 20 24 0 35 5 35 15 0 10 11 15 35 15 28 0 35 4 35 20 0 17 7 20 40 20 l40
0 0 -435 c0 -428 0 -435 -20 -435 -13 0 -20 -7 -20 -20 0 -16 -7 -20 -35 -20
-28 0 -35 -4 -35 -20 0 -13 -7 -20 -20 -20 -11 0 -20 -7 -20 -15 0 -10 -11
-15 -35 -15 -28 0 -35 -4 -35 -20 0 -13 -7 -20 -20 -20 -13 0 -20 -7 -20 -20
0 -16 -7 -20 -35 -20 -24 0 -35 -5 -35 -15 0 -8 -9 -15 -20 -15 -13 0 -20 -7
-20 -20 0 -16 -7 -20 -35 -20 -24 0 -35 -5 -35 -15 0 -10 -11 -15 -35 -15 -28
0 -35 -4 -35 -20 0 -13 -7 -20 -20 -20 -13 0 -20 -7 -20 -20 0 -16 -7 -20 -35
-20 -24 0 -35 -5 -35 -15 0 -8 -9 -15 -20 -15 -13 0 -20 -7 -20 -20 0 -16 -7
-20 -35 -20 -28 0 -35 -4 -35 -20 0 -13 -7 -20 -20 -20 -11 0 -20 -7 -20 -15
0 -10 -11 -15 -35 -15 -28 0 -35 -4 -35 -20 0 -13 -7 -20 -20 -20 -13 0 -20
-7 -20 -20 0 -16 -7 -20 -35 -20 -24 0 -35 -5 -35 -15 0 -8 -9 -15 -20 -15
-13 0 -20 -7 -20 -20 0 -16 -7 -20 -35 -20 -24 0 -35 -5 -35 -15 0 -10 -11
-15 -35 -15 -28 0 -35 -4 -35 -20 0 -13 -7 -20 -20 -20 -13 0 -20 -7 -20 -20
0 -16 -7 -20 -35 -20 -24 0 -35 -5 -35 -15 0 -8 -9 -15 -20 -15 -13 0 -20 -7
-20 -20 0 -16 -7 -20 -35 -20 -28 0 -35 -4 -35 -20 0 -13 -7 -20 -20 -20 -11
0 -20 -7 -20 -15 0 -10 -11 -15 -35 -15 -28 0 -35 -4 -35 -20 0 -13 -7 -20
-20 -20 -13 0 -20 -7 -20 -20 0 -16 -7 -20 -35 -20 -24 0 -35 -5 -35 -15 0 -8
-9 -15 -20 -15 -13 0 -20 -7 -20 -20 0 -16 -7 -20 -35 -20 -24 0 -35 -5 -35
-15 0 -12 -13 -15 -55 -15 -42 0 -55 3 -55 15 0 10 -11 15 -35 15 -28 0 -35 4
-35 20 0 13 -7 20 -20 20 -11 0 -20 7 -20 15 0 10 -11 15 -35 15 -28 0 -35 4
-35 20 0 13 -7 20 -20 20 -13 0 -20 7 -20 20 0 16 -7 20 -35 20 -24 0 -35 5
-35 15 0 8 -7 15 -15 15 -8 0 -15 9 -15 20 0 17 -7 20 -40 20 -33 0 -40 3 -40
20 0 11 -7 20 -15 20 -8 0 -15 7 -15 15 0 11 -11 15 -40 15 -33 0 -40 3 -40
20 0 16 -7 20 -35 20 -28 0 -35 4 -35 20 0 13 -7 20 -20 20 -11 0 -20 7 -20
15 0 10 -11 15 -35 15 -28 0 -35 4 -35 20 0 13 -7 20 -20 20 -11 0 -20 7 -20
15 0 10 -11 15 -35 15 -28 0 -35 4 -35 20 0 11 -7 20 -15 20 -8 0 -15 9 -15
20 0 17 -7 20 -40 20 -29 0 -40 4 -40 15 0 8 -7 15 -15 15 -8 0 -15 9 -15 20
0 17 -7 20 -40 20 -33 0 -40 3 -40 20 0 11 -7 20 -15 20 -8 0 -15 7 -15 15 0
11 -11 15 -40 15 -33 0 -40 3 -40 20 0 16 -7 20 -35 20 -28 0 -35 4 -35 20 0
11 -7 20 -15 20 -8 0 -15 7 -15 15 0 11 -11 15 -40 15 -33 0 -40 3 -40 20 0
11 -7 20 -15 20 -8 0 -15 7 -15 15 0 11 -11 15 -40 15 -33 0 -40 3 -40 20 0
11 -7 20 -15 20 -8 0 -15 9 -15 20 0 17 -7 20 -40 20 -29 0 -40 4 -40 15 0 8
-7 15 -15 15 -8 0 -15 9 -15 20 0 17 -7 20 -40 20 -33 0 -40 3 -40 20 0 11 -7
20 -15 20 -8 0 -15 7 -15 15 0 10 -11 15 -35 15 l-35 0 0 440 c0 384 2 440 15
440 8 0 15 -9 15 -20z m-30 -1130 c0 -16 7 -20 35 -20 24 0 35 -5 35 -15 0 -8
7 -15 15 -15 8 0 15 -9 15 -20 0 -17 7 -20 40 -20 33 0 40 -3 40 -20 0 -11 7
-20 15 -20 8 0 15 -7 15 -15 0 -11 11 -15 40 -15 33 0 40 -3 40 -20 0 -11 7
-20 15 -20 8 0 15 -9 15 -20 0 -17 7 -20 40 -20 29 0 40 -4 40 -15 0 -8 7 -15
15 -15 8 0 15 -9 15 -20 0 -17 7 -20 40 -20 33 0 40 -3 40 -20 0 -11 7 -20 15
-20 8 0 15 -7 15 -15 0 -10 11 -15 35 -15 28 0 35 -4 35 -20 0 -17 7 -20 40
-20 29 0 40 -4 40 -15 0 -8 7 -15 15 -15 8 0 15 -9 15 -20 0 -17 7 -20 40 -20
33 0 40 -3 40 -20 0 -11 7 -20 15 -20 8 0 15 -7 15 -15 0 -11 11 -15 40 -15
33 0 40 -3 40 -20 0 -11 7 -20 15 -20 8 0 15 -9 15 -20 0 -16 7 -20 35 -20 24
0 35 -5 35 -15 0 -8 9 -15 20 -15 13 0 20 -7 20 -20 0 -16 7 -20 35 -20 28 0
35 -4 35 -20 0 -13 7 -20 20 -20 11 0 20 -7 20 -15 0 -10 11 -15 35 -15 28 0
35 -4 35 -20 0 -13 7 -20 20 -20 11 0 20 -7 20 -15 0 -10 11 -15 35 -15 28 0
35 -4 35 -20 0 -17 7 -20 40 -20 33 0 40 -3 40 -20 0 -11 7 -20 15 -20 8 0 15
-7 15 -15 0 -10 11 -15 35 -15 28 0 35 -4 35 -20 0 -13 7 -20 20 -20 16 0 20
-7 20 -35 0 -28 -4 -35 -20 -35 -13 0 -20 -7 -20 -20 0 -11 -7 -20 -15 -20 -8
0 -15 -9 -15 -20 0 -13 -7 -20 -20 -20 -11 0 -20 -7 -20 -15 0 -8 -7 -15 -15
-15 -8 0 -15 -9 -15 -20 0 -17 -7 -20 -40 -20 -29 0 -40 -4 -40 -15 0 -8 -7
-15 -15 -15 -8 0 -15 -9 -15 -20 0 -13 -7 -20 -20 -20 -13 0 -20 -7 -20 -20 0
-13 -7 -20 -20 -20 -11 0 -20 -7 -20 -15 0 -8 -7 -15 -15 -15 -8 0 -15 -9 -15
-20 0 -17 -7 -20 -40 -20 -33 0 -40 -3 -40 -20 0 -11 -7 -20 -15 -20 -8 0 -15
-7 -15 -15 0 -8 -9 -15 -20 -15 -13 0 -20 -7 -20 -20 0 -13 -7 -20 -20 -20
-13 0 -20 -7 -20 -20 0 -11 -7 -20 -15 -20 -8 0 -15 -7 -15 -15 0 -8 -9 -15
-20 -15 -13 0 -20 -7 -20 -20 0 -16 -7 -20 -35 -20 -24 0 -35 -5 -35 -15 0 -8
-9 -15 -20 -15 -13 0 -20 -7 -20 -20 0 -11 -7 -20 -15 -20 -8 0 -15 -9 -15
-20 0 -13 -7 -20 -20 -20 -11 0 -20 -7 -20 -15 0 -8 -9 -15 -20 -15 -13 0 -20
-7 -20 -20 0 -11 -7 -20 -15 -20 -8 0 -15 -9 -15 -20 0 -17 -7 -20 -40 -20
-29 0 -40 -4 -40 -15 0 -8 -7 -15 -15 -15 -8 0 -15 -9 -15 -20 0 -13 -7 -20
-20 -20 -13 0 -20 -7 -20 -20 0 -11 -7 -20 -15 -20 -8 0 -15 -7 -15 -15 0 -8
-9 -15 -20 -15 -13 0 -20 -7 -20 -20 0 -16 -7 -20 -35 -20 -24 0 -35 -5 -35
-15 0 -11 -11 -15 -40 -15 -39 0 -40 1 -40 35 0 24 -5 35 -15 35 -8 0 -15 7
-15 15 0 8 -9 15 -20 15 -17 0 -20 7 -20 40 0 33 -3 40 -20 40 -11 0 -20 7
-20 15 0 8 -7 15 -15 15 -8 0 -15 9 -15 20 0 13 -7 20 -20 20 -16 0 -20 7 -20
35 0 28 -4 35 -20 35 -13 0 -20 7 -20 20 0 11 -7 20 -15 20 -10 0 -15 11 -15
35 0 28 -4 35 -20 35 -13 0 -20 7 -20 20 0 11 -7 20 -15 20 -10 0 -15 11 -15
35 0 28 -4 35 -20 35 -13 0 -20 7 -20 20 0 13 -7 20 -20 20 -16 0 -20 7 -20
35 0 24 -5 35 -15 35 -8 0 -15 9 -15 20 0 13 -7 20 -20 20 -16 0 -20 7 -20 35
0 28 -4 35 -20 35 -13 0 -20 7 -20 20 0 11 -7 20 -15 20 -8 0 -15 7 -15 15 0
8 -9 15 -20 15 -16 0 -20 7 -20 35 0 28 -4 35 -20 35 -13 0 -20 7 -20 20 0 11
-7 20 -15 20 -10 0 -15 11 -15 35 0 28 -4 35 -20 35 -13 0 -20 7 -20 20 0 11
-7 20 -15 20 -10 0 -15 11 -15 35 0 28 -4 35 -20 35 -13 0 -20 7 -20 20 0 13
-7 20 -20 20 -16 0 -20 7 -20 35 0 24 -5 35 -15 35 -8 0 -15 9 -15 20 0 13 -7
20 -20 20 -16 0 -20 7 -20 35 0 28 -4 35 -20 35 -13 0 -20 7 -20 20 0 11 -7
20 -15 20 -8 0 -15 7 -15 15 0 8 -9 15 -20 15 -17 0 -20 7 -20 40 0 33 3 40
20 40 11 0 20 7 20 15 0 10 11 15 35 15 28 0 35 4 35 20 0 16 7 20 35 20 28 0
35 4 35 20 0 13 7 20 20 20 11 0 20 7 20 15 0 8 9 15 20 15 13 0 20 7 20 20 0
11 7 20 15 20 8 0 15 7 15 15 0 8 9 15 20 15 13 0 20 7 20 20 0 11 7 20 15 20
8 0 15 9 15 20 0 13 7 20 20 20 11 0 20 7 20 15 0 8 9 15 20 15 17 0 20 7 20
40 0 29 4 40 15 40 8 0 15 7 15 15 0 8 9 15 20 15 17 0 20 7 20 40 0 33 3 40
20 40 16 0 20 7 20 35 l0 35 55 0 c48 0 55 -2 55 -20z m3640 -35 c0 -8 7 -15
15 -15 11 0 15 -11 15 -40 0 -33 3 -40 20 -40 16 0 20 -7 20 -35 0 -24 5 -35
15 -35 8 0 15 -9 15 -20 0 -13 7 -20 20 -20 11 0 20 -7 20 -15 0 -8 9 -15 20
-15 13 0 20 -7 20 -20 0 -11 7 -20 15 -20 8 0 15 -9 15 -20 0 -13 7 -20 20
-20 11 0 20 -7 20 -15 0 -8 9 -15 20 -15 13 0 20 -7 20 -20 0 -11 7 -20 15
-20 8 0 15 -7 15 -15 0 -8 9 -15 20 -15 13 0 20 -7 20 -20 0 -16 7 -20 35 -20
28 0 35 -4 35 -20 0 -17 7 -20 40 -20 29 0 40 -4 40 -15 0 -8 7 -15 15 -15 11
0 15 -11 15 -40 0 -29 -4 -40 -15 -40 -8 0 -15 -7 -15 -15 0 -8 -9 -15 -20
-15 -17 0 -20 -7 -20 -40 0 -33 -3 -40 -20 -40 -11 0 -20 -7 -20 -15 0 -8 -7
-15 -15 -15 -10 0 -15 -11 -15 -35 0 -28 -4 -35 -20 -35 -13 0 -20 -7 -20 -20
0 -13 -7 -20 -20 -20 -16 0 -20 -7 -20 -35 0 -24 -5 -35 -15 -35 -8 0 -15 -9
-15 -20 0 -13 -7 -20 -20 -20 -16 0 -20 -7 -20 -35 0 -28 -4 -35 -20 -35 -17
0 -20 -7 -20 -40 0 -29 -4 -40 -15 -40 -8 0 -15 -7 -15 -15 0 -8 -9 -15 -20
-15 -16 0 -20 -7 -20 -35 0 -28 -4 -35 -20 -35 -13 0 -20 -7 -20 -20 0 -11 -7
-20 -15 -20 -10 0 -15 -11 -15 -35 0 -28 -4 -35 -20 -35 -13 0 -20 -7 -20 -20
0 -11 -7 -20 -15 -20 -10 0 -15 -11 -15 -35 0 -28 -4 -35 -20 -35 -13 0 -20
-7 -20 -20 0 -13 -7 -20 -20 -20 -16 0 -20 -7 -20 -35 0 -24 -5 -35 -15 -35
-8 0 -15 -9 -15 -20 0 -13 -7 -20 -20 -20 -16 0 -20 -7 -20 -35 0 -28 -4 -35
-20 -35 -16 0 -20 -7 -20 -35 0 -24 -5 -35 -15 -35 -8 0 -15 -9 -15 -20 0 -13
-7 -20 -20 -20 -16 0 -20 -7 -20 -35 0 -28 -4 -35 -20 -35 -13 0 -20 -7 -20
-20 0 -11 -7 -20 -15 -20 -10 0 -15 -11 -15 -35 0 -28 -4 -35 -20 -35 -13 0
-20 -7 -20 -20 0 -11 -7 -20 -15 -20 -8 0 -15 -7 -15 -15 0 -11 -11 -15 -40
-15 -29 0 -40 4 -40 15 0 8 -7 15 -15 15 -8 0 -15 9 -15 20 0 13 -7 20 -20 20
-11 0 -20 7 -20 15 0 8 -9 15 -20 15 -13 0 -20 7 -20 20 0 11 -7 20 -15 20 -8
0 -15 9 -15 20 0 13 -7 20 -20 20 -11 0 -20 7 -20 15 0 10 -11 15 -35 15 -28
0 -35 4 -35 20 0 13 -7 20 -20 20 -13 0 -20 7 -20 20 0 13 -7 20 -20 20 -11 0
-20 7 -20 15 0 8 -7 15 -15 15 -8 0 -15 9 -15 20 0 13 -7 20 -20 20 -13 0 -20
7 -20 20 0 16 -7 20 -35 20 -24 0 -35 5 -35 15 0 8 -9 15 -20 15 -13 0 -20 7
-20 20 0 11 -7 20 -15 20 -8 0 -15 7 -15 15 0 8 -9 15 -20 15 -13 0 -20 7 -20
20 0 13 -7 20 -20 20 -13 0 -20 7 -20 20 0 11 -7 20 -15 20 -8 0 -15 7 -15 15
0 11 -11 15 -40 15 -33 0 -40 3 -40 20 0 11 -7 20 -15 20 -8 0 -15 9 -15 20 0
13 -7 20 -20 20 -11 0 -20 7 -20 15 0 8 -7 15 -15 15 -8 0 -15 9 -15 20 0 13
-7 20 -20 20 -13 0 -20 7 -20 20 0 16 -7 20 -35 20 -24 0 -35 5 -35 15 0 8 -9
15 -20 15 -13 0 -20 7 -20 20 0 13 -7 20 -20 20 -11 0 -20 7 -20 15 0 8 -7 15
-15 15 -8 0 -15 9 -15 20 0 13 -7 20 -20 20 -13 0 -20 7 -20 20 0 13 -7 20
-20 20 -16 0 -20 7 -20 35 0 28 4 35 20 35 13 0 20 7 20 20 0 16 7 20 35 20
24 0 35 5 35 15 0 8 9 15 20 15 13 0 20 7 20 20 0 16 7 20 35 20 28 0 35 4 35
20 0 13 7 20 20 20 11 0 20 7 20 15 0 10 11 15 35 15 28 0 35 4 35 20 0 13 7
20 20 20 11 0 20 7 20 15 0 10 11 15 35 15 28 0 35 4 35 20 0 16 7 20 35 20
28 0 35 4 35 20 0 13 7 20 20 20 11 0 20 7 20 15 0 10 11 15 35 15 28 0 35 4
35 20 0 13 7 20 20 20 13 0 20 7 20 20 0 16 7 20 35 20 24 0 35 5 35 15 0 8 9
15 20 15 13 0 20 7 20 20 0 16 7 20 35 20 28 0 35 4 35 20 0 13 7 20 20 20 11
0 20 7 20 15 0 10 11 15 35 15 28 0 35 4 35 20 0 13 7 20 20 20 11 0 20 7 20
15 0 10 11 15 35 15 28 0 35 4 35 20 0 16 7 20 35 20 28 0 35 4 35 20 0 13 7
20 20 20 11 0 20 7 20 15 0 10 11 15 35 15 28 0 35 4 35 20 0 13 7 20 20 20
13 0 20 7 20 20 0 16 7 20 35 20 24 0 35 5 35 15 0 8 9 15 20 15 13 0 20 7 20
20 0 16 7 20 35 20 28 0 35 4 35 20 0 13 7 20 20 20 11 0 20 7 20 15 0 12 13
15 55 15 42 0 55 -3 55 -15z m1340 -765 c0 -18 7 -20 75 -20 60 0 75 -3 75
-15 0 -12 17 -15 90 -15 83 0 90 -1 90 -20 0 -18 7 -20 75 -20 68 0 75 -2 75
-20 0 -18 7 -20 70 -20 56 0 70 -3 70 -15 0 -12 17 -15 90 -15 83 0 90 -1 90
-20 0 -18 7 -20 75 -20 68 0 75 -2 75 -20 0 -18 7 -20 70 -20 56 0 70 -3 70
-15 0 -12 17 -15 95 -15 88 0 95 -1 95 -20 0 -18 7 -20 70 -20 63 0 70 -2 70
-20 0 -19 7 -20 90 -20 73 0 90 -3 90 -15 0 -12 15 -15 75 -15 68 0 75 -2 75
-20 0 -18 7 -20 75 -20 60 0 75 -3 75 -15 0 -12 14 -15 70 -15 63 0 70 -2 70
-20 0 -18 7 -20 55 -20 48 0 55 -2 55 -20 0 -18 7 -20 55 -20 42 0 55 -3 55
-15 0 -10 11 -15 35 -15 28 0 35 -4 35 -20 0 -16 7 -20 35 -20 28 0 35 -4 35
-20 0 -11 -7 -20 -15 -20 -12 0 -15 -13 -15 -55 0 -48 -2 -55 -20 -55 -16 0
-20 -7 -20 -35 0 -24 -5 -35 -15 -35 -12 0 -15 -13 -15 -55 0 -48 -2 -55 -20
-55 -16 0 -20 -7 -20 -35 0 -28 -4 -35 -20 -35 -13 0 -20 7 -20 20 0 19 -7 20
-90 20 -73 0 -90 3 -90 15 0 12 -17 15 -90 15 -83 0 -90 1 -90 20 0 18 -7 20
-75 20 -68 0 -75 2 -75 20 0 19 -7 20 -90 20 -73 0 -90 3 -90 15 0 12 -17 15
-90 15 -83 0 -90 1 -90 20 0 18 -7 20 -75 20 -60 0 -75 3 -75 15 0 12 -17 15
-90 15 -83 0 -90 1 -90 20 0 19 -7 20 -90 20 -83 0 -90 1 -90 20 0 18 -7 20
-75 20 -60 0 -75 3 -75 15 0 12 -17 15 -90 15 -83 0 -90 1 -90 20 0 19 -7 20
-90 20 -83 0 -90 1 -90 20 0 18 -7 20 -75 20 l-75 0 0 35 c0 24 -5 35 -15 35
-10 0 -15 11 -15 35 0 28 -4 35 -20 35 -16 0 -20 7 -20 35 0 24 -5 35 -15 35
-11 0 -15 11 -15 40 0 33 -3 40 -20 40 -11 0 -20 7 -20 15 0 8 -9 15 -20 15
-17 0 -20 7 -20 40 0 29 -4 40 -15 40 -10 0 -15 11 -15 35 0 28 -4 35 -20 35
-18 0 -20 7 -20 55 l0 55 35 0 c28 0 35 -4 35 -20z m-6290 -35 c0 -8 -9 -15
-20 -15 -18 0 -20 -7 -20 -55 0 -48 -2 -55 -20 -55 -18 0 -20 -7 -20 -75 0
-60 -3 -75 -15 -75 -12 0 -15 -13 -15 -55 0 -48 -2 -55 -20 -55 -18 0 -20 -7
-20 -55 0 -48 -2 -55 -20 -55 -18 0 -20 -7 -20 -55 l0 -55 -70 0 c-56 0 -70
-3 -70 -15 0 -12 -15 -15 -75 -15 -68 0 -75 -2 -75 -20 0 -18 -7 -20 -70 -20
-63 0 -70 -2 -70 -20 0 -18 -7 -20 -75 -20 -60 0 -75 -3 -75 -15 0 -12 -14
-15 -70 -15 -63 0 -70 -2 -70 -20 0 -18 -7 -20 -75 -20 -60 0 -75 -3 -75 -15
0 -12 -17 -15 -90 -15 -83 0 -90 -1 -90 -20 0 -18 -7 -20 -75 -20 -68 0 -75
-2 -75 -20 0 -18 -7 -20 -70 -20 -56 0 -70 -3 -70 -15 0 -12 -15 -15 -75 -15
-68 0 -75 -2 -75 -20 0 -18 -7 -20 -70 -20 -63 0 -70 -2 -70 -20 0 -18 -7 -20
-55 -20 -48 0 -55 2 -55 20 0 13 -7 20 -20 20 -16 0 -20 7 -20 35 0 28 -4 35
-20 35 -18 0 -20 7 -20 55 0 42 -3 55 -15 55 -12 0 -15 13 -15 55 0 48 -2 55
-20 55 -13 0 -20 7 -20 20 0 16 7 20 35 20 24 0 35 5 35 15 0 11 11 15 40 15
33 0 40 3 40 20 0 18 7 20 55 20 48 0 55 2 55 20 0 17 7 20 50 20 38 0 50 4
50 15 0 12 13 15 55 15 48 0 55 2 55 20 0 18 7 20 75 20 68 0 75 2 75 20 0 18
7 20 70 20 56 0 70 3 70 15 0 12 13 15 55 15 48 0 55 2 55 20 0 18 7 20 55 20
42 0 55 3 55 15 0 12 13 15 55 15 48 0 55 2 55 20 0 18 7 20 55 20 48 0 55 2
55 20 0 18 7 20 55 20 42 0 55 3 55 15 0 12 13 15 55 15 48 0 55 2 55 20 0 18
7 20 55 20 48 0 55 2 55 20 0 18 7 20 55 20 42 0 55 3 55 15 0 12 13 15 55 15
48 0 55 2 55 20 0 18 7 20 55 20 48 0 55 2 55 20 0 16 7 20 35 20 24 0 35 5
35 15 0 12 15 15 75 15 60 0 75 -3 75 -15z m3130 -365 c0 -11 7 -20 15 -20 8
0 15 -7 15 -15 0 -8 9 -15 20 -15 13 0 20 -7 20 -20 0 -16 7 -20 35 -20 28 0
35 -4 35 -20 0 -13 7 -20 20 -20 11 0 20 -7 20 -15 0 -8 7 -15 15 -15 8 0 15
-9 15 -20 0 -13 7 -20 20 -20 13 0 20 -7 20 -20 0 -13 7 -20 20 -20 11 0 20
-7 20 -15 0 -8 7 -15 15 -15 8 0 15 -9 15 -20 0 -17 7 -20 40 -20 33 0 40 -3
40 -20 0 -11 7 -20 15 -20 8 0 15 -7 15 -15 0 -8 9 -15 20 -15 13 0 20 -7 20
-20 0 -13 7 -20 20 -20 11 0 20 -7 20 -15 0 -8 7 -15 15 -15 8 0 15 -9 15 -20
0 -13 7 -20 20 -20 13 0 20 -7 20 -20 0 -16 7 -20 35 -20 24 0 35 -5 35 -15 0
-8 9 -15 20 -15 13 0 20 -7 20 -20 0 -11 7 -20 15 -20 10 0 15 -11 15 -35 0
-24 -5 -35 -15 -35 -8 0 -15 -9 -15 -20 0 -13 -7 -20 -20 -20 -13 0 -20 -7
-20 -20 0 -13 -7 -20 -20 -20 -11 0 -20 -7 -20 -15 0 -8 -7 -15 -15 -15 -8 0
-15 -9 -15 -20 0 -13 -7 -20 -20 -20 -11 0 -20 -7 -20 -15 0 -8 -7 -15 -15
-15 -8 0 -15 -9 -15 -20 0 -13 -7 -20 -20 -20 -13 0 -20 -7 -20 -20 0 -13 -7
-20 -20 -20 -11 0 -20 -7 -20 -15 0 -8 -7 -15 -15 -15 -8 0 -15 -9 -15 -20 0
-13 -7 -20 -20 -20 -13 0 -20 -7 -20 -20 0 -13 -7 -20 -20 -20 -11 0 -20 -7
-20 -15 0 -8 -7 -15 -15 -15 -8 0 -15 -9 -15 -20 0 -20 -7 -20 -330 -20 -323
0 -330 0 -330 20 0 11 -7 20 -15 20 -8 0 -15 7 -15 15 0 8 -9 15 -20 15 -13 0
-20 7 -20 20 0 13 -7 20 -20 20 -13 0 -20 7 -20 20 0 11 -7 20 -15 20 -8 0
-15 7 -15 15 0 8 -9 15 -20 15 -17 0 -20 7 -20 40 0 33 -3 40 -20 40 -11 0
-20 7 -20 15 0 8 -7 15 -15 15 -8 0 -15 9 -15 20 0 13 -7 20 -20 20 -11 0 -20
7 -20 15 0 8 -9 15 -20 15 -13 0 -20 7 -20 20 0 11 -7 20 -15 20 -8 0 -15 9
-15 20 0 13 -7 20 -20 20 -16 0 -20 7 -20 35 0 28 4 35 20 35 13 0 20 7 20 20
0 11 7 20 15 20 8 0 15 7 15 15 0 8 9 15 20 15 13 0 20 7 20 20 0 13 7 20 20
20 13 0 20 7 20 20 0 16 7 20 35 20 24 0 35 5 35 15 0 8 9 15 20 15 13 0 20 7
20 20 0 11 7 20 15 20 8 0 15 7 15 15 0 8 9 15 20 15 13 0 20 7 20 20 0 13 7
20 20 20 13 0 20 7 20 20 0 16 7 20 35 20 24 0 35 5 35 15 0 8 7 15 15 15 8 0
15 9 15 20 0 13 7 20 20 20 13 0 20 7 20 20 0 13 7 20 20 20 11 0 20 7 20 15
0 8 7 15 15 15 8 0 15 9 15 20 0 13 7 20 20 20 13 0 20 7 20 20 0 16 7 20 35
20 24 0 35 5 35 15 0 8 9 15 20 15 13 0 20 7 20 20 0 13 7 20 20 20 13 0 20
-7 20 -20z m-6160 -2110 c0 -17 7 -20 40 -20 29 0 40 -4 40 -15 0 -10 11 -15
35 -15 34 0 35 -1 35 -40 0 -33 3 -40 20 -40 11 0 20 -7 20 -15 0 -8 7 -15 15
-15 12 0 15 -13 15 -55 0 -48 2 -55 20 -55 20 0 20 -7 20 -365 0 -358 0 -365
-20 -365 -19 0 -20 -7 -20 -90 0 -73 -3 -90 -15 -90 -12 0 -15 -17 -15 -90 0
-83 -1 -90 -20 -90 -19 0 -20 -7 -20 -90 0 -83 -1 -90 -20 -90 -19 0 -20 -7
-20 -95 0 -78 -3 -95 -15 -95 -12 0 -15 -18 -15 -105 0 -98 -1 -105 -20 -105
-19 0 -20 -7 -20 -95 0 -88 -1 -95 -20 -95 -16 0 -20 -7 -20 -35 0 -33 -2 -35
-35 -35 -28 0 -35 -4 -35 -20 0 -18 -7 -20 -55 -20 -42 0 -55 -3 -55 -15 0
-12 -13 -15 -55 -15 -48 0 -55 -2 -55 -20 0 -18 -7 -20 -70 -20 -56 0 -70 -3
-70 -15 0 -12 -13 -15 -55 -15 -48 0 -55 -2 -55 -20 0 -18 -7 -20 -55 -20 -48
0 -55 -2 -55 -20 0 -18 -7 -20 -55 -20 l-55 0 0 40 c0 33 3 40 20 40 17 0 20
7 20 50 0 38 4 50 15 50 12 0 15 15 15 75 0 68 2 75 20 75 18 0 20 7 20 55 0
48 2 55 20 55 18 0 20 7 20 70 0 56 3 70 15 70 12 0 15 13 15 55 0 48 2 55 20
55 18 0 20 7 20 75 0 60 3 75 15 75 12 0 15 13 15 55 0 48 2 55 20 55 18 0 20
7 20 70 0 63 2 70 20 70 18 0 20 7 20 55 0 42 3 55 15 55 12 0 15 15 15 75 0
68 2 75 20 75 18 0 20 7 20 55 0 48 2 55 20 55 18 0 20 7 20 70 0 56 3 70 15
70 12 0 15 13 15 55 0 48 2 55 20 55 18 0 20 7 20 75 0 68 2 75 20 75 18 0 20
7 20 55 0 42 3 55 15 55 12 0 15 14 15 70 0 63 2 70 20 70 18 0 20 7 20 75 0
60 3 75 15 75 12 0 15 13 15 55 0 48 2 55 20 55 16 0 20 7 20 35 0 33 2 35 35
35 28 0 35 -4 35 -20z m12780 0 c0 -13 7 -20 20 -20 18 0 20 -7 20 -70 0 -56
3 -70 15 -70 12 0 15 -13 15 -55 0 -48 2 -55 20 -55 18 0 20 -7 20 -55 0 -48
2 -55 20 -55 18 0 20 -7 20 -75 0 -60 3 -75 15 -75 12 0 15 -13 15 -55 0 -48
2 -55 20 -55 18 0 20 -7 20 -70 0 -63 2 -70 20 -70 18 0 20 -7 20 -55 0 -42 3
-55 15 -55 12 0 15 -13 15 -55 0 -48 2 -55 20 -55 18 0 20 -7 20 -70 0 -56 3
-70 15 -70 12 0 15 -13 15 -55 0 -48 2 -55 20 -55 18 0 20 -7 20 -75 0 -68 2
-75 20 -75 18 0 20 -7 20 -55 0 -42 3 -55 15 -55 12 0 15 -13 15 -55 0 -48 2
-55 20 -55 18 0 20 -7 20 -70 0 -63 2 -70 20 -70 18 0 20 -7 20 -55 0 -42 3
-55 15 -55 12 0 15 -15 15 -75 0 -68 2 -75 20 -75 18 0 20 -7 20 -55 0 -48 2
-55 20 -55 18 0 20 -7 20 -55 0 -42 3 -55 15 -55 12 0 15 -14 15 -70 0 -63 2
-70 20 -70 16 0 20 -7 20 -35 0 -28 -4 -35 -20 -35 -11 0 -20 7 -20 15 0 12
-13 15 -55 15 -48 0 -55 2 -55 20 0 18 -7 20 -70 20 -63 0 -70 2 -70 20 0 18
-7 20 -55 20 -42 0 -55 3 -55 15 0 12 -13 15 -55 15 -48 0 -55 2 -55 20 0 18
-7 20 -55 20 -42 0 -55 3 -55 15 0 12 -13 15 -55 15 -48 0 -55 2 -55 20 0 16
-7 20 -35 20 -33 0 -35 2 -35 35 0 28 -4 35 -20 35 -19 0 -20 7 -20 95 0 88
-1 95 -20 95 -19 0 -20 7 -20 105 0 87 -3 105 -15 105 -12 0 -15 17 -15 95 0
88 -1 95 -20 95 -19 0 -20 7 -20 90 0 73 -3 90 -15 90 -12 0 -15 17 -15 90 0
83 -1 90 -20 90 -19 0 -20 7 -20 90 0 83 -1 90 -20 90 -20 0 -20 7 -20 365 0
358 0 365 20 365 18 0 20 7 20 55 0 48 2 55 20 55 11 0 20 7 20 15 0 8 7 15
15 15 11 0 15 11 15 40 0 39 1 40 35 40 24 0 35 5 35 15 0 11 11 15 40 15 33
0 40 3 40 20 0 16 7 20 35 20 28 0 35 -4 35 -20z"/>
<path d="M7590 15210 c0 -18 -7 -20 -55 -20 -42 0 -55 -3 -55 -15 0 -12 -13
-15 -55 -15 -48 0 -55 -2 -55 -20 0 -16 -7 -20 -35 -20 -28 0 -35 -4 -35 -20
0 -18 -7 -20 -55 -20 -42 0 -55 -3 -55 -15 0 -10 -11 -15 -35 -15 -28 0 -35
-4 -35 -20 0 -18 -7 -20 -55 -20 -42 0 -55 -3 -55 -15 0 -8 -9 -15 -20 -15
-13 0 -20 -7 -20 -20 0 -11 -7 -20 -15 -20 -12 0 -15 -13 -15 -55 0 -42 3 -55
15 -55 8 0 15 -9 15 -20 0 -13 7 -20 20 -20 11 0 20 -7 20 -15 0 -10 11 -15
35 -15 28 0 35 -4 35 -20 0 -16 7 -20 35 -20 28 0 35 -4 35 -20 0 -11 -7 -20
-15 -20 -11 0 -15 -12 -15 -50 0 -43 -3 -50 -20 -50 -19 0 -20 -7 -20 -95 0
-88 -1 -95 -20 -95 -18 0 -20 -7 -20 -70 0 -63 2 -70 20 -70 18 0 20 -7 20
-55 0 -48 2 -55 20 -55 16 0 20 -7 20 -35 0 -24 5 -35 15 -35 12 0 15 -15 15
-75 0 -60 -3 -75 -15 -75 -10 0 -15 -11 -15 -35 0 -28 -4 -35 -20 -35 -16 0
-20 -7 -20 -35 0 -28 -4 -35 -20 -35 -13 0 -20 -7 -20 -20 0 -13 7 -20 20 -20
16 0 20 -7 20 -35 0 -28 4 -35 20 -35 13 0 20 -7 20 -20 0 -16 7 -20 35 -20
28 0 35 -4 35 -20 0 -13 7 -20 20 -20 11 0 20 -7 20 -15 0 -10 11 -15 35 -15
28 0 35 -4 35 -20 0 -16 7 -20 35 -20 28 0 35 -4 35 -20 0 -17 7 -20 40 -20
29 0 40 -4 40 -15 0 -11 12 -15 50 -15 43 0 50 -3 50 -20 0 -19 7 -20 95 -20
78 0 95 -3 95 -15 0 -12 18 -15 105 -15 87 0 105 3 105 15 0 12 15 15 75 15
68 0 75 2 75 20 0 18 7 20 55 20 42 0 55 3 55 15 0 10 11 15 35 15 28 0 35 4
35 20 0 18 7 20 55 20 48 0 55 2 55 20 0 13 7 20 20 20 11 0 20 7 20 15 0 10
11 15 35 15 28 0 35 4 35 20 0 13 7 20 20 20 13 0 20 7 20 20 0 11 7 20 15 20
10 0 15 11 15 35 0 28 4 35 20 35 13 0 20 7 20 20 0 13 -7 20 -20 20 -16 0
-20 7 -20 35 0 24 -5 35 -15 35 -10 0 -15 11 -15 35 0 28 -4 35 -20 35 -13 0
-20 7 -20 20 0 13 -7 20 -20 20 -11 0 -20 7 -20 15 0 8 9 15 20 15 17 0 20 7
20 40 0 33 3 40 20 40 16 0 20 7 20 35 0 24 5 35 15 35 12 0 15 13 15 55 0 48
2 55 20 55 18 0 20 7 20 70 0 63 -2 70 -20 70 -19 0 -20 7 -20 95 0 78 -3 95
-15 95 -11 0 -15 12 -15 50 0 43 -3 50 -20 50 -13 0 -20 7 -20 20 0 16 7 20
35 20 28 0 35 4 35 20 0 17 7 20 40 20 29 0 40 4 40 15 0 8 7 15 15 15 8 0 15
9 15 20 0 13 7 20 20 20 18 0 20 7 20 55 0 48 -2 55 -20 55 -13 0 -20 7 -20
20 0 11 -7 20 -15 20 -8 0 -15 7 -15 15 0 12 -13 15 -55 15 -48 0 -55 2 -55
20 0 17 -7 20 -40 20 -29 0 -40 4 -40 15 0 11 -12 15 -50 15 -43 0 -50 3 -50
20 0 18 -7 20 -55 20 -48 0 -55 2 -55 20 0 17 -7 20 -40 20 -29 0 -40 4 -40
15 0 12 -13 15 -55 15 -48 0 -55 2 -55 20 0 18 -7 20 -70 20 -63 0 -70 -2 -70
-20 0 -13 -7 -20 -20 -20 -11 0 -20 -7 -20 -15 0 -12 -13 -15 -55 -15 -42 0
-55 3 -55 15 0 8 -7 15 -15 15 -8 0 -15 9 -15 20 0 18 -7 20 -75 20 -68 0 -75
-2 -75 -20z m40 -250 c0 -11 7 -20 15 -20 8 0 15 -9 15 -20 0 -19 7 -20 165
-20 158 0 165 1 165 20 0 13 7 20 20 20 13 0 20 7 20 20 0 11 7 20 15 20 8 0
15 -9 15 -20 0 -17 7 -20 40 -20 33 0 40 -3 40 -20 0 -18 7 -20 55 -20 l55 0
0 -35 c0 -28 -4 -35 -20 -35 -18 0 -20 -7 -20 -75 0 -68 2 -75 20 -75 11 0 20
-7 20 -15 0 -8 7 -15 15 -15 10 0 15 -11 15 -35 0 -28 4 -35 20 -35 18 0 20
-7 20 -75 0 -68 2 -75 20 -75 19 0 20 -7 20 -90 0 -83 -1 -90 -20 -90 -16 0
-20 -7 -20 -35 0 -28 -4 -35 -20 -35 -17 0 -20 -7 -20 -40 0 -29 -4 -40 -15
-40 -8 0 -15 -7 -15 -15 0 -8 -9 -15 -20 -15 -18 0 -20 -7 -20 -75 0 -68 2
-75 20 -75 16 0 20 -7 20 -35 0 -24 5 -35 15 -35 10 0 15 -11 15 -35 0 -24 -5
-35 -15 -35 -8 0 -15 -9 -15 -20 0 -17 -7 -20 -40 -20 -33 0 -40 -3 -40 -20 0
-16 -7 -20 -35 -20 -24 0 -35 -5 -35 -15 0 -12 -15 -15 -75 -15 -68 0 -75 -2
-75 -20 0 -19 -7 -20 -125 -20 -118 0 -125 1 -125 20 0 18 -7 20 -55 20 -42 0
-55 3 -55 15 0 12 -13 15 -55 15 -48 0 -55 2 -55 20 0 16 -7 20 -35 20 -28 0
-35 4 -35 20 0 13 -7 20 -20 20 -16 0 -20 7 -20 35 0 28 4 35 20 35 16 0 20 7
20 35 0 28 4 35 20 35 18 0 20 7 20 75 0 68 -2 75 -20 75 -11 0 -20 7 -20 15
0 8 -9 15 -20 15 -17 0 -20 7 -20 40 0 29 -4 40 -15 40 -10 0 -15 11 -15 35 0
28 -4 35 -20 35 -19 0 -20 7 -20 90 0 83 1 90 20 90 18 0 20 7 20 75 0 60 3
75 15 75 10 0 15 11 15 35 0 28 4 35 20 35 11 0 20 7 20 15 0 8 9 15 20 15 18
0 20 7 20 75 0 68 -2 75 -20 75 -16 0 -20 7 -20 35 l0 35 55 0 c48 0 55 2 55
20 0 16 7 20 35 20 28 0 35 4 35 20 0 13 7 20 20 20 13 0 20 -7 20 -20z"/>
<path d="M10470 3540 c0 -18 -7 -20 -75 -20 -68 0 -75 -2 -75 -20 0 -18 -7
-20 -55 -20 -42 0 -55 -3 -55 -15 0 -12 -13 -15 -55 -15 -48 0 -55 -2 -55 -20
0 -18 -7 -20 -55 -20 -42 0 -55 -3 -55 -15 0 -12 -14 -15 -70 -15 -63 0 -70
-2 -70 -20 0 -18 -7 -20 -55 -20 -48 0 -55 -2 -55 -20 0 -18 -7 -20 -55 -20
-42 0 -55 -3 -55 -15 0 -12 -13 -15 -55 -15 -48 0 -55 -2 -55 -20 0 -18 -7
-20 -55 -20 -48 0 -55 -2 -55 -20 0 -13 -7 -20 -20 -20 -18 0 -20 -7 -20 -70
0 -63 2 -70 20 -70 13 0 20 -7 20 -20 0 -16 7 -20 35 -20 24 0 35 -5 35 -15 0
-11 11 -15 40 -15 33 0 40 -3 40 -20 0 -16 7 -20 35 -20 28 0 35 -4 35 -20 0
-18 7 -20 55 -20 l55 0 0 -55 c0 -48 -2 -55 -20 -55 -16 0 -20 -7 -20 -35 0
-24 -5 -35 -15 -35 -12 0 -15 -13 -15 -55 0 -48 -2 -55 -20 -55 -18 0 -20 -7
-20 -55 0 -48 -2 -55 -20 -55 -19 0 -20 -7 -20 -255 0 -248 1 -255 20 -255 18
0 20 -7 20 -55 0 -48 2 -55 20 -55 16 0 20 -7 20 -35 0 -24 5 -35 15 -35 10 0
15 -11 15 -35 0 -28 4 -35 20 -35 13 0 20 -7 20 -20 0 -11 7 -20 15 -20 12 0
15 -14 15 -70 0 -56 -3 -70 -15 -70 -8 0 -15 -9 -15 -20 0 -13 -7 -20 -20 -20
-16 0 -20 -7 -20 -35 0 -24 -5 -35 -15 -35 -8 0 -15 -9 -15 -20 0 -13 -7 -20
-20 -20 -16 0 -20 -7 -20 -35 0 -28 -4 -35 -20 -35 -19 0 -20 -7 -20 -90 0
-83 1 -90 20 -90 13 0 20 -7 20 -20 0 -16 7 -20 35 -20 28 0 35 -4 35 -20 0
-13 7 -20 20 -20 11 0 20 -7 20 -15 0 -10 11 -15 35 -15 28 0 35 -4 35 -20 0
-13 7 -20 20 -20 11 0 20 -7 20 -15 0 -10 11 -15 35 -15 28 0 35 -4 35 -20 0
-16 7 -20 35 -20 28 0 35 -4 35 -20 0 -17 7 -20 40 -20 29 0 40 -4 40 -15 0
-12 13 -15 55 -15 48 0 55 -2 55 -20 0 -16 7 -20 35 -20 28 0 35 -4 35 -20 0
-18 7 -20 70 -20 56 0 70 -3 70 -15 0 -12 13 -15 55 -15 48 0 55 -2 55 -20 0
-19 7 -20 110 -20 103 0 110 -1 110 -20 0 -18 7 -20 75 -20 68 0 75 2 75 20 0
19 7 20 110 20 103 0 110 1 110 20 0 17 7 20 50 20 38 0 50 4 50 15 0 12 15
15 75 15 68 0 75 2 75 20 0 16 7 20 35 20 28 0 35 4 35 20 0 18 7 20 55 20 42
0 55 3 55 15 0 10 11 15 35 15 28 0 35 4 35 20 0 17 7 20 40 20 33 0 40 3 40
20 0 11 7 20 15 20 8 0 15 7 15 15 0 11 11 15 40 15 33 0 40 3 40 20 0 11 7
20 15 20 8 0 15 7 15 15 0 11 11 15 40 15 33 0 40 3 40 20 0 11 7 20 15 20 8
0 15 9 15 20 0 13 7 20 20 20 16 0 20 7 20 35 0 28 4 35 20 35 13 0 20 7 20
20 0 13 -7 20 -20 20 -16 0 -20 7 -20 35 0 28 -4 35 -20 35 -16 0 -20 7 -20
35 0 24 -5 35 -15 35 -8 0 -15 9 -15 20 0 13 -7 20 -20 20 -16 0 -20 7 -20 35
0 28 -4 35 -20 35 -16 0 -20 7 -20 35 0 24 -5 35 -15 35 -11 0 -15 11 -15 40
0 29 4 40 15 40 10 0 15 11 15 35 0 28 4 35 20 35 16 0 20 7 20 35 0 28 4 35
20 35 16 0 20 7 20 35 0 24 5 35 15 35 12 0 15 13 15 55 0 48 2 55 20 55 19 0
20 7 20 95 0 88 1 95 20 95 16 0 20 7 20 35 0 28 -4 35 -20 35 -19 0 -20 7
-20 125 0 118 -1 125 -20 125 -18 0 -20 7 -20 75 0 60 -3 75 -15 75 -10 0 -15
11 -15 35 0 28 -4 35 -20 35 -16 0 -20 7 -20 35 0 28 -4 35 -20 35 -18 0 -20
7 -20 55 l0 55 55 0 c48 0 55 2 55 20 0 17 7 20 40 20 33 0 40 3 40 20 0 17 7
20 50 20 38 0 50 4 50 15 0 8 9 15 20 15 13 0 20 7 20 20 0 13 7 20 20 20 18
0 20 7 20 70 0 63 -2 70 -20 70 -13 0 -20 7 -20 20 0 16 -7 20 -35 20 -28 0
-35 4 -35 20 0 18 -7 20 -75 20 -60 0 -75 3 -75 15 0 12 -13 15 -55 15 -48 0
-55 2 -55 20 0 18 -7 20 -55 20 -48 0 -55 2 -55 20 0 18 -7 20 -55 20 -42 0
-55 3 -55 15 0 12 -14 15 -70 15 -63 0 -70 2 -70 20 0 18 -7 20 -55 20 -42 0
-55 3 -55 15 0 12 -13 15 -55 15 -48 0 -55 2 -55 20 0 18 -7 20 -55 20 -48 0
-55 2 -55 20 0 18 -7 20 -70 20 -63 0 -70 -2 -70 -20 0 -13 -7 -20 -20 -20
-13 0 -20 -7 -20 -20 0 -13 -7 -20 -20 -20 -11 0 -20 -7 -20 -15 0 -8 -7 -15
-15 -15 -8 0 -15 -9 -15 -20 0 -19 -7 -20 -95 -20 -88 0 -95 1 -95 20 0 11 -7
20 -15 20 -8 0 -15 7 -15 15 0 8 -9 15 -20 15 -13 0 -20 7 -20 20 0 11 -7 20
-15 20 -8 0 -15 9 -15 20 0 18 -7 20 -55 20 -48 0 -55 -2 -55 -20z m30 -290
c0 -13 7 -20 20 -20 13 0 20 -7 20 -20 0 -13 7 -20 20 -20 11 0 20 -7 20 -15
0 -13 29 -15 200 -15 171 0 200 2 200 15 0 8 7 15 15 15 8 0 15 9 15 20 0 13
7 20 20 20 13 0 20 7 20 20 0 19 7 20 90 20 83 0 90 -1 90 -20 0 -18 7 -20 55
-20 48 0 55 -2 55 -20 0 -18 7 -20 55 -20 42 0 55 -3 55 -15 0 -12 13 -15 55
-15 48 0 55 -2 55 -20 0 -16 7 -20 35 -20 33 0 35 -2 35 -35 0 -33 -2 -35 -35
-35 -28 0 -35 -4 -35 -20 0 -13 -7 -20 -20 -20 -11 0 -20 -7 -20 -15 0 -8 -7
-15 -15 -15 -12 0 -15 -13 -15 -55 0 -42 3 -55 15 -55 8 0 15 -9 15 -20 0 -13
7 -20 20 -20 16 0 20 -7 20 -35 0 -24 5 -35 15 -35 11 0 15 -11 15 -40 0 -33
3 -40 20 -40 16 0 20 -7 20 -35 0 -28 4 -35 20 -35 18 0 20 -7 20 -55 0 -42 3
-55 15 -55 12 0 15 -17 15 -90 0 -83 1 -90 20 -90 19 0 20 -7 20 -110 0 -103
-1 -110 -20 -110 -18 0 -20 -7 -20 -55 0 -42 -3 -55 -15 -55 -10 0 -15 -11
-15 -35 0 -28 -4 -35 -20 -35 -16 0 -20 -7 -20 -35 0 -28 -4 -35 -20 -35 -13
0 -20 -7 -20 -20 0 -11 -7 -20 -15 -20 -10 0 -15 -11 -15 -35 0 -28 -4 -35
-20 -35 -13 0 -20 -7 -20 -20 0 -11 -7 -20 -15 -20 -12 0 -15 -13 -15 -55 0
-42 3 -55 15 -55 10 0 15 -11 15 -35 0 -28 4 -35 20 -35 16 0 20 -7 20 -35 0
-24 5 -35 15 -35 8 0 15 -9 15 -20 0 -13 7 -20 20 -20 16 0 20 -7 20 -35 0
-28 4 -35 20 -35 18 0 20 -7 20 -55 l0 -55 -40 0 c-33 0 -40 -3 -40 -20 0 -11
-7 -20 -15 -20 -8 0 -15 -7 -15 -15 0 -12 -13 -15 -55 -15 -48 0 -55 -2 -55
-20 0 -16 -7 -20 -35 -20 -28 0 -35 -4 -35 -20 0 -17 -7 -20 -40 -20 -29 0
-40 -4 -40 -15 0 -12 -13 -15 -55 -15 -48 0 -55 -2 -55 -20 0 -17 -7 -20 -50
-20 -38 0 -50 -4 -50 -15 0 -12 -17 -15 -95 -15 -88 0 -95 -1 -95 -20 0 -19
-7 -20 -110 -20 -103 0 -110 1 -110 20 0 19 -7 20 -90 20 -73 0 -90 3 -90 15
0 12 -13 15 -55 15 -48 0 -55 2 -55 20 0 18 -7 20 -55 20 -42 0 -55 3 -55 15
0 11 -12 15 -50 15 -43 0 -50 3 -50 20 0 17 -7 20 -40 20 -33 0 -40 3 -40 20
0 16 -7 20 -35 20 -24 0 -35 5 -35 15 0 10 -11 15 -35 15 -28 0 -35 4 -35 20
0 13 -7 20 -20 20 -13 0 -20 7 -20 20 0 13 -7 20 -20 20 -16 0 -20 7 -20 35 0
28 4 35 20 35 16 0 20 7 20 35 0 28 4 35 20 35 13 0 20 7 20 20 0 11 7 20 15
20 10 0 15 11 15 35 0 28 4 35 20 35 13 0 20 7 20 20 0 13 7 20 20 20 18 0 20
7 20 70 0 63 -2 70 -20 70 -13 0 -20 7 -20 20 0 13 -7 20 -20 20 -16 0 -20 7
-20 35 0 24 -5 35 -15 35 -10 0 -15 11 -15 35 0 28 -4 35 -20 35 -13 0 -20 7
-20 20 0 13 -7 20 -20 20 -18 0 -20 7 -20 55 0 42 -3 55 -15 55 -12 0 -15 13
-15 55 0 48 -2 55 -20 55 -18 0 -20 7 -20 70 0 63 2 70 20 70 19 0 20 7 20
110 0 91 3 110 15 110 12 0 15 13 15 55 0 48 2 55 20 55 16 0 20 7 20 35 0 28
4 35 20 35 17 0 20 7 20 40 0 29 4 40 15 40 10 0 15 11 15 35 0 28 4 35 20 35
13 0 20 7 20 20 0 13 7 20 20 20 18 0 20 7 20 55 0 48 -2 55 -20 55 -11 0 -20
7 -20 15 0 8 -9 15 -20 15 -13 0 -20 7 -20 20 0 16 -7 20 -35 20 -33 0 -35 2
-35 35 0 33 2 35 35 35 28 0 35 4 35 20 0 18 7 20 55 20 42 0 55 3 55 15 0 12
13 15 55 15 48 0 55 2 55 20 0 18 7 20 75 20 68 0 75 2 75 20 0 18 7 20 70 20
63 0 70 -2 70 -20z"/>
</g>
</svg>
